<svg width="47" height="22" viewBox="0 0 47 22" fill="none" xmlns="http://www.w3.org/2000/svg">
<path d="M43.0825 5.29297C42.7735 5.29297 42.5238 5.54308 42.5238 5.85166C42.5238 6.16025 42.7739 6.40996 43.0825 6.40996C43.3911 6.40996 43.6412 6.15985 43.6412 5.85166C43.6412 5.54347 43.3911 5.29297 43.0825 5.29297ZM43.0825 6.29894C42.8355 6.29894 42.6356 6.09861 42.6356 5.85166C42.6356 5.60472 42.8355 5.40479 43.0825 5.40479C43.3294 5.40479 43.529 5.60511 43.529 5.85166C43.529 6.09822 43.329 6.29894 43.0825 6.29894Z" fill="#E11F2A"/>
<path d="M43.3243 5.71179C43.3243 5.58338 43.248 5.52648 43.0959 5.52648H42.8494V6.17645H42.9474V5.89473H43.0596L43.2307 6.17645H43.3397L43.1564 5.89039C43.2516 5.87853 43.3247 5.82796 43.3247 5.71179H43.3243ZM42.9474 5.81136V5.61025H43.0809C43.1485 5.61025 43.2212 5.62526 43.2212 5.70587C43.2212 5.80544 43.1465 5.81136 43.0635 5.81136H42.947H42.9474Z" fill="#E11F2A"/>
<path d="M12.1903 5.29297L3.35547 16.4649H10.3921L12.1915 5.29297H12.1903Z" fill="#E11F2A"/>
<path d="M17.7757 5.29297H13.1235L11.3246 16.4649H15.9241L17.7757 5.29297Z" fill="#E11F2A"/>
<path d="M24.7613 5.29297L22.9623 16.4637C26.0269 16.4337 28.9096 13.9448 29.4186 10.8787C29.9294 7.79485 27.8444 5.29494 24.7613 5.29297Z" fill="#E11F2A"/>
<path d="M19.172 5.29297L17.3209 16.4649H21.975L21.9753 16.4641H22.0303L23.8292 5.29297H19.172Z" fill="#E11F2A"/>
<path d="M36.8614 5.29297C33.7767 5.29297 30.8607 7.79406 30.3487 10.8787C29.8394 13.9551 31.9121 16.4495 34.9826 16.4641V16.4677H35.0671L36.8677 5.29297H36.8614Z" fill="#E11F2A"/>
<path d="M37.8006 5.29297L36.0008 16.4629C39.0641 16.4313 41.9434 13.9437 42.4515 10.8783C42.9628 7.79603 40.8805 5.29732 37.8006 5.29297Z" fill="#E11F2A"/>
</svg>
