<svg width="73" height="21" viewBox="0 0 73 21" fill="none" xmlns="http://www.w3.org/2000/svg">
  <path d="M71.919 0.0166016C71.3602 0.0166016 70.9086 0.476021 70.9086 1.04286C70.9086 1.60969 71.3609 2.06839 71.919 2.06839C72.4771 2.06839 72.9294 1.60897 72.9294 1.04286C72.9294 0.476747 72.4771 0.0166016 71.919 0.0166016ZM71.919 1.86444C71.4724 1.86444 71.1108 1.49647 71.1108 1.04286C71.1108 0.589243 71.4724 0.221998 71.919 0.221998C72.3656 0.221998 72.7265 0.589969 72.7265 1.04286C72.7265 1.49574 72.3649 1.86444 71.919 1.86444Z" fill="#E11F2A"/>
  <path d="M72.3563 0.78593C72.3563 0.550051 72.2184 0.445539 71.9433 0.445539H71.4974V1.63945H71.6746V1.12197H71.8775L72.187 1.63945H72.3842L72.0526 1.11398C72.2248 1.09221 72.357 0.99931 72.357 0.78593H72.3563ZM71.6746 0.968827V0.599404H71.9161C72.0383 0.599404 72.1698 0.626984 72.1698 0.775044C72.1698 0.957941 72.0348 0.968827 71.8847 0.968827H71.6739H71.6746Z" fill="#E11F2A"/>
  <path d="M16.0501 0.0166016L0.0722656 20.5381H12.7981L16.0523 0.0166016H16.0501Z" fill="#E11F2A"/>
  <path d="M26.1513 0.0166016H17.7379L14.4845 20.5381H22.8028L26.1513 0.0166016Z" fill="#E11F2A"/>
  <path d="M38.785 0.0166016L35.5315 20.5359C41.0737 20.4807 46.2873 15.909 47.2076 10.277C48.1316 4.61225 44.3608 0.0202305 38.785 0.0166016Z" fill="#E11F2A"/>
  <path d="M28.6766 0.0166016L25.3288 20.5381H33.7458L33.7465 20.5366H33.8458L37.0993 0.0166016H28.6766Z" fill="#E11F2A"/>
  <path d="M60.668 0.0166016C55.0894 0.0166016 49.8158 4.6108 48.8897 10.277C47.9687 15.9279 51.7173 20.5098 57.2703 20.5366V20.5432H57.4232L60.6795 0.0166016H60.668Z" fill="#E11F2A"/>
  <path d="M62.3666 0.0166016L59.1117 20.5345C64.6518 20.4764 69.8589 15.9069 70.7778 10.2763C71.7025 4.61443 67.9367 0.0245852 62.3666 0.0166016Z" fill="#E11F2A"/>
</svg>