<svg width="73" height="25" viewBox="0 0 73 25" fill="none" xmlns="http://www.w3.org/2000/svg">
  <path fill-rule="evenodd" clip-rule="evenodd" d="M52.7946 21.6562C52.7946 21.6562 52.8339 21.6323 52.8417 21.6323C52.8574 21.6323 52.8652 21.6562 52.8809 21.6722C52.8652 21.6722 52.8495 21.6881 52.8339 21.6881C52.8182 21.6881 52.8103 21.6722 52.7946 21.6562Z" fill="#5F2167"/>
  <path d="M13.0037 0.791173L0.0722656 17.3924H10.3672L13.0037 0.791173Z" fill="#5F2167"/>
  <path d="M21.1722 0.791173H14.3691L11.7325 17.3924H18.4651L21.1722 0.791173Z" fill="#5F2167"/>
  <path d="M31.3965 0.791173L28.7679 17.3924C33.2484 17.3445 37.4699 13.6465 38.2154 9.08778C38.9608 4.51309 35.9084 0.791173 31.3965 0.791173Z" fill="#5F2167"/>
  <path d="M23.2202 0.791173L20.5052 17.3924H27.4025L30.0312 0.791173H23.2202Z" fill="#5F2167"/>
  <path d="M49.0988 0.791173C44.5869 0.791173 40.3183 4.50512 39.5728 9.09575C38.8274 13.6704 41.8641 17.3764 46.3524 17.4003H46.478L49.1145 0.791173H49.0988Z" fill="#5F2167"/>
  <path d="M50.472 0.791173L47.8433 17.3924C52.3238 17.3445 56.5375 13.6465 57.283 9.08778C58.0284 4.50512 54.9839 0.791173 50.472 0.783203" fill="#5F2167"/>
  <path d="M72.1133 16.0933C72.5685 16.0933 72.9294 16.4599 72.9294 16.9062C72.9294 17.3525 72.5763 17.7271 72.1133 17.7271C71.6504 17.7271 71.2894 17.3684 71.2894 16.9062C71.2894 16.4439 71.6582 16.0933 72.1133 16.0933ZM72.0976 16.2606C71.7445 16.2606 71.4856 16.5555 71.4856 16.9062C71.4856 17.2569 71.7445 17.5518 72.1055 17.5518C72.4586 17.5518 72.7175 17.2648 72.7175 16.9062C72.7175 16.5476 72.4586 16.2606 72.1055 16.2606H72.0976ZM71.9799 17.3286H71.7916V16.5236C71.8622 16.5077 71.9642 16.4918 72.0976 16.4918C72.2467 16.4918 72.3174 16.5157 72.3723 16.5555C72.4115 16.5874 72.4507 16.6512 72.4507 16.7309C72.4507 16.8265 72.388 16.8903 72.286 16.9221C72.3644 16.954 72.4115 17.0178 72.4351 17.1294C72.4586 17.2489 72.4743 17.3047 72.49 17.3286H72.2938C72.2938 17.3286 72.2546 17.225 72.231 17.1294C72.2153 17.0417 72.1683 17.0018 72.0663 17.0018H71.9799V17.3286ZM71.9799 16.8664H72.0663C72.1683 16.8664 72.2546 16.8345 72.2546 16.7468C72.2546 16.6751 72.1996 16.6193 72.0819 16.6193C72.0349 16.6193 72.0035 16.6193 71.9799 16.6273V16.8664Z" fill="#5F2167"/>
  <path d="M72.7018 5.02316C72.4664 4.73625 71.9564 4.72828 71.6818 4.85579C71.5013 4.94346 71.3208 5.04707 71.1482 5.17459C69.4219 6.43382 67.7192 9.43845 67.2327 10.2992C66.7383 11.152 66.3303 11.9968 65.9929 12.8495C65.6555 13.6944 65.4907 14.4515 65.4907 15.121C65.4907 15.3919 65.5064 15.6788 65.5456 15.9897C65.577 16.2925 65.6555 16.5794 65.7653 16.8424C65.883 17.1054 66.0399 17.3206 66.2518 17.496C66.4637 17.6633 66.7383 17.751 67.0679 17.751C67.3974 17.751 67.7741 17.6633 68.1429 17.488C68.5038 17.3127 68.8569 17.0895 69.2022 16.8265C69.5475 16.5635 69.8613 16.2766 70.1438 15.9658C70.4341 15.6549 70.6695 15.368 70.8657 15.113C70.9128 15.0731 70.9285 15.0094 70.9285 14.9456C70.9285 14.85 70.8892 14.7942 70.8265 14.7942C70.7872 14.7942 70.7323 14.8261 70.6617 14.8978C70.4812 15.097 70.2615 15.3361 70.0104 15.6151C69.7593 15.894 69.4847 16.157 69.1943 16.4041C68.904 16.6512 68.598 16.8663 68.2841 17.0417C67.9703 17.217 67.6721 17.3047 67.3896 17.3047C67.1071 17.3047 66.9109 17.217 66.7619 17.0497C66.6049 16.8823 66.4951 16.6751 66.4166 16.428C66.3381 16.1889 66.291 15.9339 66.2675 15.6629C66.2518 15.3919 66.2361 15.1688 66.2361 14.9775C66.5186 14.7065 66.8795 14.3399 67.319 13.8777C67.7584 13.4154 68.2292 12.8974 68.7235 12.3156C69.2179 11.7417 69.7201 11.136 70.2223 10.5064C70.7323 9.8768 71.1796 9.25515 71.5798 8.64944C71.9799 8.04373 72.3017 7.47787 72.5528 6.94389C72.8039 6.40991 72.9294 5.95563 72.9294 5.58902C72.9294 5.42165 72.8666 5.23038 72.7097 5.03113M71.9564 6.123C71.9172 6.27443 71.8701 6.42585 71.8308 6.58525C71.7367 6.8881 71.5641 7.25472 71.313 7.709C71.0697 8.15531 70.7794 8.6335 70.4577 9.15154C70.1281 9.66161 69.7672 10.1876 69.3827 10.7296C68.9982 11.2715 68.6137 11.7816 68.237 12.2677C67.8604 12.7539 67.4995 13.1923 67.1542 13.5828C66.8089 13.9733 66.6677 14.1088 66.2832 14.4913C65.6633 13.4313 68.394 8.61756 70.5361 6.13894C70.6538 6.00345 70.7794 5.86796 70.9128 5.74045C71.0462 5.61293 71.1874 5.50135 71.3365 5.41368C71.4856 5.32601 71.619 5.2782 71.7445 5.2782C71.8544 5.2782 71.9329 5.31804 71.9643 5.40571C72.0035 5.49338 72.0192 5.58105 72.0192 5.68466C72.0192 5.84405 71.9956 5.99548 71.9564 6.14691M65.985 9.01605C66.0478 9.08778 66.0713 9.17545 66.0635 9.30297C66.0556 9.51018 65.9693 9.6377 65.883 9.74928C65.8281 9.82898 65.7732 9.90071 65.7496 9.99634C65.7261 10.076 65.7339 10.1398 65.7653 10.1717C65.7889 10.2036 65.8281 10.2195 65.883 10.2195C65.9144 10.2195 65.9301 10.2195 65.9301 10.2195C66.1184 10.1956 66.7148 9.65364 66.7305 9.2153C66.7462 8.64944 66.1106 8.32268 65.7025 8.17125C65.7418 7.98794 65.7496 7.86839 65.7261 7.80464C65.6947 7.72494 65.6162 7.68509 65.5064 7.68509C65.4122 7.68509 65.3102 7.71697 65.271 7.74885C65.2396 7.78073 65.1925 7.86839 65.169 7.93215C65.1454 7.92418 65.1297 7.91621 65.1062 7.90824C64.9571 7.8684 64.8316 7.84449 64.7374 7.84449C64.502 7.84449 64.2195 7.90027 63.8899 8.01982C63.4819 8.15531 63.0346 8.43425 62.5638 8.85666C62.093 9.27906 61.6458 9.75725 61.2456 10.2833C60.8376 10.8172 60.4845 11.3751 60.1941 11.941C59.9116 12.5068 59.739 13.0089 59.6919 13.4234C59.6684 13.6864 59.6998 13.8936 59.8096 14.061C59.9116 14.2283 60.1156 14.316 60.406 14.316C60.6963 14.316 61.0023 14.1965 61.324 13.9733C61.6379 13.7501 61.9518 13.4792 62.25 13.1683C62.5403 12.8655 62.8149 12.5308 63.066 12.1881C63.2543 11.925 63.4113 11.7019 63.5368 11.5186C63.4113 11.941 63.2936 12.3474 63.1837 12.73C63.0582 13.2002 62.9091 13.6784 62.7443 14.1407C62.2186 14.2283 61.583 14.3798 60.8768 14.6029C60.1627 14.8261 59.4094 15.113 58.6405 15.4637C57.8793 15.8143 57.1025 16.2208 56.3414 16.6751C55.5802 17.1373 54.8819 17.6394 54.2777 18.1814C53.6735 18.7154 53.1634 19.3051 52.7475 19.9268C52.3395 20.5484 52.0963 21.194 52.0256 21.8475C51.9864 22.254 52.0256 22.6206 52.1355 22.9394C52.2532 23.2661 52.4337 23.5371 52.6691 23.7682C52.9045 23.9994 53.187 24.1747 53.5165 24.2863C53.8382 24.4058 54.1992 24.4616 54.5758 24.4616C55.1722 24.4616 55.7607 24.3421 56.3335 24.1109C56.9063 23.8798 57.4634 23.569 57.9892 23.1944C58.5149 22.8198 59.0093 22.3815 59.4565 21.9113C59.8959 21.449 60.3118 20.9708 60.6728 20.5006C61.3319 19.6478 61.9047 18.7074 62.3834 17.6952C62.8542 16.683 63.2701 15.6709 63.6153 14.6826C63.6938 14.6667 63.7644 14.6587 63.835 14.6587H64.0783C64.196 14.6587 64.3137 14.6587 64.4471 14.6746C64.5726 14.6746 64.6746 14.7145 64.7609 14.7782C64.8394 14.8659 64.91 14.9137 64.9649 14.9137C65.012 14.9137 65.0983 14.8898 65.114 14.7304C65.1297 14.587 65.0905 14.4674 64.9885 14.3877C64.8943 14.308 64.7845 14.2522 64.6511 14.2044C64.5177 14.1646 64.3764 14.1407 64.2195 14.1247C64.0783 14.1247 63.9527 14.1168 63.835 14.1168H63.7879C63.9919 13.4632 64.1881 12.8495 64.4 12.2518C64.6118 11.6302 64.8237 10.9846 65.0277 10.339C65.0434 10.3072 65.0905 10.1557 65.1847 9.85289C65.2082 9.77319 65.2317 9.70146 65.2474 9.66161L65.2788 9.558C65.3102 9.44642 65.3416 9.35079 65.373 9.25515C65.4044 9.15951 65.4357 9.03199 65.4671 8.93635L65.4828 8.88056C65.4828 8.88056 65.4907 8.84869 65.5064 8.83275C65.7496 8.84869 65.9066 8.90447 65.9929 8.99214M61.6458 17.48C61.2456 18.4205 60.7591 19.3211 60.202 20.1499C59.9116 20.5962 59.5585 21.0505 59.1505 21.5048C58.7425 21.9591 58.2952 22.3895 57.8322 22.764C57.3614 23.1466 56.8592 23.4574 56.3335 23.6965C55.8156 23.9356 55.2742 24.0551 54.7171 24.0551C54.0893 24.0551 53.595 23.8639 53.234 23.4893C52.8809 23.1147 52.7397 22.5967 52.8025 21.9431C52.8731 21.2498 53.132 20.5962 53.5636 19.9905C54.003 19.3769 54.4895 18.8429 55.0074 18.3966C55.439 18.014 55.9804 17.6235 56.6317 17.225C57.283 16.8265 57.9656 16.4439 58.6718 16.1012C59.3859 15.7506 60.1 15.4477 60.814 15.1927C61.5045 14.9456 62.1166 14.7783 62.6502 14.6906C62.3755 15.6231 62.0381 16.5555 61.6458 17.488M63.6781 10.61C63.2857 11.2157 62.8463 11.8055 62.3677 12.3714C62.3363 12.4112 62.2971 12.4511 62.25 12.4989C62.195 12.5547 62.1401 12.6264 62.0695 12.6981C61.9518 12.8336 61.8184 12.9611 61.6772 13.0807C61.5281 13.2082 61.3947 13.3118 61.2534 13.3915C61.12 13.4712 60.9866 13.511 60.8611 13.511C60.7434 13.511 60.6728 13.4632 60.6414 13.3756C60.6021 13.2719 60.5943 13.1604 60.61 13.0249C60.6335 12.7938 60.712 12.5387 60.8454 12.2598C60.9788 11.9808 61.1357 11.6939 61.3084 11.4229C61.481 11.1599 61.6693 10.889 61.8655 10.6419C62.0616 10.3948 62.2421 10.1876 62.4069 10.0203C62.6815 9.72537 63.0111 9.43845 63.3877 9.15951C63.7565 8.88853 64.1489 8.75305 64.5569 8.75305C64.6197 8.75305 64.6746 8.75305 64.7217 8.76102C64.4 9.39064 64.039 10.0123 63.6624 10.61" fill="#5F2167"/>
</svg>