<svg width="538" height="169" viewBox="0 0 538 169" fill="none" xmlns="http://www.w3.org/2000/svg">
<path fill-rule="evenodd" clip-rule="evenodd" d="M0.566406 47H85.0109C76.1928 45.6191 70.1302 43.118 66.8229 39.4966C59.2286 31.1809 58.2034 19.5066 51.9715 16.2095C45.7397 12.9123 39.6316 16.7545 37.41 22.9273C35.1885 29.1001 34.0055 34.9106 31.607 34.3695C29.2086 33.8285 24.2622 26.3835 20.9158 26.3835C17.5695 26.3835 15.4184 31.2483 14.18 34.3695C13.6659 35.6654 12.8938 38.5464 8.8503 42.2562C7.54233 43.4562 4.78103 45.0375 0.566406 47Z" fill="url(#paint0_linear_3784_396382)"/>
<path fill-rule="evenodd" clip-rule="evenodd" d="M347.648 44.5891H466.567C454.149 42.665 445.612 39.1799 440.954 34.1337C430.259 22.5466 428.816 6.27953 420.04 1.68527C411.264 -2.90898 402.662 2.44477 399.533 11.046C396.405 19.6472 394.739 27.7435 391.361 26.9897C387.984 26.2358 381.018 15.8618 376.306 15.8618C371.593 15.8618 368.564 22.6405 366.82 26.9897C366.096 28.7953 365.009 32.8097 359.314 37.979C357.472 39.6511 353.584 41.8545 347.648 44.5891Z" fill="url(#paint1_linear_3784_396382)"/>
<path fill-rule="evenodd" clip-rule="evenodd" d="M466.566 82.9944H537.437C530.037 81.855 524.949 79.7913 522.173 76.8032C515.799 69.9418 514.939 60.3093 509.709 57.5888C504.479 54.8683 499.352 58.0385 497.488 63.1317C495.623 68.2249 494.631 73.0192 492.618 72.5728C490.605 72.1264 486.453 65.9835 483.645 65.9835C480.836 65.9835 479.031 69.9974 477.992 72.5728C477.56 73.642 476.912 76.0192 473.519 79.0802C472.421 80.0703 470.104 81.3751 466.566 82.9944Z" fill="url(#paint2_linear_3784_396382)"/>
<path fill-rule="evenodd" clip-rule="evenodd" d="M66.5664 82.9944H137.437C130.037 81.855 124.949 79.7913 122.173 76.8032C115.799 69.9418 114.939 60.3093 109.709 57.5888C104.479 54.8683 99.3522 58.0385 97.4878 63.1317C95.6233 68.2249 94.6305 73.0192 92.6176 72.5728C90.6046 72.1264 86.4533 65.9835 83.6449 65.9835C80.8364 65.9835 79.0311 69.9974 77.9918 72.5728C77.5603 73.642 76.9123 76.0192 73.5187 79.0802C72.421 80.0703 70.1036 81.3751 66.5664 82.9944Z" fill="url(#paint3_linear_3784_396382)"/>
<g clip-path="url(#clip0_3784_396382)">
<path d="M129.825 149.181L391.973 149.181V115.059L129.825 115.059V149.181Z" fill="#2C2E35" stroke="#2C2E35" stroke-miterlimit="10"/>
<path d="M374.969 150.492C376.634 140.702 370.029 131.42 360.216 129.758C350.403 128.097 341.098 134.687 339.433 144.477C337.768 154.266 344.373 163.549 354.186 165.21C363.999 166.871 373.304 160.281 374.969 150.492Z" fill="#2C2E35" stroke="#2C2E35" stroke-miterlimit="10"/>
<path d="M360.983 157.512C366.545 155.431 369.362 149.247 367.276 143.698C365.19 138.15 358.991 135.339 353.429 137.42C347.868 139.501 345.05 145.686 347.136 151.234C349.222 156.783 355.422 159.593 360.983 157.512Z" fill="#959DB6" stroke="#2C2E35" stroke-miterlimit="10"/>
<path d="M179.707 160.194C186.745 153.172 186.745 141.789 179.707 134.767C172.669 127.746 161.258 127.746 154.22 134.767C147.182 141.789 147.182 153.172 154.22 160.194C161.258 167.215 172.669 167.215 179.707 160.194Z" fill="#2C2E35" stroke="#2C2E35" stroke-miterlimit="10"/>
<path d="M174.569 155.067C178.769 150.877 178.769 144.084 174.569 139.894C170.369 135.704 163.559 135.704 159.359 139.894C155.159 144.084 155.159 150.877 159.359 155.067C163.559 159.257 170.369 159.257 174.569 155.067Z" fill="#959DB6" stroke="#2C2E35" stroke-miterlimit="10"/>
<path d="M362.947 37.2044L353.85 31.641C350.545 29.6219 346.507 28.5264 342.363 28.5264H194.311C189.79 28.5264 185.408 29.8259 181.974 32.1888L173.113 38.2784L362.947 37.1937V37.2044Z" fill="#B41922" stroke="#2C2E35" stroke-miterlimit="10"/>
<path d="M354.087 41.6292L345.84 36.0658C342.847 34.0467 339.187 32.9512 335.429 32.9512H201.201C197.1 32.9512 193.127 34.2507 190.016 36.6136L181.984 42.7032L354.097 41.6185L354.087 41.6292Z" fill="#2C2E35" stroke="#2C2E35" stroke-miterlimit="10"/>
<path d="M426.435 34.1221H80.7881C75.1253 34.1221 70.5391 38.6974 70.5391 44.3467V142.791L112.375 149.31H144.565C145.189 135.659 150.206 125.059 166.968 125.059C183.429 125.059 188.705 135.659 189.361 149.31H334.818C335.443 135.659 340.459 125.059 357.222 125.059C373.683 125.059 378.958 135.659 379.615 149.31H430.129C437.502 149.31 449.56 149.297 450.002 142.001C451.002 125.501 450.002 109.501 449.002 103.001L439.225 45.077C438.256 38.7725 432.83 34.1221 426.435 34.1221Z" fill="#E11F2A" stroke="#2C2E35" stroke-miterlimit="10"/>
<path d="M426.435 34.1211H80.7881C75.1253 34.1211 70.5391 38.6964 70.5391 44.3457V142.79L112.375 149.309H144.565C145.189 135.658 150.206 125.058 166.968 125.058C183.429 125.058 188.705 135.658 189.361 149.309H334.818C335.443 135.658 340.459 125.058 357.222 125.058C373.683 125.058 378.958 135.658 379.615 149.309H430.129C437.502 149.309 449.56 149.296 450.002 142C451.002 125.5 450.002 109.5 449.002 103L439.225 45.076C438.256 38.7716 432.83 34.1211 426.435 34.1211Z" fill="url(#paint4_linear_3784_396382)" fill-opacity="0.8" style="mix-blend-mode:overlay"/>
<path d="M426.435 34.1211H80.7881C75.1253 34.1211 70.5391 38.6964 70.5391 44.3457V142.79L112.375 149.309H144.565C145.189 135.658 150.206 125.058 166.968 125.058C183.429 125.058 188.705 135.658 189.361 149.309H334.818C335.443 135.658 340.459 125.058 357.222 125.058C373.683 125.058 378.958 135.658 379.615 149.309H430.129C437.502 149.309 449.56 149.296 450.002 142C451.002 125.5 450.002 109.5 449.002 103L439.225 45.076C438.256 38.7716 432.83 34.1211 426.435 34.1211Z" stroke="#2C2E35" stroke-miterlimit="10"/>
<path d="M199.336 86.833C198.415 86.833 197.672 87.5791 197.672 88.4996C197.672 89.42 198.417 90.1649 199.336 90.1649C200.255 90.1649 201 89.4189 201 88.4996C201 87.5802 200.255 86.833 199.336 86.833ZM199.336 89.8337C198.6 89.8337 198.005 89.2362 198.005 88.4996C198.005 87.7629 198.6 87.1666 199.336 87.1666C200.071 87.1666 200.666 87.7641 200.666 88.4996C200.666 89.235 200.07 89.8337 199.336 89.8337Z" stroke="white" stroke-opacity="0.5" stroke-width="1.7" stroke-linejoin="round"/>
<path d="M200.056 88.0823C200.056 87.6993 199.829 87.5296 199.376 87.5296H198.641V89.4684H198.933V88.628H199.268L199.777 89.4684H200.102L199.556 88.6151C199.84 88.5797 200.057 88.4288 200.057 88.0823H200.056ZM198.933 88.3793V87.7794H199.331C199.532 87.7794 199.749 87.8242 199.749 88.0647C199.749 88.3617 199.526 88.3793 199.279 88.3793H198.932H198.933Z" stroke="white" stroke-opacity="0.5" stroke-width="1.7" stroke-linejoin="round"/>
<path d="M107.316 86.833L81 120.158H101.96L107.32 86.833H107.316Z" stroke="white" stroke-opacity="0.5" stroke-width="1.7" stroke-linejoin="round"/>
<path d="M123.954 86.833H110.096L104.738 120.158H118.439L123.954 86.833Z" stroke="white" stroke-opacity="0.5" stroke-width="1.7" stroke-linejoin="round"/>
<path d="M144.762 86.833L139.403 120.155C148.532 120.065 157.119 112.641 158.635 103.495C160.157 94.2959 153.946 86.8389 144.762 86.833Z" stroke="white" stroke-opacity="0.5" stroke-width="1.7" stroke-linejoin="round"/>
<path d="M128.113 86.833L122.599 120.158H136.462L136.463 120.156H136.627L141.986 86.833H128.113Z" stroke="white" stroke-opacity="0.5" stroke-width="1.7" stroke-linejoin="round"/>
<path d="M180.805 86.833C171.616 86.833 162.931 94.2936 161.405 103.495C159.888 112.672 166.062 120.112 175.208 120.156V120.166H175.46L180.824 86.833H180.805Z" stroke="white" stroke-opacity="0.5" stroke-width="1.7" stroke-linejoin="round"/>
<path d="M183.602 86.833L178.241 120.152C187.366 120.058 195.943 112.637 197.456 103.494C198.979 94.2995 192.777 86.846 183.602 86.833Z" stroke="white" stroke-opacity="0.5" stroke-width="1.7" stroke-linejoin="round"/>
<path d="M427.467 117.497L411.562 113.402C411.086 113.28 410.737 113.845 411.06 114.215L416.061 119.945C416.851 120.85 417.893 121.497 419.054 121.802L433.721 125.663C434.166 125.781 434.52 125.284 434.264 124.901L430.955 119.966C430.135 118.743 428.894 117.864 427.467 117.497Z" fill="#474A56" stroke="#2C2E35" stroke-miterlimit="10"/>
<path d="M419.842 115.533L414.922 114.267L421.706 122.5L426.138 123.667L419.842 115.533Z" fill="#808391" stroke="#2C2E35" stroke-miterlimit="10"/>
<path d="M450 139.5L448 138.5L447 129.5L450.17 130.5L450 139.5Z" fill="#F1F3F9" stroke="#2C2E35" stroke-miterlimit="10"/>
<path d="M78.1053 40.2655H429.372C429.372 40.2655 433.678 40.0292 438.792 43.3157C438.965 43.8956 439.115 44.4756 439.201 45.0878L449.5 107C442.718 105.378 423.289 100.024 406.635 79.7784H85.8998C85.8998 79.7784 76.1567 74.6017 78.1053 40.2655Z" fill="#2C2E35" stroke="#2C2E35" stroke-miterlimit="10"/>
<path d="M343.676 44.798H400.165V75.2463H343.676V44.798ZM281.988 75.2356H338.476V44.7873H281.988V75.2356ZM220.3 75.2356H276.788V44.7873H220.3V75.2356ZM158.623 75.2356H215.111V44.7873H158.623V75.2356ZM85.5661 75.2356H153.294V44.7873H81.1521C80.6569 61.7137 83.2083 70.6495 85.5661 75.2356ZM410.65 43.6059V75.0422C410.65 75.0422 421.013 94.9545 446 102L436.187 48.4819C436.187 48.4819 434.012 44.1429 429.125 43.6059C424.237 43.0689 410.65 43.6059 410.65 43.6059Z" fill="#474A56" stroke="#2C2E35" stroke-miterlimit="10"/>
<path d="M405 77L405 149" stroke="#2C2E35" stroke-width="3" stroke-miterlimit="10"/>
<path d="M439 102L439 149" stroke="#2C2E35" stroke-width="3" stroke-miterlimit="10"/>
<path d="M92.9869 105.941H77.6133" stroke="#2C2E35" stroke-miterlimit="10"/>
<path d="M386 106H98" stroke="#2C2E35" stroke-miterlimit="10"/>
<path d="M400.676 105.941H390.664" stroke="#2C2E35" stroke-miterlimit="10"/>
<path d="M330.781 105.941V145.508" stroke="#2C2E35" stroke-miterlimit="10"/>
<path d="M282.43 138.988V145.508" stroke="#2C2E35" stroke-miterlimit="10"/>
<path d="M282.43 105.941V135.359" stroke="#2C2E35" stroke-miterlimit="10"/>
<path d="M234.082 105.941V145.508" stroke="#2C2E35" stroke-miterlimit="10"/>
<path d="M140.086 105.941V145.508" stroke="#2C2E35" stroke-miterlimit="10"/>
<path d="M77.2227 105.941V141.878" stroke="#2C2E35" stroke-miterlimit="10"/>
<path d="M71.3889 116.757H75.7383V106.715H71.3889V116.757Z" fill="#FFD898" stroke="#2C2E35" stroke-miterlimit="10"/>
<path d="M423.011 41L451.686 41C451.686 41 457.209 41 458.318 43.5669C459.426 46.1338 461.268 60.2206 461.268 60.2206L458.318 65L454.991 51.6542L449.834 46.1445H427.791L423 41H423.011Z" fill="#E11F2A" stroke="#2C2E35" stroke-miterlimit="10"/>
<path d="M343.676 68.6186C357.413 67.7701 371.753 66.5779 386.987 65.2569C391.519 64.8702 395.911 64.7951 400.164 65.0099V75.2345H343.676V68.6186Z" fill="#808391" stroke="#2C2E35" stroke-miterlimit="10"/>
<path d="M220.301 59.5332C225.856 60.1776 231.519 61.1335 237.289 62.4867C250.52 65.5906 263.579 67.5668 276.789 68.6838V75.2353H220.301V59.5332Z" fill="#808391" stroke="#2C2E35" stroke-miterlimit="10"/>
<path d="M441.504 76.499L446.004 101.999C421.016 94.9535 410.652 75.0413 410.652 75.0413V66.1162C421.924 67.9313 432.784 72.0419 441.504 76.499Z" fill="#808391" stroke="#2C2E35" stroke-miterlimit="10"/>
<path d="M281.988 69.081C300.161 70.3161 318.71 70.0262 338.476 68.9199V75.2351H281.988V69.081Z" fill="#808391" stroke="#2C2E35" stroke-miterlimit="10"/>
<path d="M109.79 71.895C124.356 69.9295 138.717 66.7827 153.284 64.0332V75.2352H85.5666C85.2436 74.6122 84.9206 73.8926 84.5977 73.0871C92.349 73.3771 100.822 73.0979 109.79 71.8842V71.895Z" fill="#808391" stroke="#2C2E35" stroke-miterlimit="10"/>
<path d="M158.625 63.0555C176.776 59.7905 195.336 57.4491 215.113 59.0387V75.2455H158.625V63.0555Z" fill="#808391" stroke="#2C2E35" stroke-miterlimit="10"/>
<path d="M416 104H409V107H416V104Z" fill="#2C2E35"/>
<path d="M282.369 85.9834C282.022 85.9834 281.742 86.269 281.742 86.6213C281.742 86.9737 282.023 87.2588 282.369 87.2588C282.716 87.2588 282.996 86.9732 282.996 86.6213C282.996 86.2694 282.716 85.9834 282.369 85.9834ZM282.369 87.1321C282.092 87.1321 281.868 86.9033 281.868 86.6213C281.868 86.3394 282.092 86.1111 282.369 86.1111C282.646 86.1111 282.87 86.3398 282.87 86.6213C282.87 86.9029 282.646 87.1321 282.369 87.1321Z" fill="#FAFBFD"/>
<path d="M282.641 86.4616C282.641 86.315 282.555 86.25 282.384 86.25H282.107V86.9922H282.217V86.6705H282.343L282.536 86.9922H282.658L282.452 86.6656C282.559 86.652 282.641 86.5943 282.641 86.4616H282.641ZM282.217 86.5753V86.3457H282.367C282.443 86.3457 282.525 86.3628 282.525 86.4549C282.525 86.5686 282.441 86.5753 282.348 86.5753H282.217H282.217Z" fill="#FAFBFD"/>
<path d="M247.688 85.9834L237.77 98.74H245.669L247.689 85.9834H247.688Z" fill="#FAFBFD"/>
<path d="M253.958 85.9834H248.736L246.716 98.74H251.88L253.958 85.9834Z" fill="#FAFBFD"/>
<path d="M261.801 85.9834L259.781 98.7386C263.222 98.7044 266.458 95.8625 267.029 92.3615C267.603 88.8402 265.262 85.9857 261.801 85.9834Z" fill="#FAFBFD"/>
<path d="M255.526 85.9834L253.448 98.74H258.673L258.673 98.7391H258.735L260.754 85.9834H255.526Z" fill="#FAFBFD"/>
<path d="M275.385 85.9834C271.922 85.9834 268.648 88.8393 268.074 92.3615C267.502 95.8742 269.829 98.7224 273.276 98.7391V98.7432H273.371L275.392 85.9834H275.385Z" fill="#FAFBFD"/>
<path d="M276.439 85.9834L274.419 98.7377C277.858 98.7016 281.09 95.8611 281.661 92.361C282.235 88.8415 279.897 85.9884 276.439 85.9834Z" fill="#FAFBFD"/>
</g>
<ellipse cx="262" cy="165" rx="150" ry="4" fill="black" fill-opacity="0.2"/>
<defs>
<linearGradient id="paint0_linear_3784_396382" x1="42.7886" y1="15" x2="42.7886" y2="47" gradientUnits="userSpaceOnUse">
<stop stop-color="#C7E1F9"/>
<stop offset="1" stop-color="#E8F5FE"/>
</linearGradient>
<linearGradient id="paint1_linear_3784_396382" x1="407.108" y1="0" x2="407.108" y2="44.5891" gradientUnits="userSpaceOnUse">
<stop stop-color="#C7E1F9"/>
<stop offset="1" stop-color="#E8F5FE"/>
</linearGradient>
<linearGradient id="paint2_linear_3784_396382" x1="502.002" y1="56.5908" x2="502.002" y2="82.9944" gradientUnits="userSpaceOnUse">
<stop stop-color="#C7E1F9"/>
<stop offset="1" stop-color="#E8F5FE"/>
</linearGradient>
<linearGradient id="paint3_linear_3784_396382" x1="102.002" y1="56.5908" x2="102.002" y2="82.9944" gradientUnits="userSpaceOnUse">
<stop stop-color="#C7E1F9"/>
<stop offset="1" stop-color="#E8F5FE"/>
</linearGradient>
<linearGradient id="paint4_linear_3784_396382" x1="74.9802" y1="42.5" x2="447.905" y2="142.684" gradientUnits="userSpaceOnUse">
<stop/>
<stop offset="0.495" stop-color="white"/>
<stop offset="1" stop-color="white" stop-opacity="0"/>
</linearGradient>
<clipPath id="clip0_3784_396382">
<rect width="397" height="138" fill="white" transform="translate(70 28)"/>
</clipPath>
</defs>
</svg>
