<svg width="60" height="31" viewBox="0 0 60 31" fill="none" xmlns="http://www.w3.org/2000/svg">
<path d="M36.3968 11.0938C36.1473 11.0938 35.9448 11.2963 35.9448 11.5458C35.9448 11.7952 36.1463 11.9968 36.3968 11.9968C36.6473 11.9968 36.8478 11.7943 36.8478 11.5458C36.8478 11.2973 36.6463 11.0938 36.3968 11.0938ZM36.3968 11.9068C36.1972 11.9068 36.0358 11.7453 36.0358 11.5458C36.0358 11.3462 36.1972 11.1847 36.3968 11.1847C36.5964 11.1847 36.7578 11.3462 36.7578 11.5458C36.7578 11.7453 36.5964 11.9068 36.3968 11.9068Z" fill="#E11F2A"/>
<path d="M36.5925 11.4323C36.5925 11.3286 36.5308 11.2826 36.4076 11.2826H36.208V11.808H36.2872V11.58H36.3782L36.5162 11.808H36.6042L36.4555 11.5771C36.5318 11.5673 36.5915 11.5262 36.5915 11.4332L36.5925 11.4323ZM36.2882 11.5125V11.3501H36.3958C36.4506 11.3501 36.5093 11.3628 36.5093 11.4274C36.5093 11.5076 36.4496 11.5125 36.3821 11.5125H36.2882Z" fill="#E11F2A"/>
<path d="M11.4269 11.0938L4.28577 20.1241H9.97302L11.4279 11.0938H11.4269Z" fill="#E11F2A"/>
<path d="M15.9411 11.0938H12.1812L10.7273 20.1241H14.4451L15.9411 11.0938Z" fill="#E11F2A"/>
<path d="M21.5882 11.0938L20.1344 20.1231C22.6116 20.0987 24.9421 18.0871 25.353 15.6089C25.7659 13.116 24.0801 11.0957 21.5882 11.0938Z" fill="#E11F2A"/>
<path d="M17.0701 11.0938L15.5742 20.1241H19.336V20.1231H19.381L20.8349 11.0938H17.0701Z" fill="#E11F2A"/>
<path d="M31.369 11.0938C28.8751 11.0938 26.5192 13.116 26.1053 15.6089C25.6935 18.0959 27.3684 20.1114 29.8505 20.1231V20.1261H29.919L31.3739 11.0938H31.369Z" fill="#E11F2A"/>
<path d="M32.1272 11.0938L30.6724 20.1221C33.1486 20.0967 35.4762 18.0862 35.8861 15.6079C36.2999 13.117 34.6172 11.0977 32.1272 11.0938Z" fill="#E11F2A"/>
<path d="M39.5922 18.0852C39.5922 18.0852 39.2938 17.8973 38.8613 17.8973C38.3956 17.8973 38.061 18.2525 38.061 18.6849C38.061 19.1174 38.3956 19.4725 38.8613 19.4725C39.3554 19.4725 39.6411 19.2191 39.6411 19.2191V19.9049C39.6411 19.9049 39.3182 20.1172 38.8369 20.1172C38.0121 20.1172 37.3869 19.493 37.3869 18.68C37.3869 17.867 38.0277 17.2506 38.8369 17.2506C39.3182 17.2506 39.5922 17.414 39.5922 17.414V18.0852Z" fill="#E11F2A"/>
<path d="M41.3434 17.2526C42.1516 17.2526 42.7934 17.8856 42.7934 18.682C42.7934 19.4784 42.1526 20.1192 41.3434 20.1192C40.5343 20.1192 39.8984 19.4784 39.8984 18.682C39.8984 17.8856 40.5431 17.2526 41.3434 17.2526ZM41.3434 19.4735C41.7681 19.4735 42.1193 19.1105 42.1193 18.681C42.1193 18.2515 41.7681 17.8973 41.3434 17.8973C40.9188 17.8973 40.5715 18.2525 40.5715 18.681C40.5715 19.1095 40.9188 19.4735 41.3434 19.4735Z" fill="#E11F2A"/>
<path d="M43.9772 18.6605V20.0771H43.3031V17.1371L44.9849 18.7299V17.2927H45.659V20.2366L43.9772 18.6605Z" fill="#E11F2A"/>
<path d="M48.3945 20.0771H46.3527V17.2927H48.3701V17.9257H47.0268V18.363H48.1695V18.9833H47.0268V19.4451H48.3945V20.0781V20.0771Z" fill="#E11F2A"/>
<path d="M51.0078 18.0852C51.0078 18.0852 50.7094 17.8973 50.2769 17.8973C49.8112 17.8973 49.4766 18.2525 49.4766 18.6849C49.4766 19.1174 49.8112 19.4725 50.2769 19.4725C50.771 19.4725 51.0567 19.2191 51.0567 19.2191V19.9049C51.0567 19.9049 50.7338 20.1172 50.2525 20.1172C49.4277 20.1172 48.8025 19.493 48.8025 18.68C48.8025 17.867 49.4434 17.2506 50.2525 17.2506C50.7338 17.2506 51.0078 17.414 51.0078 17.414V18.0852Z" fill="#E11F2A"/>
<path d="M52.6984 17.9257V20.0771H52.0243V17.9257H51.3013V17.2927H53.4204V17.9257H52.6974H52.6984Z" fill="#E11F2A"/>
<path d="M54.527 17.1048L53.1406 20.0781H53.8225L54.1611 19.3522L54.3509 19.7592H55.0827L55.2314 20.0781H55.9133L54.527 17.1048ZM54.527 18.5665L54.8254 19.2054H54.2295L54.5279 18.5665H54.527Z" fill="#E11F2A"/>
</svg>
