<svg width="104" height="44" viewBox="0 0 104 44" fill="none" xmlns="http://www.w3.org/2000/svg">
<path d="M95.3363 9.53516C94.6526 9.53516 94.1 10.0815 94.1 10.7556C94.1 11.4296 94.6535 11.9751 95.3363 11.9751C96.0191 11.9751 96.5725 11.4288 96.5725 10.7556C96.5725 10.0824 96.0191 9.53516 95.3363 9.53516ZM95.3363 11.7326C94.7898 11.7326 94.3474 11.295 94.3474 10.7556C94.3474 10.2161 94.7898 9.77941 95.3363 9.77941C95.8827 9.77941 96.3242 10.217 96.3242 10.7556C96.3242 11.2941 95.8818 11.7326 95.3363 11.7326Z" fill="#E11F2A"/>
<path d="M95.8714 10.45C95.8714 10.1695 95.7026 10.0452 95.366 10.0452H94.8204V11.465H95.0373V10.8496H95.2856L95.6641 11.465H95.9054L95.4998 10.8402C95.7105 10.8143 95.8722 10.7038 95.8722 10.45H95.8714ZM95.0373 10.6675V10.2282H95.3328C95.4823 10.2282 95.6432 10.261 95.6432 10.4371C95.6432 10.6546 95.4779 10.6675 95.2943 10.6675H95.0364H95.0373Z" fill="#E11F2A"/>
<path d="M26.9791 9.53516L7.42969 33.9391H23.0001L26.9817 9.53516H26.9791Z" fill="#E11F2A"/>
<path d="M39.3382 9.53516H29.0442L25.0635 33.9391H35.2412L39.3382 9.53516Z" fill="#E11F2A"/>
<path d="M54.7958 9.53516L50.8151 33.9365C57.5962 33.8709 63.9751 28.4343 65.1012 21.7367C66.2317 15.0003 61.618 9.53947 54.7958 9.53516Z" fill="#E11F2A"/>
<path d="M42.428 9.53516L38.3319 33.9391H48.6302L48.6311 33.9374H48.7527L52.7333 9.53516H42.428Z" fill="#E11F2A"/>
<path d="M81.5704 9.53516C74.7447 9.53516 68.2924 14.9985 67.1593 21.7367C66.0323 28.4567 70.6189 33.9054 77.4131 33.9374V33.9451H77.6002L81.5844 9.53516H81.5704Z" fill="#E11F2A"/>
<path d="M83.6486 9.53516L79.6662 33.9348C86.4446 33.8657 92.8157 28.4317 93.94 21.7358C95.0714 15.0028 90.4638 9.54465 83.6486 9.53516Z" fill="#E11F2A"/>
</svg>
