<svg width="90" height="25" viewBox="0 0 90 25" fill="none" xmlns="http://www.w3.org/2000/svg">
<path d="M88.3363 0.533203C87.6526 0.533203 87.1 1.07954 87.1 1.75362C87.1 2.42769 87.6535 2.97316 88.3363 2.97316C89.0191 2.97316 89.5725 2.42683 89.5725 1.75362C89.5725 1.0804 89.0191 0.533203 88.3363 0.533203ZM88.3363 2.73064C87.7898 2.73064 87.3474 2.29305 87.3474 1.75362C87.3474 1.21418 87.7898 0.777458 88.3363 0.777458C88.8827 0.777458 89.3242 1.21505 89.3242 1.75362C89.3242 2.29218 88.8818 2.73064 88.3363 2.73064Z" fill="#E11F2A"/>
<path d="M88.8714 1.44808C88.8714 1.16758 88.7026 1.04329 88.366 1.04329H87.8204V2.46308H88.0373V1.84769H88.2856L88.6641 2.46308H88.9054L88.4998 1.8382C88.7105 1.81231 88.8722 1.70183 88.8722 1.44808H88.8714ZM88.0373 1.66558V1.22627H88.3328C88.4823 1.22627 88.6432 1.25906 88.6432 1.43513C88.6432 1.65263 88.4779 1.66558 88.2943 1.66558H88.0364H88.0373Z" fill="#E11F2A"/>
<path d="M19.9791 0.533203L0.429688 24.9371H16.0001L19.9817 0.533203H19.9791Z" fill="#E11F2A"/>
<path d="M32.3382 0.533203H22.0442L18.0635 24.9371H28.2412L32.3382 0.533203Z" fill="#E11F2A"/>
<path d="M47.7958 0.533203L43.8151 24.9345C50.5962 24.8689 56.9751 19.4323 58.1012 12.7347C59.2317 5.9983 54.618 0.537519 47.7958 0.533203Z" fill="#E11F2A"/>
<path d="M35.428 0.533203L31.3319 24.9371H41.6302L41.6311 24.9354H41.7527L45.7333 0.533203H35.428Z" fill="#E11F2A"/>
<path d="M74.5704 0.533203C67.7447 0.533203 61.2924 5.99658 60.1593 12.7347C59.0323 19.4548 63.6189 24.9035 70.4131 24.9354V24.9432H70.6002L74.5844 0.533203H74.5704Z" fill="#E11F2A"/>
<path d="M76.6486 0.533203L72.6662 24.9328C79.4446 24.8638 85.8157 19.4297 86.94 12.7339C88.0714 6.00089 83.4638 0.542697 76.6486 0.533203Z" fill="#E11F2A"/>
</svg>
