<svg width="25" height="25" viewBox="0 0 25 25" fill="none" xmlns="http://www.w3.org/2000/svg">
<path fill-rule="evenodd" clip-rule="evenodd" d="M2.6546 9.75357C2.6546 11.9443 4.43821 13.7278 6.62895 13.7278C8.81322 13.7278 10.6033 11.9443 10.6033 9.75357C10.6033 7.56283 8.81965 5.7793 6.62895 5.7793C4.43821 5.7793 2.6546 7.56283 2.6546 9.75357ZM3.68856 9.75357C3.68856 8.13152 5.0069 6.81333 6.62895 6.81333C8.24454 6.81333 9.56931 8.13152 9.56931 9.75357C9.56931 11.3756 8.25097 12.6941 6.62895 12.6941C5.0069 12.6941 3.68856 11.3756 3.68856 9.75357Z" fill="#1D1F24"/>
<path fill-rule="evenodd" clip-rule="evenodd" d="M7.76641 17.8643L7.94733 18.0259L8.3997 17.9353L9.55006 15.5829H10.7843V19.2211H11.8182V15.0661C11.8182 14.7818 11.5856 14.5489 11.3012 14.5489H2.07948C1.79513 14.5489 1.5625 14.7818 1.5625 15.0661V19.2211H2.59646V15.5829H3.6656L4.41241 17.6898L4.50936 17.9287L4.99404 18.0192L6.461 16.5589L7.76641 17.8643ZM7.97317 16.8883L8.61297 15.5829H6.6734L7.97317 16.8883ZM4.55224 15.5829H6.24679L4.99404 16.8303L4.55224 15.5829Z" fill="#1D1F24"/>
<path fill-rule="evenodd" clip-rule="evenodd" d="M19.3857 17.8643L19.5666 18.0259L20.019 17.9353L21.1693 15.5829H22.4035V19.2211H23.4375V15.0661C23.4375 14.7818 23.2049 14.5489 22.9205 14.5489H13.6988C13.4144 14.5489 13.1818 14.7818 13.1818 15.0661V19.2211H14.2157V15.5829H15.284L16.0253 17.6898L16.1286 17.9287L16.6133 18.0259L18.0803 16.5589L19.3857 17.8643ZM16.1715 15.5829L16.6133 16.8303L17.8661 15.5829H16.1715ZM18.2927 15.5829H20.2323L19.5924 16.8883L18.2927 15.5829Z" fill="#1D1F24"/>
<path fill-rule="evenodd" clip-rule="evenodd" d="M18.2482 13.7278C16.0575 13.7278 14.2739 11.9443 14.2739 9.75357C14.2739 7.56283 16.0575 5.7793 18.2482 5.7793C20.4389 5.7793 22.2225 7.56283 22.2225 9.75357C22.2225 11.9443 20.4389 13.7278 18.2482 13.7278ZM18.2482 6.81333C16.6262 6.81333 15.3078 8.13152 15.3078 9.75357C15.3078 11.3756 16.6262 12.6941 18.2482 12.6941C19.8702 12.6941 21.1886 11.3756 21.1886 9.75357C21.1886 8.13152 19.8638 6.81333 18.2482 6.81333Z" fill="#1D1F24"/>
</svg>
