<svg width="50" height="50" viewBox="0 0 50 50" fill="none" xmlns="http://www.w3.org/2000/svg">
  <circle cx="25" cy="25" r="25" fill="#EAEDF5"/>
  <path d="M25.2528 36.8911H25.2142C23.1926 36.8448 21.5645 36.513 20.1139 35.8572C19.6895 35.6643 19.2574 35.4173 18.833 35.1241C17.5907 34.2753 16.8499 33.033 16.6261 31.4512C16.4641 30.2783 16.8036 29.1672 17.6524 28.1563C18.2002 27.4928 18.8484 26.9835 19.35 26.6131C19.7126 26.3508 20.0753 26.0808 20.4456 25.8339C21.0398 25.4326 21.5568 24.9156 22.0197 24.2752L22.0815 24.1903C22.3284 23.8508 22.5753 23.4958 22.8685 23.164C23.1463 22.8476 23.4472 22.593 23.7636 22.3924C24.7436 21.7751 25.8161 21.7983 26.7883 22.4542C27.1819 22.7242 27.4905 23.0714 27.7606 23.3724C27.9766 23.6193 28.1618 23.8739 28.3316 24.1285L28.4473 24.2983C28.8717 24.8924 29.381 25.394 30.0137 25.8339L30.0909 25.8878C30.631 26.2659 31.1943 26.6594 31.719 27.0992C32.2205 27.5236 32.6449 27.9635 32.9999 28.4188C33.8486 29.5222 34.0801 30.7954 33.6789 32.1997C33.2545 33.6812 32.3208 34.8231 30.8856 35.587C29.8054 36.1657 28.6325 36.5285 27.2822 36.7059C26.8192 36.7677 26.3562 36.7985 25.8933 36.837L25.2528 36.8911ZM25.222 23.4033C24.9982 23.4033 24.7744 23.4803 24.5429 23.627C24.35 23.7504 24.1494 23.9279 23.9642 24.1363C23.725 24.414 23.5013 24.715 23.2698 25.0468L23.208 25.1317C22.6448 25.9187 22.0043 26.5514 21.2636 27.053C20.9086 27.2922 20.5614 27.5468 20.2142 27.8014C19.5737 28.2721 19.1262 28.6734 18.779 29.0978C18.2002 29.7922 17.9688 30.5021 18.0768 31.2505C18.2388 32.4311 18.7635 33.3031 19.6586 33.9204C20.0135 34.1596 20.3685 34.3679 20.7157 34.5222C21.9735 35.0932 23.4009 35.3787 25.2065 35.425L25.7775 35.3788C26.2173 35.3479 26.6495 35.317 27.0816 35.2553C28.2544 35.101 29.2652 34.7846 30.1834 34.2985C31.2637 33.7198 31.9427 32.9019 32.2591 31.8062C32.5292 30.8571 32.3903 30.0468 31.827 29.3215C31.5415 28.9511 31.1866 28.5808 30.7622 28.2259C30.2915 27.8246 29.7822 27.4773 29.2498 27.0992L29.1726 27.0453C28.4087 26.5128 27.7683 25.8802 27.2513 25.1548L27.1279 24.9773C26.9812 24.7612 26.8269 24.5529 26.6572 24.3523C26.4334 24.0977 26.1942 23.8353 25.955 23.6656C25.7081 23.4881 25.4612 23.4033 25.222 23.4033Z" fill="#622366"/>
  <path d="M28.8796 21.7671C28.8102 21.7671 28.7485 21.767 28.679 21.7593C27.5602 21.6976 26.6728 21.1111 26.0941 20.0772C25.554 19.1049 25.4074 17.9938 25.6543 16.7823C25.9166 15.4706 26.5494 14.4135 27.5139 13.6419C28.1157 13.1635 28.7639 12.8934 29.4506 12.8394C30.747 12.7391 31.7886 13.3101 32.4677 14.4829C32.8535 15.1388 33.0464 15.9104 33.0387 16.7746V16.7978C32.9692 18.5725 32.2902 19.9769 31.0247 20.98C30.3612 21.497 29.6435 21.7671 28.8796 21.7671ZM29.7284 14.29C29.6744 14.29 29.6204 14.29 29.5664 14.2978C29.1806 14.3286 28.8102 14.4907 28.4398 14.7839C27.7376 15.3472 27.2978 16.0956 27.1049 17.0756C26.9275 17.9552 27.02 18.7038 27.3904 19.3751C27.7222 19.9692 28.162 20.2701 28.7793 20.301C29.2577 20.3318 29.6976 20.1775 30.1297 19.8303C31.0556 19.0973 31.5263 18.0864 31.588 16.7515C31.588 16.1497 31.4723 15.6559 31.2176 15.2238C30.8318 14.5833 30.3611 14.29 29.7284 14.29Z" fill="#622366"/>
  <path d="M21.8114 21.69C21.2326 21.69 20.6539 21.5202 20.0984 21.1884C19.0953 20.5866 18.3699 19.6683 17.961 18.4492C17.5366 17.2069 17.5443 16.0186 17.9764 14.9152C18.424 13.7732 19.2496 13.0402 20.3607 12.801C20.4842 12.7778 20.6076 12.7623 20.7388 12.7469L20.9471 12.7314C21.7496 12.7392 22.5058 13.017 23.1771 13.5649C24.2574 14.4291 24.9055 15.6251 25.0984 17.122C25.2219 18.0711 25.0984 18.9585 24.7203 19.7455C24.1648 20.9184 23.2389 21.5897 22.0506 21.6823C21.9734 21.69 21.8885 21.69 21.8114 21.69ZM20.9703 14.1975L20.87 14.2053C20.8005 14.213 20.7388 14.213 20.6694 14.2284C20.0366 14.3673 19.6123 14.7531 19.3422 15.4476C19.0335 16.2346 19.0335 17.0603 19.3499 17.9785C19.6508 18.8736 20.1447 19.5063 20.8546 19.9307C21.2249 20.1545 21.5799 20.2471 21.9425 20.2162C22.6061 20.1622 23.0768 19.8149 23.4086 19.1127C23.6632 18.5726 23.7481 17.9785 23.6555 17.3072C23.5089 16.1883 23.0537 15.3395 22.2666 14.6991C21.8499 14.3827 21.4333 14.213 20.9703 14.1975Z" fill="#622366"/>
  <path d="M16.2787 26.8672C15.8851 26.8672 15.4839 26.7823 15.0904 26.6125C14.0796 26.1727 13.3465 25.3703 12.9221 24.2206C12.5055 23.094 12.5132 22.0061 12.953 20.9875C13.3156 20.1387 13.9638 19.5292 14.7817 19.2668C15.5919 19.0122 16.4716 19.1433 17.2509 19.6295C18.308 20.2853 18.9716 21.3193 19.2108 22.685C19.2417 22.8548 19.2571 23.0168 19.2648 23.1634L19.2803 23.3332V23.3872C19.2494 24.2514 19.0565 24.9305 18.6861 25.5092C18.1151 26.3888 17.2278 26.8672 16.2787 26.8672ZM15.6074 20.6094C15.4762 20.6094 15.345 20.6326 15.2138 20.6711C14.8126 20.7946 14.4885 21.1187 14.2956 21.5662C14.0101 22.2375 14.0101 22.9396 14.2956 23.719C14.5811 24.4906 15.0286 24.9999 15.6691 25.2777C16.3558 25.5709 17.0348 25.3626 17.4438 24.7298C17.6676 24.3826 17.7756 23.966 17.8065 23.3872L17.7988 23.2946C17.791 23.1943 17.7833 23.0708 17.7602 22.9474C17.5904 21.9906 17.1737 21.3193 16.4716 20.8795C16.1861 20.6943 15.8929 20.6094 15.6074 20.6094Z" fill="#622366"/>
  <path d="M34.3884 27.0916C34.1723 27.0916 33.9485 27.0684 33.7248 27.0144C32.768 26.7983 32.0503 26.1502 31.6414 25.1394C30.9315 23.3879 31.5874 21.127 33.1229 20.0082C34.0103 19.36 35.0519 19.1903 35.9856 19.5452C36.9424 19.9001 37.6291 20.7489 37.8838 21.8601C37.9301 22.0838 37.9609 22.3075 37.9764 22.4927L37.9995 22.7011V22.7628C37.9532 24.2134 37.4748 25.3323 36.5257 26.2043C35.8776 26.783 35.1445 27.0916 34.3884 27.0916ZM34.9979 20.826C34.6661 20.826 34.3189 20.9495 33.9871 21.1887C32.9994 21.9064 32.5442 23.465 32.9994 24.5915C33.3004 25.3323 33.7402 25.5098 34.0488 25.5792C34.5813 25.7027 35.0519 25.5484 35.5381 25.1085C36.1785 24.5221 36.4949 23.7736 36.5335 22.7551L36.518 22.6317C36.5026 22.5005 36.4871 22.3384 36.4563 22.1763C36.3174 21.5513 35.9547 21.0962 35.4763 20.911C35.322 20.857 35.16 20.826 34.9979 20.826Z" fill="#622366"/>
</svg>