<svg width="50" height="50" viewBox="0 0 50 50" fill="none" xmlns="http://www.w3.org/2000/svg">
  <circle cx="25" cy="25" r="25" fill="#EAEDF5"/>
  <path d="M37.7142 16.0566H29.1268C28.9915 16.0566 28.8842 16.164 28.8888 16.2993L28.9775 25.1434C28.9775 25.274 29.0895 25.3814 29.2202 25.3814L30.0182 25.372C30.1489 25.372 30.2562 25.2647 30.2562 25.1294L30.1769 17.4521C30.1769 17.3867 30.2283 17.3307 30.2983 17.3307H36.5661C36.6314 17.3307 36.6874 17.3821 36.6874 17.4521V25.1387C36.6874 25.2694 36.7948 25.3767 36.9255 25.3767H37.7235C37.8542 25.3767 37.9615 25.2694 37.9615 25.1387V16.2993C37.9522 16.164 37.8449 16.0566 37.7142 16.0566Z" fill="#622366"/>
  <path d="M32.33 24.9521H31.532C31.4013 24.9521 31.2939 25.0595 31.2939 25.1902V33.3014C31.2939 33.4321 31.4013 33.5395 31.532 33.5395H32.33C32.4607 33.5395 32.568 33.4321 32.568 33.3014V25.1902C32.568 25.0595 32.4607 24.9521 32.33 24.9521Z" fill="#622366"/>
  <path d="M35.3124 24.9521H34.5143C34.3837 24.9521 34.2764 25.0595 34.2764 25.1902V33.3014C34.2764 33.4321 34.3837 33.5395 34.5143 33.5395H35.3124C35.4431 33.5395 35.5505 33.4321 35.5505 33.3014V25.1902C35.5505 25.0595 35.4431 24.9521 35.3124 24.9521Z" fill="#622366"/>
  <path d="M16.6475 24.7793H15.8494C15.7187 24.7793 15.6113 24.8866 15.6113 25.0173V33.1286C15.6113 33.2593 15.7187 33.3666 15.8494 33.3666H16.6475C16.7781 33.3666 16.8855 33.2593 16.8855 33.1286V25.0173C16.8855 24.8866 16.7781 24.7793 16.6475 24.7793Z" fill="#622366"/>
  <path d="M19.6337 24.7793H18.8357C18.705 24.7793 18.5977 24.8866 18.5977 25.0173V33.1286C18.5977 33.2593 18.705 33.3666 18.8357 33.3666H19.6337C19.7644 33.3666 19.8718 33.2593 19.8718 33.1286V25.0173C19.8718 24.8866 19.7644 24.7793 19.6337 24.7793Z" fill="#622366"/>
  <path d="M19.6999 16.197C19.6626 16.1083 19.5739 16.0522 19.4806 16.0522H15.6396C15.5416 16.0522 15.4529 16.1129 15.4156 16.2016L12.018 24.7843C11.9526 24.943 12.074 25.1156 12.242 25.1156H13.0914C13.1894 25.1156 13.2781 25.0549 13.3108 24.9662L16.307 17.401C16.3257 17.3543 16.3677 17.3263 16.419 17.3263H18.7245C18.7712 17.3263 18.8132 17.3543 18.8319 17.3963L22.1548 24.9756C22.1921 25.0643 22.2809 25.1203 22.3742 25.1203L23.2376 25.1156C23.4149 25.1156 23.5316 24.9336 23.4616 24.7749L19.6999 16.197Z" fill="#622366"/>
  <path d="M33.4208 9C31.6846 9 30.2705 10.4141 30.2705 12.1503C30.2705 13.8864 31.6846 15.3005 33.4208 15.3005C35.1569 15.3005 36.571 13.8864 36.571 12.1503C36.571 10.4141 35.1569 9 33.4208 9ZM35.3436 12.1503C35.3436 13.2097 34.4802 14.0731 33.4208 14.0731C32.3613 14.0731 31.4979 13.2097 31.4979 12.1503C31.4979 11.0908 32.3613 10.2275 33.4208 10.2275C34.4849 10.2275 35.3436 11.0908 35.3436 12.1503Z" fill="#622366"/>
  <path d="M17.7352 9C15.9991 9 14.585 10.4141 14.585 12.1503C14.585 13.8864 15.9991 15.3005 17.7352 15.3005C19.4714 15.3005 20.8855 13.8864 20.8855 12.1503C20.8855 10.4141 19.4714 9 17.7352 9ZM19.658 12.1503C19.658 13.2097 18.7946 14.0731 17.7352 14.0731C16.6758 14.0731 15.8124 13.2097 15.8124 12.1503C15.8124 11.0908 16.6758 10.2275 17.7352 10.2275C18.7946 10.2275 19.658 11.0908 19.658 12.1503Z" fill="#622366"/>
  <path d="M10.7695 40.6074H11.5075V36.4074H10.7695V40.6074ZM12.5478 40.6074H13.2738V38.8194C13.2738 38.3274 13.5678 38.0334 13.9878 38.0334C14.4198 38.0334 14.6658 38.3154 14.6658 38.8074V40.6074H15.3918V38.5914C15.3918 37.8534 14.9778 37.3734 14.2638 37.3734C13.7718 37.3734 13.4778 37.6314 13.2738 37.9314V37.4394H12.5478V40.6074ZM17.5765 40.6734C18.0925 40.6734 18.4225 40.4094 18.6565 40.0794V40.6074H19.3825V36.2274H18.6565V37.9314C18.4285 37.6374 18.0985 37.3734 17.5765 37.3734C16.8205 37.3734 16.1065 37.9674 16.1065 39.0174C16.1065 40.0794 16.8325 40.6734 17.5765 40.6734ZM17.7505 40.0434C17.2585 40.0434 16.8385 39.6414 16.8385 39.0294C16.8385 38.3874 17.2525 38.0034 17.7505 38.0034C18.2365 38.0034 18.6685 38.4054 18.6685 39.0174C18.6685 39.6354 18.2365 40.0434 17.7505 40.0434ZM20.3 36.9534H21.08V36.2634H20.3V36.9534ZM20.33 40.6074H21.056V37.4394H20.33V40.6074ZM23.0068 40.6314H23.6608L24.9568 37.4394H24.1948L23.3368 39.7674L22.4848 37.4394H21.7048L23.0068 40.6314ZM25.5852 36.9534H26.3652V36.2634H25.5852V36.9534ZM25.6152 40.6074H26.3412V37.4394H25.6152V40.6074ZM28.598 40.6734C29.114 40.6734 29.444 40.4094 29.678 40.0794V40.6074H30.404V36.2274H29.678V37.9314C29.45 37.6374 29.12 37.3734 28.598 37.3734C27.842 37.3734 27.128 37.9674 27.128 39.0174C27.128 40.0794 27.854 40.6734 28.598 40.6734ZM28.772 40.0434C28.28 40.0434 27.86 39.6414 27.86 39.0294C27.86 38.3874 28.274 38.0034 28.772 38.0034C29.258 38.0034 29.69 38.4054 29.69 39.0174C29.69 39.6354 29.258 40.0434 28.772 40.0434ZM32.4015 40.6734C32.8935 40.6734 33.1875 40.4154 33.3915 40.1154V40.6074H34.1175V37.4394H33.3915V39.2274C33.3915 39.7194 33.0975 40.0134 32.6775 40.0134C32.2455 40.0134 31.9995 39.7314 31.9995 39.2394V37.4394H31.2735V39.4554C31.2735 40.1934 31.6875 40.6734 32.4015 40.6734ZM37.6882 40.6074V38.7294C37.6882 37.8834 37.2322 37.3914 36.2962 37.3914C35.7802 37.3914 35.4382 37.4994 35.0902 37.6554L35.2882 38.2374C35.5762 38.1174 35.8402 38.0394 36.1942 38.0394C36.6982 38.0394 36.9742 38.2794 36.9742 38.7174V38.7774C36.7282 38.6994 36.4822 38.6454 36.0982 38.6454C35.3602 38.6454 34.8142 38.9814 34.8142 39.6834C34.8142 40.3314 35.3422 40.6734 35.9422 40.6734C36.4222 40.6734 36.7522 40.4754 36.9682 40.2174V40.6074H37.6882ZM36.9862 39.4614C36.9862 39.8574 36.6262 40.1274 36.1462 40.1274C35.8042 40.1274 35.5342 39.9594 35.5342 39.6594C35.5342 39.3414 35.8042 39.1554 36.2602 39.1554C36.5422 39.1554 36.8002 39.2094 36.9862 39.2814V39.4614ZM38.5937 40.6074H39.3197V36.2274H38.5937V40.6074Z" fill="#622366"/>
</svg>