<svg width="50" height="50" viewBox="0 0 50 50" fill="none" xmlns="http://www.w3.org/2000/svg">
<circle cx="25" cy="25" r="25" fill="#EAEDF5"/>
<path d="M36.6552 17.5054H29.4656V13.8987C29.4656 13.4021 29.0636 13 28.5669 13H21.1348C20.6382 13 20.2361 13.408 20.2361 13.8987V17.5054H13.0465C12.473 17.5054 12 17.9725 12 18.546V35.1248C12 35.6983 12.4671 36.1654 13.0465 36.1654H36.6612C37.2347 36.1654 37.7077 35.6983 37.7077 35.1248V18.546C37.7018 17.9725 37.2288 17.5054 36.6552 17.5054ZM16.8719 19.0072H18.0485V34.6814H16.8719V19.0072ZM19.3492 19.0072H30.3466V34.6814H19.3492V19.0072ZM26.0659 17.5054H23.624V16.2578H26.0659V17.5054ZM31.6473 19.0072H32.8239V34.6814H31.6473V19.0072ZM21.531 14.295H28.1648V17.5054H27.3667V15.7376C27.3667 15.3119 27.0178 14.963 26.5921 14.963H23.0978C22.6721 14.963 22.3233 15.3119 22.3233 15.7376V17.5054H21.5251V14.295H21.531ZM13.4959 19.0072H15.577V34.6814H13.4959V19.0072ZM36.2 34.6754H34.1187V19.0013H36.2V34.6754Z" fill="#622366"/>
</svg>
