<svg width="50" height="50" viewBox="0 0 50 50" fill="none" xmlns="http://www.w3.org/2000/svg">
  <circle cx="25" cy="25" r="25" fill="#EAEDF5"/>
  <path d="M29.8949 35.8411H20.3384C20.0804 35.8411 19.8384 35.6927 19.7255 35.4453L15.8626 27.3793C15.7658 27.1813 15.7658 26.9586 15.8626 26.7607L19.7255 18.6947C19.8384 18.4555 20.0804 18.2988 20.3384 18.2988H29.8949C30.1529 18.2988 30.3949 18.4473 30.5078 18.6947L34.3707 26.7607C34.4675 26.9586 34.4675 27.1813 34.3707 27.3793L30.5078 35.4453C30.3949 35.6845 30.161 35.8411 29.8949 35.8411ZM20.7658 34.4391H29.4675L32.9997 27.0741L29.4675 19.7091H20.7658L17.2336 27.0741L20.7658 34.4391Z" fill="#622366"/>
  <path d="M29.9029 15.767H28.5319V12.3938H21.2577V15.767H19.8867V11.9072C19.8867 11.4041 20.3061 11 20.8222 11H28.9674C29.4835 11 29.9029 11.4124 29.9029 11.9072V15.767Z" fill="#622366"/>
  <path d="M33.121 39.0004H16.879C16.6048 39.0004 16.3629 38.8354 16.25 38.588L12.5564 30.1097H11.6855C11.3065 30.1097 11 29.7963 11 29.4086V24.7324C11 24.3448 11.3065 24.0314 11.6855 24.0314H12.5564L16.25 15.553C16.3629 15.2973 16.6048 15.1406 16.879 15.1406H33.121C33.3952 15.1406 33.6371 15.3056 33.75 15.553L37.4436 24.0314H38.3145C38.6935 24.0314 39 24.3448 39 24.7324V29.4086C39 29.7963 38.6935 30.1097 38.3145 30.1097H37.4436L33.75 38.588C33.6371 38.8354 33.3871 39.0004 33.121 39.0004ZM17.3226 37.5984H32.6774L36.371 29.12C36.4839 28.8643 36.7258 28.7076 37 28.7076H37.6371V25.4252H37C36.7258 25.4252 36.4839 25.2602 36.371 25.0128L32.6774 16.5344H17.3226L13.629 25.0128C13.5161 25.2685 13.2742 25.4252 13 25.4252H12.3629V28.7076H13C13.2742 28.7076 13.5161 28.8726 13.629 29.12L17.3226 37.5984Z" fill="#622366"/>
  <path d="M38.0327 27.6429H11.8634C11.5488 27.6429 11.2988 27.3872 11.2988 27.0656C11.2988 26.7439 11.5488 26.4883 11.8634 26.4883H38.0327C38.3472 26.4883 38.5972 26.7439 38.5972 27.0656C38.5972 27.3872 38.3472 27.6429 38.0327 27.6429Z" fill="#622366"/>
  <path d="M21.7179 18.6621H20.5889V35.4704H21.7179V18.6621Z" fill="#622366"/>
  <path d="M25.6857 18.6621H24.5566V35.4704H25.6857V18.6621Z" fill="#622366"/>
  <path d="M29.6456 18.6621H28.5166V35.4704H29.6456V18.6621Z" fill="#622366"/>
  <path d="M31.8303 30.6211H18.29V31.7757H31.8303V30.6211Z" fill="#622366"/>
  <path d="M36.4997 26.4893H16.79V27.6439H36.4997V26.4893Z" fill="#622366"/>
  <path d="M32.0075 22.3574H18.3301V23.5121H32.0075V22.3574Z" fill="#622366"/>
</svg>