<svg width="50" height="50" viewBox="0 0 50 50" fill="none" xmlns="http://www.w3.org/2000/svg">
  <circle cx="25" cy="25" r="25" fill="#EAEDF5"/>
  <path d="M12.2567 15C12.1166 15 12 15.1167 12 15.2567V32.9074C12 33.0474 12.112 33.1594 12.2567 33.1594H38.0654C38.2055 33.1594 38.3221 33.0474 38.3221 32.9074V15.2567C38.3221 15.1167 38.2101 15 38.0654 15H12.2567ZM13.4888 16.3581H32.9224C32.9924 16.3581 33.0484 16.4141 33.0484 16.4841V31.6754C33.0484 31.7454 32.9924 31.8014 32.9224 31.8014H13.4888C13.4188 31.8014 13.3627 31.7454 13.3627 31.6754V16.4841C13.3627 16.4141 13.4188 16.3581 13.4888 16.3581ZM36.838 31.806H34.2805C34.2105 31.806 34.1545 31.75 34.1545 31.68V16.4888C34.1545 16.4188 34.2105 16.3627 34.2805 16.3627H36.838C36.908 16.3627 36.964 16.4188 36.964 16.4888V31.68C36.964 31.75 36.908 31.806 36.838 31.806Z" fill="#622366"/>
  <path d="M29.0669 34.5503H19.7655C19.6255 34.5503 19.5088 34.6623 19.5088 34.807V35.6564C19.5088 35.7964 19.6208 35.9131 19.7655 35.9131H29.0669C29.2069 35.9131 29.3189 35.8011 29.3189 35.6564V34.807C29.3189 34.6623 29.2069 34.5503 29.0669 34.5503Z" fill="#622366"/>
  <path d="M35.1942 26.0705H36.039C36.179 26.0705 36.2956 25.9584 36.2956 25.8138V24.9643C36.2956 24.8243 36.1837 24.7124 36.039 24.7124H35.1942C35.0542 24.7124 34.9375 24.8243 34.9375 24.9643V25.8138C34.9422 25.9584 35.0542 26.0705 35.1942 26.0705Z" fill="#622366"/>
  <path d="M35.1942 28.8843H36.039C36.179 28.8843 36.2956 28.7723 36.2956 28.6276V27.7782C36.2956 27.6382 36.1837 27.5215 36.039 27.5215H35.1942C35.0542 27.5215 34.9375 27.6335 34.9375 27.7782V28.6276C34.9422 28.7676 35.0542 28.8843 35.1942 28.8843Z" fill="#622366"/>
</svg>