<svg width="50" height="50" viewBox="0 0 50 50" fill="none" xmlns="http://www.w3.org/2000/svg">
  <circle cx="25" cy="25" r="25" fill="#EAEDF5"/>
  <path d="M25.9545 20.0065V20.7952C25.9545 21.626 26.6265 22.298 27.4573 22.298H33.6411C33.7438 22.298 33.8278 22.2141 33.8278 22.1114V21.402H38.1961C38.3081 21.402 38.4015 21.3086 38.4015 21.1966V15.1015C38.4015 14.9895 38.3128 14.896 38.1961 14.896H33.8278V14.1868C33.8278 14.0841 33.7438 14 33.6411 14H27.4573C26.6265 14 25.9545 14.672 25.9545 15.5074V16.2916C25.1378 16.3149 24.461 16.8609 24.2323 17.6029H12.2053C12.0933 17.6029 12 17.6964 12 17.8084V18.4898C12 18.6018 12.0933 18.6951 12.2053 18.6951H24.2323C24.461 19.4371 25.1378 19.9832 25.9545 20.0065ZM37.3141 16.0908V20.2119C37.3141 20.2679 37.2674 20.3145 37.2114 20.3145H33.9305C33.8744 20.3145 33.8278 20.2679 33.8278 20.2119V16.0908C33.8278 16.0348 33.8744 15.9882 33.9305 15.9882H37.2114C37.2674 15.9882 37.3141 16.0302 37.3141 16.0908ZM27.0419 15.5074C27.0419 15.2788 27.2286 15.0875 27.4619 15.0875H32.6423C32.6983 15.0875 32.745 15.1341 32.745 15.1901V21.1079C32.745 21.1639 32.6983 21.2106 32.6423 21.2106H27.4619C27.2332 21.2106 27.0419 21.0239 27.0419 20.7952V15.5074ZM25.9545 17.3836V18.9144C25.5531 18.8864 25.2311 18.5598 25.2311 18.1491C25.2311 17.7384 25.5485 17.4116 25.9545 17.3836Z" fill="#622366"/>
  <path d="M36.5336 16.8096H35.6935C35.6375 16.8096 35.5908 16.8562 35.5908 16.9122V17.7523C35.5908 17.8083 35.6375 17.855 35.6935 17.855H36.5336C36.5896 17.855 36.6363 17.8083 36.6363 17.7523V16.9122C36.6363 16.8562 36.5896 16.8096 36.5336 16.8096Z" fill="#622366"/>
  <path d="M36.5336 18.4473H35.6935C35.6375 18.4473 35.5908 18.4939 35.5908 18.5499V19.39C35.5908 19.446 35.6375 19.4927 35.6935 19.4927H36.5336C36.5896 19.4927 36.6363 19.446 36.6363 19.39V18.5499C36.6363 18.4939 36.5896 18.4473 36.5336 18.4473Z" fill="#622366"/>
  <path d="M38.2044 30.2272H27.2695C27.0221 29.1584 26.07 28.3604 24.9266 28.3604H24.7119C23.8812 26.7969 22.2711 25.7188 20.4043 25.6301V25.6162H16.4373C16.3253 25.6162 16.2319 25.7095 16.2319 25.8215V27.5063H12.6663C12.5543 27.5063 12.4609 27.5997 12.4609 27.7117V28.3931C12.4609 28.5051 12.5543 28.5984 12.6663 28.5984H16.2319V32.9994H12.6663C12.5543 32.9994 12.4609 33.0928 12.4609 33.2048V33.8862C12.4609 33.9982 12.5543 34.0915 12.6663 34.0915H16.2319V35.7297C16.2319 35.8417 16.3253 35.935 16.4373 35.935H20.4043V35.921C22.2711 35.8323 23.8859 34.7543 24.7166 33.1908H24.9313C26.07 33.1908 27.0268 32.3928 27.2741 31.324H38.2091C38.3211 31.324 38.4144 31.2306 38.4144 31.1186V30.4372C38.4097 30.3205 38.3164 30.2272 38.2044 30.2272ZM20.0215 34.8383H17.3193V26.7082H18.5047V33.6808C18.5047 33.7694 18.5795 33.8442 18.6681 33.8442H19.2235C19.3168 33.8442 19.3868 33.7694 19.3868 33.6808V26.7082H20.1569C22.5744 26.7082 24.5066 28.8271 24.1892 31.31C23.9279 33.3588 22.0844 34.8383 20.0215 34.8383ZM25.1413 32.0753C25.2487 31.66 25.314 31.2259 25.314 30.7732C25.314 30.3205 25.2487 29.8866 25.1413 29.4712C25.7714 29.5739 26.2521 30.1152 26.2521 30.7732C26.2521 31.4266 25.7714 31.968 25.1413 32.0753Z" fill="#622366"/>
</svg>