<svg width="50" height="50" viewBox="0 0 50 50" fill="none" xmlns="http://www.w3.org/2000/svg">
  <circle cx="25" cy="25" r="25" fill="#EAEDF5"/>
  <path d="M35.5991 22.2871V18.8288H35.5758C35.3097 13.3637 30.792 9 25.2662 9C19.7404 9 15.2228 13.3637 14.9568 18.8288H14.9287V22.2824H14.8588C14.3874 22.2824 14 22.6651 14 23.1412V30.5572C14 31.0285 14.3827 31.4158 14.8588 31.4158H19.1618C20.0205 31.4158 20.7205 30.7159 20.7205 29.8571V23.8412C20.7205 22.9825 20.0205 22.2824 19.1618 22.2824H16.1701V19.3376C16.1701 14.3205 20.2491 10.2415 25.2662 10.2415C30.2833 10.2415 34.3623 14.3205 34.3623 19.3376V22.2824H31.2774C30.4187 22.2824 29.7186 22.9825 29.7186 23.8412V29.8571C29.7186 30.7159 30.4187 31.4158 31.2774 31.4158H35.5804C36.0518 31.4158 36.4392 31.0332 36.4392 30.5572V23.1412C36.4345 22.6745 36.0611 22.3011 35.5991 22.2871ZM15.2414 23.5192H16.1422V30.1698H15.2414V23.5192ZM19.4791 23.8366V29.8524C19.4791 30.0251 19.3345 30.1698 19.1618 30.1698H17.1503V23.5192H19.1618C19.3345 23.5192 19.4791 23.6639 19.4791 23.8366ZM30.9554 29.8571V23.8412C30.9554 23.6686 31.1001 23.5239 31.2727 23.5239H33.2843V30.1744H31.2727C31.0954 30.1698 30.9554 30.0298 30.9554 29.8571ZM35.193 30.1698H34.2923V23.5192H35.193V30.1698Z" fill="#622366"/>
  <path d="M10.7695 39.4438H11.5075V35.2438H10.7695V39.4438ZM12.5478 39.4438H13.2738V37.6558C13.2738 37.1638 13.5678 36.8698 13.9878 36.8698C14.4198 36.8698 14.6658 37.1518 14.6658 37.6438V39.4438H15.3918V37.4278C15.3918 36.6898 14.9778 36.2098 14.2638 36.2098C13.7718 36.2098 13.4778 36.4678 13.2738 36.7678V36.2758H12.5478V39.4438ZM17.5765 39.5098C18.0925 39.5098 18.4225 39.2458 18.6565 38.9158V39.4438H19.3825V35.0638H18.6565V36.7678C18.4285 36.4738 18.0985 36.2098 17.5765 36.2098C16.8205 36.2098 16.1065 36.8038 16.1065 37.8538C16.1065 38.9158 16.8325 39.5098 17.5765 39.5098ZM17.7505 38.8798C17.2585 38.8798 16.8385 38.4778 16.8385 37.8658C16.8385 37.2238 17.2525 36.8398 17.7505 36.8398C18.2365 36.8398 18.6685 37.2418 18.6685 37.8538C18.6685 38.4718 18.2365 38.8798 17.7505 38.8798ZM20.3 35.7898H21.08V35.0998H20.3V35.7898ZM20.33 39.4438H21.056V36.2758H20.33V39.4438ZM23.0068 39.4678H23.6608L24.9568 36.2758H24.1948L23.3368 38.6038L22.4848 36.2758H21.7048L23.0068 39.4678ZM25.5852 35.7898H26.3652V35.0998H25.5852V35.7898ZM25.6152 39.4438H26.3412V36.2758H25.6152V39.4438ZM28.598 39.5098C29.114 39.5098 29.444 39.2458 29.678 38.9158V39.4438H30.404V35.0638H29.678V36.7678C29.45 36.4738 29.12 36.2098 28.598 36.2098C27.842 36.2098 27.128 36.8038 27.128 37.8538C27.128 38.9158 27.854 39.5098 28.598 39.5098ZM28.772 38.8798C28.28 38.8798 27.86 38.4778 27.86 37.8658C27.86 37.2238 28.274 36.8398 28.772 36.8398C29.258 36.8398 29.69 37.2418 29.69 37.8538C29.69 38.4718 29.258 38.8798 28.772 38.8798ZM32.4015 39.5098C32.8935 39.5098 33.1875 39.2518 33.3915 38.9518V39.4438H34.1175V36.2758H33.3915V38.0638C33.3915 38.5558 33.0975 38.8498 32.6775 38.8498C32.2455 38.8498 31.9995 38.5678 31.9995 38.0758V36.2758H31.2735V38.2918C31.2735 39.0298 31.6875 39.5098 32.4015 39.5098ZM37.6882 39.4438V37.5658C37.6882 36.7198 37.2322 36.2278 36.2962 36.2278C35.7802 36.2278 35.4382 36.3358 35.0902 36.4918L35.2882 37.0738C35.5762 36.9538 35.8402 36.8758 36.1942 36.8758C36.6982 36.8758 36.9742 37.1158 36.9742 37.5538V37.6138C36.7282 37.5358 36.4822 37.4818 36.0982 37.4818C35.3602 37.4818 34.8142 37.8178 34.8142 38.5198C34.8142 39.1678 35.3422 39.5098 35.9422 39.5098C36.4222 39.5098 36.7522 39.3118 36.9682 39.0538V39.4438H37.6882ZM36.9862 38.2978C36.9862 38.6938 36.6262 38.9638 36.1462 38.9638C35.8042 38.9638 35.5342 38.7958 35.5342 38.4958C35.5342 38.1778 35.8042 37.9918 36.2602 37.9918C36.5422 37.9918 36.8002 38.0458 36.9862 38.1178V38.2978ZM38.5937 39.4438H39.3197V35.0638H38.5937V39.4438Z" fill="#622366"/>
</svg>