<svg width="50" height="50" viewBox="0 0 50 50" fill="none" xmlns="http://www.w3.org/2000/svg">
  <circle cx="25" cy="25" r="25" fill="#EAEDF5"/>
  <path d="M30.0015 19.1533C29.8988 17.3192 28.816 15.6903 27.1452 14.9016V14.5562C27.4906 14.5422 27.7753 14.2576 27.7753 13.9076V12.2087C27.7753 11.5413 27.2339 11 26.5665 11H23.4582C22.7909 11 22.2495 11.5413 22.2495 12.2087V13.9076C22.2495 14.2576 22.5295 14.5422 22.8749 14.5562V14.9016C21.2041 15.6857 20.1213 17.3145 20.0186 19.1533H20V19.4286V21.3048V36.3513C20 37.3361 20.8027 38.1388 21.7875 38.1388H28.228C29.2128 38.1388 30.0155 37.3361 30.0155 36.3513V21.3048V19.4286V19.1533H30.0015ZM23.4022 12.2087C23.4022 12.1807 23.4256 12.1574 23.4536 12.1574H26.5618C26.5898 12.1574 26.6132 12.1807 26.6132 12.2087V13.4035H23.3976V12.2087H23.4022ZM23.5283 15.877C23.8316 15.751 24.0323 15.457 24.0323 15.1303V14.5609H25.9925V15.1303C25.9925 15.457 26.1885 15.751 26.4918 15.8724C27.8499 16.4371 28.7414 17.7065 28.8487 19.1486H21.1807C21.2834 17.7065 22.1748 16.4371 23.5283 15.877ZM21.1574 33.3645H28.8674V34.5312H21.1574V33.3645ZM21.1574 31.2596H28.8674V32.4264H21.1574V31.2596ZM21.1574 29.1548H28.8674V30.3215H21.1574V29.1548ZM21.1574 26.8819H28.8674V28.212H21.1574V26.8819ZM28.2327 36.9861H21.7921C21.4421 36.9861 21.1574 36.7013 21.1574 36.3513V35.4693H28.8674V36.3513C28.8627 36.7013 28.5827 36.9861 28.2327 36.9861ZM28.8627 25.7291H21.1527V21.3094V20.3107H28.8627V21.3094V25.7291Z" fill="#622366"/>
  <path d="M25.1229 20.8937C25.0622 20.8284 24.9548 20.8284 24.8942 20.8937L24.6888 21.1131C24.4041 21.4164 23.4707 22.4665 23.4707 23.1899C23.4707 24.0393 24.1614 24.73 25.0109 24.73C25.8603 24.73 26.5509 24.0393 26.5509 23.1899C26.5509 22.4665 25.6175 21.4164 25.3329 21.1131L25.1229 20.8937ZM25.0109 23.918C24.6235 23.918 24.3108 23.6053 24.3108 23.2179C24.3108 23.0312 24.5768 22.6019 24.9035 22.1772C24.9595 22.1072 25.0622 22.1072 25.1182 22.1772C25.4449 22.5972 25.7109 23.0266 25.7109 23.2179C25.7062 23.6006 25.3935 23.918 25.0109 23.918Z" fill="#622366"/>
</svg>