<svg width="50" height="50" viewBox="0 0 50 50" fill="none" xmlns="http://www.w3.org/2000/svg">
  <circle cx="25" cy="25" r="25" fill="#EAEDF5"/>
  <path d="M29.5774 27.2433H13.1866C13.084 27.2433 13 27.1593 13 27.0566V26.4406C13 26.3379 13.084 26.2539 13.1866 26.2539H29.5774C31.4909 26.2539 32.9376 25.1619 32.9376 23.7104C32.9376 22.3103 31.7989 21.1669 30.3941 21.1669C29.6334 21.1669 28.8633 21.5495 28.3872 22.1469C28.3266 22.2262 28.2192 22.2449 28.1399 22.1889L27.6265 21.8436C27.5378 21.7829 27.5145 21.6615 27.5799 21.5775C28.9053 19.8414 31.8409 19.454 33.4137 21.9975C33.675 22.4222 33.8617 22.8984 33.9083 23.3884C34.1184 25.5586 32.1862 27.2433 29.5774 27.2433Z" fill="#622366"/>
  <path d="M20.6539 22.4603H13.1866C13.084 22.4603 13 22.3763 13 22.2736V21.6575C13 21.5549 13.084 21.4709 13.1866 21.4709H20.6539C22.5954 21.4709 23.8556 20.3508 23.3935 18.848C23.2115 18.2553 22.7588 17.7606 22.1754 17.5553C21.382 17.2753 20.5606 17.4899 20.0239 18.0452C19.9539 18.1153 19.8512 18.1293 19.7766 18.0639L19.2958 17.672C19.2118 17.6066 19.2025 17.4806 19.2725 17.4012C20.0285 16.5892 21.1813 16.2438 22.3154 16.5612C23.4682 16.8832 24.3269 17.9193 24.4576 19.1093C24.6723 21.0648 23.0481 22.4603 20.6539 22.4603Z" fill="#622366"/>
  <path d="M24.9523 37.3525C23.8789 37.3525 22.8988 36.8392 22.2921 35.9711C22.2314 35.8824 22.2594 35.761 22.3481 35.705L22.8754 35.3784C22.9594 35.327 23.0621 35.355 23.1181 35.4296C23.6548 36.167 24.5836 36.5264 25.5263 36.2931C26.5718 36.0364 27.2858 35.005 27.2065 33.9315C27.1131 32.6341 25.9557 31.836 24.1309 31.836H13.1866C13.084 31.836 13 31.7521 13 31.6494V31.0333C13 30.9306 13.084 30.8467 13.1866 30.8467H24.1309C27.1365 30.8467 28.2005 32.5968 28.2005 34.0996C28.2052 35.8917 26.7444 37.3525 24.9523 37.3525Z" fill="#622366"/>
  <path d="M36.3406 33.5485L36.2706 32.7504L35.2205 32.8345L34.2357 32.2884L35.2111 31.705L36.2565 31.7704L36.3032 30.9677L35.7245 30.935L35.9719 30.4122L35.2484 30.0669L34.7958 31.019L33.8344 31.593V30.4636L34.4224 29.6002L33.755 29.1475L33.433 29.6282L33.1063 29.1521L32.4435 29.6002L33.0316 30.4729V31.6163L32.0282 31.0563L31.5568 30.1182L30.8428 30.4823L31.1041 31.0003L30.5254 31.047L30.5907 31.845L31.6455 31.7611L32.6302 32.3071L31.6548 32.8904L30.6094 32.8252L30.5581 33.6279L31.1415 33.6605L30.8941 34.1832L31.6175 34.5286L32.0702 33.5765L33.0316 33.0024V34.1272L32.4435 34.9953L33.1063 35.448L33.433 34.9673L33.755 35.4433L34.4224 34.9953L33.8344 34.1226V32.9791L34.8331 33.5392L35.3044 34.4772L36.0232 34.1179L35.7619 33.5952L36.3406 33.5485Z" fill="#622366"/>
  <path d="M30.0619 17.723V16.6823L30.9767 17.191L31.4201 18.073L32.1388 17.7136L31.9055 17.2469L32.4188 17.205L32.3535 16.4069L31.3641 16.4909L30.4633 15.9869L31.3547 15.4594L32.3395 15.5155L32.3861 14.7174L31.8681 14.6847L32.0874 14.218L31.3641 13.8727L30.9394 14.7734L30.0619 15.2915V14.2694L30.6174 13.448L29.9499 13L29.6606 13.434L29.3712 13L28.7038 13.448L29.2592 14.2741V15.3148L28.3445 14.8061L27.9011 13.9241L27.1824 14.2834L27.4204 14.7501L26.9023 14.7921L26.9677 15.5901L27.9618 15.5061L28.8579 16.0102L27.9664 16.5375L26.9817 16.4816L26.935 17.2796L27.4531 17.3123L27.2337 17.7791L27.9571 18.1244L28.3818 17.2236L29.2592 16.7009V17.7277L28.7038 18.5444L29.3712 18.9971L29.6606 18.5678L29.9499 18.9971L30.6174 18.5491L30.0619 17.723Z" fill="#622366"/>
</svg>