<svg width="38" height="41" viewBox="0 0 38 41" fill="none" xmlns="http://www.w3.org/2000/svg">
  <path d="M7.07529 37.5763C4.54426 37.7317 2.40625 35.7209 2.40625 33.1851L2.40625 8.08243C2.40625 5.54663 4.54426 3.53582 7.07529 3.69117L30.3481 5.11955C32.6688 5.26198 34.4781 7.18568 34.4781 9.51081L34.4781 31.7567C34.4781 34.0818 32.6688 36.0055 30.3481 36.148L7.07529 37.5763Z" fill="#848CA2" stroke="#B5BAC7"/>
  <path d="M10.0249 40.2827C8.39732 40.3114 7.0625 38.9998 7.0625 37.372C7.0625 35.7442 8.39732 34.4326 10.0249 34.4613L26.017 34.7428C27.451 34.7681 28.6003 35.9378 28.6003 37.372C28.6003 38.8062 27.451 39.9759 26.017 40.0012L10.0249 40.2827Z" fill="#848CA2" stroke="#B5BAC7"/>
  <path d="M10.0249 6.80616C8.39732 6.83481 7.0625 5.52328 7.0625 3.89544C7.0625 2.2676 8.39732 0.956067 10.0249 0.984721L26.017 1.26626C27.451 1.2915 28.6003 2.4612 28.6003 3.89544C28.6003 5.32967 27.451 6.49937 26.017 6.52462L10.0249 6.80616Z" fill="#848CA2" stroke="#B5BAC7"/>
  <rect x="33.0273" y="28.0977" width="14.9235" height="3.89953" rx="1.94977" transform="rotate(-90 33.0273 28.0977)" fill="#848CA2" stroke="#B5BAC7"/>
  <line opacity="0.35" x1="0.918661" y1="-0.918661" x2="47.5842" y2="-0.918661" transform="matrix(-0.707107 0.707107 -0.707107 -0.707106 36.2031 4.09766)" stroke="#E11F2A" stroke-width="1.83732" stroke-linecap="round"/>
  <line opacity="0.35" x1="0.918661" y1="-0.918661" x2="47.5842" y2="-0.918661" transform="matrix(0.707107 0.707106 0.707107 -0.707107 1.90625 4.09766)" stroke="#E11F2A" stroke-width="1.83732" stroke-linecap="round"/>
</svg>