<svg width="16" height="16" viewBox="0 0 16 16" fill="none" xmlns="http://www.w3.org/2000/svg">
<path d="M5.74363 6.70598C5.74363 7.07461 5.4448 7.37349 5.07617 7.37349C4.70753 7.37349 4.4087 7.07461 4.4087 6.70598C4.4087 6.33736 4.70753 6.03848 5.07617 6.03848C5.4448 6.03848 5.74363 6.33736 5.74363 6.70598Z" fill="#FAFAFA"/>
<path d="M11.6669 6.70598C11.6669 7.07461 11.368 7.37349 10.9994 7.37349C10.6308 7.37349 10.3319 7.07461 10.3319 6.70598C10.3319 6.33736 10.6308 6.03848 10.9994 6.03848C11.368 6.03848 11.6669 6.33736 11.6669 6.70598Z" fill="#FAFAFA"/>
<path d="M8.03987 7.37349C8.40849 7.37349 8.70732 7.07461 8.70732 6.70598C8.70732 6.33736 8.40849 6.03848 8.03987 6.03848C7.67122 6.03848 7.37239 6.33736 7.37239 6.70598C7.37239 7.07461 7.67122 7.37349 8.03987 7.37349Z" fill="#FAFAFA"/>
<path fill-rule="evenodd" clip-rule="evenodd" d="M2.83028 13.3847C2.88906 13.4183 2.95204 13.4351 3.01919 13.4351C3.11156 13.4351 3.2039 13.3974 3.27526 13.3344L6.05847 10.7191H13.2201C14.2024 10.7191 15 9.92151 15 8.93919V4.34241C15 3.36009 14.2024 2.5625 13.2201 2.5625H2.77991C1.79761 2.5625 1 3.36429 1 4.34241V8.93919C1 9.92151 1.79761 10.7191 2.77991 10.7191H3.1997L2.65398 12.9691C2.61201 13.1328 2.68757 13.3007 2.83028 13.3847ZM1.75142 4.33821C1.75142 3.77567 2.2132 3.31814 2.77571 3.31814V3.32235H13.2201C13.7868 3.32235 14.2444 3.77988 14.2444 4.34241V8.93919C14.2444 9.5059 13.7826 9.96346 13.2201 9.96346H5.91155C5.81501 9.96346 5.72264 9.99705 5.65129 10.0642L3.68247 11.9112L4.04348 10.4252C4.06867 10.3118 4.04348 10.1944 3.97212 10.102C3.90074 10.0139 3.79162 9.95926 3.67406 9.95926H2.77571C2.209 9.95926 1.75142 9.49752 1.75142 8.93499V4.33821Z" fill="#FAFAFA"/>
</svg>
