<svg width="16" height="16" viewBox="0 0 16 16" fill="none" xmlns="http://www.w3.org/2000/svg">
<path fill-rule="evenodd" clip-rule="evenodd" d="M14.1816 2.35156H6.26853C5.81613 2.35156 5.45008 2.71761 5.45008 3.17001V6.18874H6.06289V5.3457H14.3872V8.34796C14.3872 8.46313 14.2926 8.5536 14.1816 8.5536H11.1216V9.16641H14.1816C14.634 9.16641 15 8.80036 15 8.34796V3.17001C15 2.71761 14.634 2.35156 14.1816 2.35156ZM14.3872 4.67947H6.06289V4.30514H14.3872V4.67947ZM14.3872 3.63882H6.06289V3.17001C6.06289 3.05484 6.15747 2.96437 6.26853 2.96437H14.1816C14.2967 2.96437 14.3872 3.05895 14.3872 3.17001V3.63882Z" fill="#FAFBFD"/>
<path d="M5.8161 9.38831H1.97885V9.88183H5.8161V9.38831Z" fill="#FAFBFD"/>
<path d="M1.97885 8.40148H5.8161V8.895H1.97885V8.40148Z" fill="#FAFBFD"/>
<path d="M7.26377 9.52437L7.24732 9.51202L6.98822 9.85341L7.00468 9.86566C7.13218 9.96437 7.20621 10.1084 7.20621 10.2688C7.20621 10.4251 7.13215 10.569 7.00877 10.6677L6.99233 10.6801L7.24321 11.0008L7.25556 11.0173L7.272 11.0049C7.50232 10.824 7.63393 10.5567 7.63393 10.2688C7.63393 9.97679 7.50232 9.70533 7.26377 9.52437Z" fill="#FAFBFD"/>
<path d="M7.75736 8.8951L7.7738 8.90745C8.19331 9.24058 8.43186 9.73415 8.43186 10.2729C8.43186 10.8035 8.19743 11.2969 7.78203 11.6301L7.76557 11.6424L7.49413 11.3093L7.51058 11.297C7.82315 11.0461 8.00412 10.6719 8.00412 10.2729C8.00412 9.86988 7.82315 9.4956 7.50648 9.24473L7.49002 9.23238L7.75736 8.8951Z" fill="#FAFBFD"/>
<path d="M8.27967 8.28651L8.26323 8.27416L8.00412 8.59085L7.99177 8.60732L8.00823 8.61967C8.50998 9.02684 8.79788 9.62731 8.79788 10.2689C8.79788 10.9105 8.50998 11.511 8.01233 11.914L7.99588 11.9263L8.25499 12.243L8.26732 12.2594L8.28378 12.2471C8.88424 11.7618 9.22561 11.038 9.22561 10.2689C9.22561 9.4957 8.88012 8.77182 8.27967 8.28651Z" fill="#FAFBFD"/>
<path fill-rule="evenodd" clip-rule="evenodd" d="M1.81844 6.83468H9.73147C10.1839 6.83468 10.5499 7.20072 10.5499 7.65312V12.8312C10.5499 13.2836 10.1839 13.6496 9.73147 13.6496H1.81844C1.36605 13.6496 1 13.2836 1 12.8312V7.65312C1 7.20072 1.36605 6.83468 1.81844 6.83468ZM1.6128 11.3339H2.71915C2.95767 11.3339 3.15099 11.5272 3.15511 11.7657V13.0368H9.73147C9.84253 13.0368 9.93711 12.9463 9.93711 12.8312V7.65312C9.93711 7.54207 9.84664 7.44748 9.73147 7.44748H1.81844C1.70742 7.44748 1.6128 7.53795 1.6128 7.65312V11.3339ZM1.6128 11.9467V12.8312C1.6128 12.9422 1.7033 13.0368 1.81844 13.0368H2.5423V11.9467H1.6128Z" fill="#FAFBFD"/>
</svg>
