<svg width="16" height="16" viewBox="0 0 16 16" fill="none" xmlns="http://www.w3.org/2000/svg">
<path d="M5.58471 9.76577H3.75626V10.4771H5.58471V9.76577Z" fill="#FAFBFD"/>
<path d="M10.4132 9.76577H12.2416V10.4771H10.4132V9.76577Z" fill="#FAFBFD"/>
<path fill-rule="evenodd" clip-rule="evenodd" d="M14.8106 5.48535H14.0994V7.09623L13.727 7.32217L13.0701 2.41423C12.9989 1.61088 12.296 1 11.4424 1H4.55542C3.70187 1 2.99894 1.60669 2.92781 2.39749L2.2709 7.32217L1.9027 7.09623V5.48535H1.19141V7.4979L2.1663 8.09204L2.12865 8.38075L2.12446 12.272C2.12446 12.7113 2.40898 13.0879 2.81902 13.2552V14.2343C2.81902 14.6569 3.18304 15 3.63074 15H4.45919C4.90688 15 5.2709 14.6569 5.2709 14.2343V13.3473H10.7312V14.2343C10.7312 14.6569 11.0952 15 11.5429 15H12.3713C12.819 15 13.183 14.6569 13.183 14.2343V13.2552C13.5889 13.0879 13.8776 12.7113 13.8776 12.272V8.42677L13.8316 8.09623L14.8106 7.4979V5.48535ZM12.7102 12.6402H3.28764C3.03659 12.6402 2.83576 12.477 2.83576 12.272V8.78242H13.1663V12.272C13.1663 12.4728 12.9613 12.6402 12.7102 12.6402ZM3.63492 2.48117C3.67257 2.05021 4.07844 1.71548 4.55542 1.71548H11.4424C11.9194 1.71548 12.3253 2.05021 12.3629 2.49791L12.5805 4.12552H3.41316L3.63492 2.48117ZM3.32111 4.83682H12.6809L13.1161 8.07113H2.89015L3.32111 4.83682ZM4.55961 14.2385C4.55961 14.2552 4.52613 14.2929 4.45919 14.2929H3.63074C3.56379 14.2929 3.53032 14.2552 3.53032 14.2385V13.3515H4.55961V14.2385ZM12.3713 14.2887H11.5429C11.4759 14.2887 11.4424 14.251 11.4424 14.2343V13.3473H12.4717V14.2343C12.4717 14.251 12.4341 14.2887 12.3713 14.2887Z" fill="#FAFBFD"/>
</svg>
