<svg width="16" height="16" viewBox="0 0 16 16" fill="none" xmlns="http://www.w3.org/2000/svg">
<path d="M13.1599 5.00448L13.8156 4.34875L13.8812 4.45541C14.5205 5.5291 14.8565 6.75036 14.8565 7.99618C14.8565 9.84851 14.1353 11.5902 12.828 12.8974C11.5207 14.2047 9.77903 14.9259 7.92671 14.9259C6.07033 14.9259 4.33271 14.2087 3.02545 12.9014C0.324849 10.1967 0.324849 5.79953 3.02545 3.09893C4.33271 1.79167 6.07443 1.07031 7.92671 1.07031C9.6192 1.07031 11.2462 1.68912 12.5125 2.81198L12.5944 2.88582L11.9592 3.52094L11.8854 3.45951C10.7912 2.50468 9.38564 1.97597 7.93081 1.97597C6.3203 1.97597 4.80399 2.60308 3.66882 3.73825C1.32065 6.09053 1.32065 9.91404 3.66882 12.2663C6.01705 14.6186 9.84462 14.6145 12.1928 12.2663C13.328 11.1312 13.955 9.61494 13.955 8.00439C13.955 6.97987 13.6927 5.96752 13.1968 5.07412L13.1599 5.00448Z" fill="#FAFBFD"/>
<path d="M4.56632 7.85671L5.26302 7.16417L7.11125 9.02069L14.3033 1.82029L15 2.51704L7.11125 10.414L4.56632 7.85671Z" fill="#FAFBFD"/>
</svg>
