<svg width="16" height="16" viewBox="0 0 16 16" fill="none" xmlns="http://www.w3.org/2000/svg">
<path fill-rule="evenodd" clip-rule="evenodd" d="M6.98854 12.8524H5.17498L2.5206 2.36264C2.4794 2.20602 2.5 2.04114 2.58244 1.89689C2.66488 1.75259 2.80088 1.6496 2.96163 1.60839L5.63661 1.01896C5.95399 0.936498 6.29197 1.13021 6.38264 1.45996L7.23996 4.64196C7.28119 4.80271 7.26056 4.96754 7.17812 5.11184C7.09571 5.25609 6.95969 5.35908 6.79893 5.40034L6.76595 5.41271L7.7593 9.34071H12.5487C13.0763 9.34071 13.5008 9.76521 13.5008 10.2887V12.8524H10.7146V15H10.0139V12.8524H7.68924V15H6.98854V12.8524ZM5.72317 12.1517H12.796V10.2804C12.796 10.1444 12.6806 10.0331 12.5446 10.0331H7.2111L5.92926 4.95934L6.53926 4.74087L5.72317 1.71143L3.2213 2.26373L5.72317 12.1517Z" fill="#FAFBFD"/>
</svg>
