<svg width="20" height="21" viewBox="0 0 20 21" fill="none" xmlns="http://www.w3.org/2000/svg">
<path d="M18.2491 11.055C18.136 6.43718 17.2635 2.52704 16.8224 0.930676C16.7044 0.505732 16.3247 0.206817 15.8836 0.192275C15.8836 0.192275 13.5408 0 9.78411 0C6.45404 0.00161576 4.11765 0.195507 4.11765 0.195507C3.67655 0.210048 3.29685 0.508964 3.1789 0.933908C2.7378 2.53028 1.86529 6.44041 1.75218 11.0582C1.61161 16.8006 2.25792 18.4374 2.25792 18.4374H9.78735L17.745 18.4358C17.745 18.4358 18.3913 16.799 18.2507 11.0566L18.2491 11.055Z" fill="url(#paint0_linear_5200_424249)"/>
<path d="M17.6433 19.5114H15.2455C15.2197 19.5114 15.1971 19.5001 15.1954 19.4839L15.0032 18.3594H17.695V19.4807C17.695 19.4985 17.6724 19.5114 17.6433 19.5114Z" fill="#191C20"/>
<path d="M4.68655 19.5114H2.28876C2.2613 19.5114 2.23706 19.4969 2.23706 19.4807V18.3594H4.92891L4.73664 19.4839C4.73341 19.5001 4.7124 19.5114 4.68655 19.5114Z" fill="#191C20"/>
<path d="M15.3667 18.0234H17.3315V20.7153C17.3315 20.8736 17.2038 21.0013 17.0455 21.0013H15.6527C15.4943 21.0013 15.3667 20.8736 15.3667 20.7153V18.0234Z" fill="url(#paint1_linear_5200_424249)"/>
<path d="M2.6377 18.0234H4.60246V20.7153C4.60246 20.8736 4.47481 21.0013 4.31647 21.0013H2.92368C2.76534 21.0013 2.6377 20.8736 2.6377 20.7153V18.0234Z" fill="url(#paint2_linear_5200_424249)"/>
<g style="mix-blend-mode:soft-light">
<path d="M2.71208 9.21689C2.92051 9.12156 5.96945 12.3935 5.96945 12.6439C5.96945 12.896 3.20327 12.2577 3.01584 12.0639C2.82841 11.8716 2.5198 9.30252 2.71046 9.21527L2.71208 9.21689Z" fill="#808080"/>
<path d="M2.75406 9.26779C2.95119 9.17084 5.92095 12.3652 5.91125 12.6043C5.90156 12.8418 3.31473 12.2456 3.12892 12.0534C2.94311 11.8611 2.56664 9.35989 2.75406 9.26779Z" fill="#898888"/>
<path d="M2.79768 9.33034C2.9851 9.23339 5.87408 12.3502 5.85469 12.5748C5.83692 12.7994 3.42782 12.2452 3.24362 12.0513C3.05943 11.8574 2.61509 9.42405 2.79768 9.32872V9.33034Z" fill="#919190"/>
<path d="M2.83972 9.38118C3.01584 9.28423 5.82403 12.3219 5.79656 12.5351C5.76909 12.7468 3.53935 12.233 3.35515 12.0407C3.17095 11.8484 2.66037 9.48135 2.83972 9.38279V9.38118Z" fill="#9A9998"/>
<path d="M2.88348 9.43983C3.04991 9.34288 5.77731 12.303 5.74014 12.5017C5.70298 12.7004 3.65258 12.2286 3.47 12.0347C3.28742 11.8425 2.70898 9.54162 2.88348 9.43983Z" fill="#A3A2A0"/>
<path d="M2.92527 9.49458C3.08038 9.39763 5.72861 12.2785 5.68175 12.4643C5.63489 12.6502 3.76384 12.2187 3.58126 12.0265C3.39868 11.8342 2.754 9.60122 2.92527 9.49458Z" fill="#ACAAA8"/>
<path d="M2.96908 9.54933C3.1145 9.45239 5.68194 12.2557 5.62539 12.4286C5.56884 12.6015 3.87714 12.2121 3.69617 12.0182C3.51521 11.8243 2.80266 9.66082 2.96908 9.54933Z" fill="#B4B3B0"/>
<path d="M3.01089 9.60401C3.145 9.50868 5.63327 12.2312 5.56702 12.3912C5.50077 12.5511 3.98843 12.2021 3.80908 12.0099C3.62973 11.8176 2.84932 9.72034 3.01089 9.60401Z" fill="#BDBBB8"/>
<path d="M3.05466 9.66267C3.17907 9.56734 5.58655 12.2123 5.51061 12.3594C5.43467 12.5064 4.10167 12.1994 3.92232 12.0055C3.74297 11.8132 2.89631 9.78385 3.05466 9.66267Z" fill="#C6C4C0"/>
<path d="M3.09827 9.71344C3.21299 9.61973 5.53806 12.1839 5.45404 12.318C5.37002 12.4522 4.21476 12.1856 4.03702 11.9933C3.85929 11.801 2.94639 9.83947 3.09827 9.71506V9.71344Z" fill="#CFCCC8"/>
<path d="M3.14027 9.77602C3.24529 9.68231 5.48958 12.169 5.39587 12.2885C5.30215 12.4097 4.32624 12.1835 4.15012 11.9912C3.97239 11.7989 2.99324 9.9069 3.14189 9.77602H3.14027Z" fill="#D7D5D0"/>
<path d="M3.1839 9.8268C3.27923 9.7347 5.44273 12.1406 5.33932 12.2488C5.23591 12.3571 4.43935 12.1729 4.26323 11.979C4.08711 11.7851 3.04172 9.96252 3.1839 9.8268Z" fill="#E0DDD8"/>
</g>
<path d="M0.558225 8.57577H1.17221C1.34995 8.57577 1.49536 8.48206 1.49536 8.36734V6.88407C1.49536 6.75804 1.33864 6.65625 1.14475 6.65625H0.548531C0.477438 6.65625 0.412807 6.68533 0.390187 6.72896C0.323941 6.85822 0.202759 7.15067 0.202759 7.57077C0.202759 7.99087 0.330404 8.34149 0.395034 8.49498C0.414423 8.54184 0.480669 8.57415 0.55661 8.57415L0.558225 8.57577Z" fill="#282B2D"/>
<path d="M0.561592 8.56487H1.15458C1.33392 8.56487 1.47773 8.47115 1.47773 8.35482V6.89418C1.47773 6.76976 1.321 6.66797 1.12872 6.66797H0.553514C0.48242 6.66797 0.419406 6.69705 0.398401 6.74068C0.333771 6.86832 0.21582 7.16077 0.21582 7.57441C0.21582 7.98804 0.340234 8.33381 0.403248 8.4857C0.422637 8.53255 0.487268 8.56487 0.561592 8.56487Z" fill="#26292B"/>
<path d="M0.563157 8.55397H1.13514C1.31448 8.55397 1.4599 8.46025 1.4599 8.34392V6.90589C1.4599 6.78148 1.30317 6.67969 1.1109 6.67969H0.556694C0.487217 6.67969 0.424202 6.70877 0.403197 6.7524C0.340183 6.88004 0.225464 7.16926 0.225464 7.57643C0.225464 7.9836 0.346646 8.32614 0.408044 8.47479C0.427434 8.52004 0.490448 8.55235 0.564773 8.55235L0.563157 8.55397Z" fill="#24282A"/>
<path d="M0.566367 8.54145H1.11572C1.29507 8.54145 1.44049 8.44773 1.44049 8.3314V6.916C1.44049 6.79158 1.28538 6.69141 1.0931 6.69141H0.558288C0.48881 6.69141 0.427411 6.72049 0.406407 6.76412C0.345008 6.89014 0.233521 7.17937 0.233521 7.58007C0.233521 7.98078 0.351471 8.31847 0.411254 8.46551C0.429027 8.51075 0.493657 8.54306 0.564751 8.54306L0.566367 8.54145Z" fill="#232628"/>
<path d="M0.569396 8.53216H1.09775C1.2771 8.53216 1.42252 8.43845 1.42252 8.3205V6.92772C1.42252 6.8033 1.2674 6.70312 1.07674 6.70312H0.562933C0.493456 6.70312 0.433673 6.73221 0.412668 6.77422C0.3545 6.90025 0.244629 7.18624 0.244629 7.5821C0.244629 7.97796 0.359348 8.30919 0.415899 8.45461C0.433673 8.49985 0.496687 8.53055 0.56778 8.53055L0.569396 8.53216Z" fill="#212426"/>
<path d="M0.572699 8.52126H1.07843C1.2594 8.52126 1.40481 8.42593 1.40481 8.3096V6.93943C1.40481 6.81502 1.2497 6.71484 1.05904 6.71484H0.566236C0.498374 6.71484 0.436975 6.74393 0.417586 6.78594C0.361035 6.91197 0.254395 7.19634 0.254395 7.58412C0.254395 7.9719 0.364266 8.30152 0.420818 8.4437C0.438591 8.48894 0.49999 8.51964 0.571083 8.51964L0.572699 8.52126Z" fill="#1F2224"/>
<path d="M0.575973 8.50874H1.0607C1.24166 8.50874 1.38708 8.41341 1.38708 8.29708V6.94954C1.38708 6.82674 1.23359 6.72656 1.04293 6.72656H0.569509C0.501648 6.72656 0.441865 6.75565 0.424091 6.79766C0.369156 6.92207 0.265747 7.20483 0.265747 7.58776C0.265747 7.9707 0.372387 8.29385 0.427323 8.43442C0.44348 8.47804 0.504879 8.50874 0.574357 8.50874H0.575973Z" fill="#1D2123"/>
<path d="M0.579339 8.49784H1.04306C1.22403 8.49784 1.37106 8.40251 1.37106 8.28618V6.96126C1.37106 6.83846 1.21756 6.73828 1.0269 6.73828H0.574492C0.508246 6.73828 0.448463 6.76736 0.43069 6.80937C0.37737 6.93379 0.278809 7.21493 0.278809 7.5914C0.278809 7.96787 0.382217 8.28618 0.435537 8.42513C0.451695 8.46876 0.511478 8.49946 0.580955 8.49946L0.579339 8.49784Z" fill="#1B1F21"/>
<path d="M0.580933 8.47913H1.02203C1.203 8.47913 1.35003 8.3838 1.35003 8.26585V6.96355C1.35003 6.84075 1.19654 6.74219 1.00749 6.74219H0.576086C0.50984 6.74219 0.451673 6.77127 0.433899 6.81167C0.382195 6.93446 0.286865 7.21399 0.286865 7.584C0.286865 7.95401 0.387042 8.26908 0.437131 8.4048C0.453288 8.44843 0.513071 8.47751 0.580933 8.47751V8.47913Z" fill="#1A1D1F"/>
<path d="M0.584085 8.47213H1.00418C1.18676 8.47213 1.3338 8.3768 1.3338 8.25885V6.97917C1.3338 6.85637 1.1803 6.75781 0.992871 6.75781H0.580853C0.514607 6.75781 0.458056 6.7869 0.440282 6.82729C0.390194 6.95009 0.298096 7.228 0.298096 7.59154C0.298096 7.95509 0.393425 8.26531 0.443514 8.39942C0.459671 8.44143 0.517839 8.47213 0.584085 8.47213Z" fill="#181B1D"/>
<path d="M0.587387 8.45732H0.984864C1.16744 8.45732 1.31448 8.36199 1.31448 8.24404V6.98698C1.31448 6.8658 1.1626 6.76562 0.973553 6.76562H0.58254C0.51791 6.76562 0.461358 6.79309 0.445201 6.8351C0.396728 6.9579 0.307861 7.23258 0.307861 7.58966C0.307861 7.94674 0.39996 8.25212 0.448432 8.38461C0.462974 8.42662 0.521141 8.45571 0.587387 8.45571V8.45732Z" fill="#161A1C"/>
<path d="M0.59051 8.45033H0.966982C1.14956 8.45033 1.29821 8.355 1.29821 8.23543V7.00099C1.29821 6.87981 1.14633 6.78125 0.958903 6.78125H0.588894C0.524264 6.78125 0.469328 6.80872 0.453171 6.84911C0.406314 6.97029 0.320679 7.24497 0.320679 7.59559C0.320679 7.94621 0.409545 8.24674 0.456402 8.37762C0.470944 8.41963 0.527496 8.44871 0.593742 8.44871L0.59051 8.45033Z" fill="#14181A"/>
<path d="M0.593691 8.43552H0.949157C1.13174 8.43552 1.28039 8.33857 1.28039 8.22062V7.00881C1.28039 6.88762 1.12851 6.78906 0.942694 6.78906H0.592075C0.52906 6.78906 0.472509 6.81653 0.457967 6.85692C0.412726 6.97811 0.330322 7.24955 0.330322 7.59533C0.330322 7.9411 0.415957 8.23678 0.459583 8.36443C0.474125 8.40482 0.52906 8.4339 0.593691 8.4339V8.43552Z" fill="#1D1F24"/>
<path d="M0.595284 8.42691H0.92813C1.11233 8.42691 1.26098 8.32996 1.26098 8.21201V7.02281C1.26098 6.90163 1.11071 6.80469 0.923283 6.80469H0.593669C0.530654 6.80469 0.475718 6.83216 0.461176 6.87255C0.417551 6.99212 0.338379 7.26356 0.338379 7.60126C0.338379 7.93895 0.420783 8.2314 0.462792 8.35743C0.475718 8.39782 0.530654 8.42691 0.595284 8.42691Z" fill="#101416"/>
<path d="M0.59868 8.4121H0.910521C1.09472 8.4121 1.24337 8.31515 1.24337 8.1972V7.03063C1.24337 6.91106 1.0931 6.8125 0.90729 6.8125H0.597064C0.53405 6.8125 0.48073 6.83997 0.467804 6.88036C0.42741 6.99993 0.349854 7.26976 0.349854 7.60099C0.349854 7.93222 0.42741 8.21982 0.46942 8.34424C0.482346 8.38463 0.537281 8.4121 0.600296 8.4121H0.59868Z" fill="#0F1215"/>
<path d="M0.60189 8.40739H0.89111C1.07531 8.40739 1.22396 8.31045 1.22396 8.19088V7.04854C1.22396 6.92898 1.07369 6.83203 0.887879 6.83203H0.598658C0.537259 6.83203 0.483939 6.8595 0.471013 6.89828C0.432235 7.01784 0.35791 7.28444 0.35791 7.61083C0.35791 7.93721 0.432235 8.21997 0.471013 8.34115C0.483939 8.37993 0.537259 8.40901 0.598658 8.40901L0.60189 8.40739Z" fill="#0D1113"/>
<path d="M0.605134 8.38868H0.87335C1.05755 8.38868 1.20781 8.29173 1.20781 8.17217V7.05245C1.20781 6.93288 1.05755 6.83594 0.87335 6.83594H0.605134C0.543736 6.83594 0.492031 6.86341 0.479105 6.90218C0.441943 7.02013 0.37085 7.28673 0.37085 7.60504C0.37085 7.92334 0.441943 8.20287 0.479105 8.32243C0.492031 8.36121 0.543736 8.38868 0.605134 8.38868Z" fill="#0B0F11"/>
<g style="mix-blend-mode:soft-light" opacity="0.06">
<path d="M0.865186 7.43186C0.844181 7.36562 1.11886 8.40778 1.37415 8.369C1.51634 8.34638 1.41131 6.8098 1.30306 6.7484C1.1948 6.687 0.763393 6.65145 0.671295 6.72416C0.579197 6.79525 0.892654 7.52073 0.865186 7.43348V7.43186Z" fill="#FAFAFA"/>
</g>
<g style="mix-blend-mode:soft-light" opacity="0.12">
<path d="M0.876586 7.39102C0.857197 7.33123 1.11733 8.30715 1.35808 8.26837C1.49381 8.24737 1.40009 6.81096 1.2983 6.75118C1.19812 6.69139 0.790951 6.65746 0.702085 6.72371C0.611602 6.78996 0.902439 7.47019 0.876586 7.3894V7.39102Z" fill="#FAFAFA"/>
</g>
<g style="mix-blend-mode:soft-light" opacity="0.19">
<path d="M0.88781 7.35282C0.870037 7.2995 1.11402 8.20756 1.34184 8.17201C1.4711 8.15262 1.38708 6.81639 1.29337 6.75823C1.19965 6.70006 0.819949 6.66613 0.732698 6.72914C0.645447 6.79054 0.912047 7.42392 0.88781 7.35282Z" fill="#FAFAFA"/>
</g>
<g style="mix-blend-mode:soft-light" opacity="0.25">
<path d="M0.898977 7.31664C0.882819 7.26978 1.11064 8.10998 1.32554 8.07766C1.44833 8.05989 1.37401 6.82383 1.28837 6.7689C1.20112 6.71234 0.848888 6.68003 0.763253 6.73658C0.679234 6.79475 0.921597 7.37965 0.900592 7.31664H0.898977Z" fill="#FAFAFA"/>
</g>
<g style="mix-blend-mode:soft-light" opacity="0.31">
<path d="M0.910443 7.28241C0.895901 7.24202 1.10757 8.01435 1.30792 7.98527C1.42587 7.96911 1.35962 6.83485 1.28045 6.77991C1.20128 6.72498 0.87328 6.69266 0.792492 6.74598C0.710089 6.7993 0.929832 7.33735 0.910443 7.28241Z" fill="#FAFAFA"/>
</g>
<g style="mix-blend-mode:soft-light" opacity="0.38">
<path d="M0.921606 7.24439C0.90868 7.21046 1.10419 7.91493 1.29161 7.88908C1.4031 7.87292 1.34817 6.84045 1.27546 6.78713C1.20275 6.73543 0.902217 6.70149 0.823044 6.74997C0.743872 6.79844 0.940995 7.28963 0.921606 7.24277V7.24439Z" fill="#FAFAFA"/>
</g>
<g style="mix-blend-mode:soft-light" opacity="0.44">
<path d="M0.933031 7.20403C0.921721 7.17656 1.10269 7.81317 1.27557 7.79055C1.3806 7.776 1.33536 6.84371 1.27072 6.79362C1.20609 6.74353 0.9298 6.71122 0.853859 6.75485C0.777919 6.79847 0.950805 7.24442 0.933031 7.20564V7.20403Z" fill="#FAFAFA"/>
</g>
<g style="mix-blend-mode:soft-light" opacity="0.5">
<path d="M0.944325 7.16656C0.93463 7.14717 1.09944 7.7143 1.2594 7.69491C1.35957 7.68199 1.32241 6.84987 1.26586 6.8014C1.20769 6.75293 0.958867 6.72061 0.884542 6.75939C0.810217 6.79817 0.960482 7.19726 0.944325 7.16656Z" fill="#FAFAFA"/>
</g>
<g style="mix-blend-mode:soft-light" opacity="0.56">
<path d="M0.955603 7.13243C0.947524 7.1195 1.09617 7.62039 1.24321 7.60261C1.33692 7.5913 1.31107 6.85936 1.25937 6.81251C1.20928 6.76565 0.984686 6.73495 0.915209 6.76727C0.844115 6.8012 0.970145 7.15343 0.955603 7.13081V7.13243Z" fill="#FAFAFA"/>
</g>
<g style="mix-blend-mode:soft-light" opacity="0.62">
<path d="M0.966903 7.08911C0.966903 7.08911 1.09293 7.51567 1.22704 7.50112C1.31429 7.49143 1.29813 6.86128 1.25451 6.81604C1.21088 6.7708 1.01376 6.7401 0.945898 6.76919C0.878036 6.79827 0.979829 7.10365 0.966903 7.09072V7.08911Z" fill="#FAFAFA"/>
</g>
<g style="mix-blend-mode:soft-light" opacity="0.69">
<path d="M0.978242 7.05921C0.978242 7.05921 1.09134 7.42438 1.20929 7.41307C1.29008 7.40499 1.28362 6.87502 1.24807 6.83139C1.21253 6.78777 1.03964 6.75868 0.97501 6.7813C0.91038 6.80554 0.98632 7.06568 0.978242 7.05921Z" fill="#FAFAFA"/>
</g>
<g style="mix-blend-mode:soft-light" opacity="0.75">
<path d="M0.989556 7.01777C0.989556 7.01777 1.08812 7.32153 1.19314 7.31345C1.26908 7.30699 1.27231 6.8772 1.24323 6.83519C1.21415 6.79318 1.06873 6.76409 1.00571 6.78348C0.942699 6.80287 0.996019 7.01615 0.989556 7.01777Z" fill="#FAFAFA"/>
</g>
<g style="mix-blend-mode:soft-light" opacity="0.81">
<path d="M1.00095 6.97571C0.994486 6.98864 1.08497 7.21969 1.17707 7.21323C1.24654 7.20838 1.25947 6.87876 1.23685 6.83999C1.21584 6.79959 1.09628 6.77051 1.0365 6.78505C0.976713 6.79959 1.0058 6.96602 1.00095 6.97571Z" fill="#FAFAFA"/>
</g>
<g style="mix-blend-mode:soft-light" opacity="0.88">
<path d="M1.01219 6.94741C1.00896 6.96841 1.08167 7.12999 1.16084 7.12514C1.22385 7.12191 1.24647 6.89247 1.23193 6.85531C1.21739 6.81815 1.12368 6.78906 1.06712 6.79876C1.01057 6.80845 1.01542 6.92963 1.01219 6.94741Z" fill="#FAFAFA"/>
</g>
<g style="mix-blend-mode:soft-light" opacity="0.94">
<path d="M1.02347 6.90795C1.02185 6.93542 1.08002 7.03075 1.14465 7.02752C1.20282 7.0259 1.23352 6.89826 1.22706 6.86109C1.22059 6.82555 1.15273 6.79646 1.0978 6.80131C1.04286 6.80616 1.02509 6.88048 1.02347 6.90634V6.90795Z" fill="#FAFAFA"/>
</g>
<g style="mix-blend-mode:soft-light">
<path d="M1.03479 6.86609C1.03479 6.90002 1.0768 6.92749 1.1285 6.92749C1.18021 6.92749 1.22222 6.90002 1.22222 6.86609C1.22222 6.83216 1.18021 6.80469 1.1285 6.80469C1.0768 6.80469 1.03479 6.83216 1.03479 6.86609Z" fill="#FAFAFA"/>
</g>
<path d="M1.00747 8.62419L1.85574 8.95703L1.94623 7.8971C1.94623 7.8971 1.04302 7.47377 0.850742 7.51901C0.815195 7.52709 0.774801 7.5594 0.734407 7.60626C0.445187 7.93911 0.598684 8.46261 1.00909 8.62257L1.00747 8.62419Z" fill="url(#paint3_linear_5200_424249)"/>
<path d="M6.12601 14.2483H3.09162C2.434 14.2483 2.01875 13.7523 1.78447 12.9751C1.72307 12.7699 1.67944 11.9636 1.67944 11.9636C1.67944 11.8295 1.77154 11.7277 1.87657 11.7439C2.62305 11.8634 5.10485 12.3126 5.86102 13.0963C6.09692 13.3402 6.2068 13.7894 6.25365 14.0496C6.27143 14.1514 6.21003 14.2483 6.12762 14.2483H6.12601Z" fill="url(#paint4_linear_5200_424249)"/>
<path opacity="0.5" d="M3.09167 13.93C2.54231 13.93 2.21593 13.5132 2.0188 12.8604C1.99295 12.7748 1.95741 12.4064 1.9364 12.0703C3.49399 12.3256 5.15499 12.7732 5.70112 13.3387C5.80776 13.4502 5.90309 13.6602 5.96933 13.9284H3.09167V13.93Z" fill="url(#paint5_linear_5200_424249)"/>
<path style="mix-blend-mode:soft-light" d="M4.85937 13.9449C4.59115 13.9449 4.3811 13.7187 4.3811 13.4295C4.3811 13.1403 4.59115 12.9141 4.85937 12.9141C5.12758 12.9141 5.33763 13.1403 5.33763 13.4295C5.33763 13.7187 5.12758 13.9449 4.85937 13.9449Z" fill="url(#paint6_linear_5200_424249)"/>
<path style="mix-blend-mode:soft-light" d="M5.15332 13.4374C5.15332 13.5925 5.02083 13.7185 4.85925 13.7185C4.69768 13.7185 4.56519 13.5925 4.56519 13.4374C4.56519 13.2823 4.69768 13.1562 4.85925 13.1562C5.02083 13.1562 5.15332 13.2823 5.15332 13.4374Z" fill="url(#paint7_linear_5200_424249)"/>
<path style="mix-blend-mode:soft-light" d="M3.30984 13.9493C2.84612 13.9493 2.48096 13.6003 2.48096 13.1543C2.48096 12.7084 2.8445 12.3594 3.30984 12.3594C3.77518 12.3594 4.13872 12.7084 4.13872 13.1543C4.13872 13.6003 3.77518 13.9493 3.30984 13.9493Z" fill="url(#paint8_linear_5200_424249)"/>
<path opacity="0.52" d="M3.90931 13.1526C3.90931 13.4305 3.6411 13.6567 3.30987 13.6567C2.97864 13.6567 2.71204 13.4305 2.71204 13.1526C2.71204 12.8746 2.98025 12.6484 3.30987 12.6484C3.63948 12.6484 3.90931 12.8746 3.90931 13.1526Z" fill="#FAFAFA"/>
<path style="mix-blend-mode:soft-light" d="M2.55358 12.5195C2.55358 12.7409 2.40655 12.9041 2.22558 12.9041C2.04462 12.9041 1.89758 12.7425 1.89758 12.5195C1.89758 12.2965 2.04462 12.1172 2.22558 12.1172C2.40655 12.1172 2.55358 12.2965 2.55358 12.5195Z" fill="url(#paint9_linear_5200_424249)"/>
<path opacity="0.52" d="M2.10277 13.3744C1.65359 12.5891 1.75862 11.9525 1.76346 11.7812C1.71499 11.82 1.67944 11.8863 1.67944 11.9654C1.67944 11.9654 1.72307 12.7717 1.78447 12.9769C2.01875 13.7541 2.434 14.2501 3.09162 14.2501H6.12601C6.15832 14.2501 6.18418 14.2324 6.2068 14.2097C6.19225 14.2097 4.16933 14.2453 2.90257 14.0094C2.50025 13.9334 2.23042 13.6038 2.10116 13.376L2.10277 13.3744Z" fill="#FAFAFA"/>
<path style="mix-blend-mode:soft-light" d="M1.90564 11.7516C1.91372 11.9972 2.03652 12.4399 2.37583 12.8067C2.83793 13.306 6.07106 13.9587 6.0953 13.8893C6.11469 13.8327 6.01936 13.3835 5.78669 13.0329C4.96104 12.2977 2.66505 11.8728 1.90564 11.75V11.7516Z" fill="url(#paint10_linear_5200_424249)"/>
<g style="mix-blend-mode:soft-light" opacity="0.52">
<path d="M2.05432 11.8889C2.05432 11.981 4.39232 12.5174 5.02893 12.8131C5.66554 13.1088 5.8562 13.4707 5.91598 13.4352C5.97576 13.4012 5.63646 12.9036 5.09194 12.6515C4.54743 12.3995 2.05594 11.7564 2.05594 11.8889H2.05432Z" fill="#FAFAFA"/>
</g>
<g style="mix-blend-mode:soft-light">
<path d="M3.01578 12.402C3.01578 12.402 3.34701 12.3584 3.59906 12.4747C3.87859 12.604 4.05794 12.8124 4.05794 12.8124C4.06763 12.772 3.89313 12.5264 3.63784 12.4198C3.43587 12.3358 3.02547 12.3487 3.01416 12.402H3.01578Z" fill="#FAFAFA"/>
</g>
<path d="M13.7104 13.0078H9.768L6.25696 13.0094L6.64797 14.4184C6.70775 14.6349 6.90488 14.7851 7.12947 14.7851H12.8363C13.0609 14.7835 13.258 14.6333 13.3178 14.4168L13.7104 13.0078Z" fill="url(#paint11_linear_5200_424249)"/>
<path d="M17.5188 8.95403C17.5188 8.95403 17.3265 5.51732 16.6899 3.61719H9.78418L3.30984 3.6188C2.67323 5.51893 2.48096 8.95565 2.48096 8.95565C2.48096 8.95565 7.96969 9.21417 9.80034 9.21579C11.7312 9.21579 17.5172 8.95242 17.5172 8.95242L17.5188 8.95403Z" fill="url(#paint12_linear_5200_424249)"/>
<path d="M17.2878 8.80042C17.2878 8.80042 17.102 5.70947 16.4831 4H9.76159L3.51668 4.00162C2.89785 5.71109 2.71204 8.80203 2.71204 8.80203C2.71204 8.80203 8.02788 9.07671 9.80198 9.07833C11.6746 9.07994 17.2894 8.80042 17.2894 8.80042H17.2878Z" fill="url(#paint13_linear_5200_424249)"/>
<g style="mix-blend-mode:soft-light">
<path d="M17.2878 9.21689C17.0793 9.12156 14.0304 12.3935 14.0304 12.6439C14.0304 12.896 16.7966 12.3046 16.984 12.1107C17.1714 11.9184 17.48 9.30252 17.2894 9.21527L17.2878 9.21689Z" fill="#808080"/>
<path d="M17.2458 9.2756C17.0487 9.17865 14.079 12.373 14.0886 12.6121C14.0983 12.8497 16.6852 12.2971 16.871 12.1032C17.0568 11.9109 17.4333 9.36608 17.2458 9.2756Z" fill="#898888"/>
<path d="M17.2021 9.33034C17.0147 9.23339 14.1257 12.3502 14.1451 12.5748C14.1629 12.7994 16.572 12.2839 16.7562 12.0901C16.942 11.8978 17.3847 9.42405 17.2021 9.33034Z" fill="#919190"/>
<path d="M17.1602 9.38508C16.984 9.28814 14.1759 12.3258 14.2033 12.539C14.2308 12.7507 16.4605 12.2708 16.6447 12.0786C16.8289 11.8863 17.3395 9.48364 17.1602 9.38508Z" fill="#9A9998"/>
<path d="M17.1166 9.43983C16.9501 9.34288 14.2227 12.303 14.2599 12.5017C14.2971 12.7004 16.3475 12.2577 16.53 12.0654C16.7126 11.8732 17.2911 9.54324 17.1166 9.43983Z" fill="#A3A2A0"/>
<path d="M17.0745 9.49458C16.9194 9.39763 14.2711 12.2785 14.318 12.4643C14.3649 12.6502 16.2359 12.2446 16.4185 12.0523C16.6011 11.86 17.2458 9.60122 17.0745 9.49458Z" fill="#ACAAA8"/>
<path d="M17.031 9.54933C16.8856 9.45239 14.3181 12.2557 14.3747 12.4286C14.4313 12.6015 16.1229 12.2331 16.3039 12.0392C16.4849 11.8469 17.1974 9.6592 17.031 9.54933Z" fill="#B4B3B0"/>
<path d="M16.9888 9.60401C16.8547 9.50868 14.3664 12.2312 14.4327 12.3912C14.4989 12.5511 16.0113 12.2199 16.1906 12.026C16.37 11.8338 17.1504 9.71873 16.9888 9.60401Z" fill="#BDBBB8"/>
<path d="M16.9452 9.66267C16.8208 9.56734 14.4149 12.2123 14.4892 12.3594C14.5652 12.5064 15.8982 12.2107 16.0775 12.0184C16.2569 11.8262 17.1035 9.78385 16.9452 9.66267Z" fill="#C6C4C0"/>
<path d="M16.9033 9.71344C16.7886 9.61973 14.4635 12.1839 14.5475 12.318C14.6315 12.4522 15.7868 12.1936 15.9645 12.0014C16.1423 11.8091 17.0552 9.83947 16.9033 9.71344Z" fill="#CFCCC8"/>
<path d="M16.8595 9.77602C16.7545 9.68231 14.5102 12.169 14.6039 12.2885C14.6976 12.4097 15.6736 12.1883 15.8497 11.9961C16.0274 11.8038 17.0066 9.9069 16.8579 9.77602H16.8595Z" fill="#D7D5D0"/>
<path d="M16.8177 9.8268C16.7224 9.7347 14.5589 12.1406 14.6623 12.2488C14.7657 12.3571 15.5623 12.1729 15.7384 11.979C15.9145 11.7867 16.9599 9.96252 16.8177 9.8268Z" fill="#E0DDD8"/>
</g>
<path d="M19.4417 8.56405H18.8277C18.6499 8.56405 18.5045 8.47034 18.5045 8.35562V6.87235C18.5045 6.74632 18.6612 6.64453 18.8551 6.64453H19.4514C19.5224 6.64453 19.5871 6.67362 19.6097 6.71724C19.6759 6.8465 19.7971 7.13895 19.7971 7.55905C19.7971 7.97915 19.6695 8.32977 19.6048 8.48326C19.5855 8.53012 19.5192 8.56244 19.4433 8.56244L19.4417 8.56405Z" fill="#282B2D"/>
<path d="M19.4384 8.55315H18.8454C18.666 8.55315 18.5222 8.45944 18.5222 8.3431V6.88246C18.5222 6.75804 18.6789 6.65625 18.8712 6.65625H19.4464C19.5175 6.65625 19.5805 6.68533 19.6015 6.72896C19.6662 6.8566 19.7841 7.14744 19.7841 7.56269C19.7841 7.97794 19.6597 8.3221 19.5967 8.47398C19.5773 8.52083 19.5127 8.55315 19.4384 8.55315Z" fill="#26292B"/>
<path d="M19.4368 8.54225H18.8648C18.6855 8.54225 18.54 8.44853 18.54 8.3322V6.89418C18.54 6.76976 18.6968 6.66797 18.889 6.66797H19.4432C19.5127 6.66797 19.5757 6.69705 19.5967 6.74068C19.6598 6.86832 19.7745 7.15754 19.7745 7.56471C19.7745 7.97189 19.6533 8.31443 19.5919 8.46308C19.5725 8.50832 19.5095 8.54063 19.4352 8.54063L19.4368 8.54225Z" fill="#24282A"/>
<path d="M19.4336 8.52973H18.8842C18.7049 8.52973 18.5594 8.43602 18.5594 8.31968V6.90428C18.5594 6.77986 18.7146 6.67969 18.9068 6.67969H19.4417C19.5111 6.67969 19.5725 6.70877 19.5935 6.7524C19.6549 6.87843 19.7664 7.16765 19.7664 7.56835C19.7664 7.96906 19.6485 8.30676 19.5887 8.45379C19.5709 8.49903 19.5063 8.53135 19.4352 8.53135L19.4336 8.52973Z" fill="#232628"/>
<path d="M19.4303 8.52044H18.9019C18.7226 8.52044 18.5771 8.42673 18.5771 8.30878V6.916C18.5771 6.79158 18.7323 6.69141 18.9229 6.69141H19.4367C19.5062 6.69141 19.566 6.72049 19.587 6.7625C19.6452 6.88853 19.755 7.17452 19.755 7.57038C19.755 7.96624 19.6403 8.29747 19.5838 8.44289C19.566 8.48813 19.503 8.51883 19.4319 8.51883L19.4303 8.52044Z" fill="#212426"/>
<path d="M19.4271 8.50954H18.9214C18.7404 8.50954 18.595 8.41421 18.595 8.29788V6.92772C18.595 6.8033 18.7501 6.70312 18.9407 6.70312H19.4335C19.5014 6.70312 19.5628 6.73221 19.5822 6.77422C19.6388 6.90025 19.7454 7.18462 19.7454 7.5724C19.7454 7.96018 19.6355 8.2898 19.579 8.43198C19.5612 8.47723 19.4998 8.50793 19.4287 8.50793L19.4271 8.50954Z" fill="#1F2224"/>
<path d="M19.4239 8.49702H18.9392C18.7582 8.49702 18.6128 8.40169 18.6128 8.28536V6.93782C18.6128 6.81502 18.7663 6.71484 18.9569 6.71484H19.4304C19.4982 6.71484 19.558 6.74393 19.5758 6.78594C19.6307 6.91035 19.7341 7.19311 19.7341 7.57604C19.7341 7.95898 19.6275 8.28213 19.5726 8.4227C19.5564 8.46632 19.495 8.49702 19.4255 8.49702H19.4239Z" fill="#1D2123"/>
<path d="M19.4222 8.48612H18.9585C18.7775 8.48612 18.6305 8.39079 18.6305 8.27446V6.94954C18.6305 6.82674 18.784 6.72656 18.9746 6.72656H19.4271C19.4933 6.72656 19.5531 6.75565 19.5709 6.79766C19.6242 6.92207 19.7227 7.20321 19.7227 7.57968C19.7227 7.95615 19.6193 8.27446 19.566 8.41341C19.5499 8.45704 19.4901 8.48774 19.4206 8.48774L19.4222 8.48612Z" fill="#1B1F21"/>
<path d="M19.419 8.47522H18.9779C18.7969 8.47522 18.6499 8.37989 18.6499 8.26194V6.95964C18.6499 6.83684 18.8034 6.73828 18.9924 6.73828H19.4238C19.4901 6.73828 19.5483 6.76736 19.566 6.80776C19.6177 6.93056 19.7131 7.21008 19.7131 7.58009C19.7131 7.9501 19.6129 8.26517 19.5628 8.4009C19.5466 8.44452 19.4869 8.4736 19.419 8.4736V8.47522Z" fill="#1A1D1F"/>
<path d="M19.4157 8.46432H18.9956C18.813 8.46432 18.666 8.36899 18.666 8.25104V6.97136C18.666 6.84856 18.8195 6.75 19.0069 6.75H19.419C19.4852 6.75 19.5418 6.77908 19.5595 6.81948C19.6096 6.94228 19.7017 7.22019 19.7017 7.58373C19.7017 7.94728 19.6064 8.2575 19.5563 8.39161C19.5401 8.43362 19.482 8.46432 19.4157 8.46432Z" fill="#181B1D"/>
<path d="M19.4125 8.45342H19.015C18.8325 8.45342 18.6854 8.35809 18.6854 8.24014V6.98308C18.6854 6.8619 18.8373 6.76172 19.0263 6.76172H19.4174C19.482 6.76172 19.5385 6.78919 19.5547 6.8312C19.6032 6.95399 19.692 7.22867 19.692 7.58575C19.692 7.94284 19.5999 8.24821 19.5515 8.38071C19.5369 8.42272 19.4788 8.4518 19.4125 8.4518V8.45342Z" fill="#161A1C"/>
<path d="M19.4094 8.44251H19.0329C18.8503 8.44251 18.7017 8.34719 18.7017 8.22762V6.99318C18.7017 6.872 18.8535 6.77344 19.041 6.77344H19.411C19.4756 6.77344 19.5322 6.80091 19.5467 6.8413C19.5936 6.96248 19.6792 7.23716 19.6792 7.58778C19.6792 7.9384 19.5903 8.23893 19.5451 8.36981C19.5305 8.41182 19.474 8.4409 19.4077 8.4409L19.4094 8.44251Z" fill="#14181A"/>
<path d="M19.4076 8.42771H19.0522C18.8696 8.42771 18.7209 8.33238 18.7209 8.21281V7.00099C18.7209 6.87981 18.8728 6.78125 19.0586 6.78125H19.4093C19.4723 6.78125 19.5288 6.80872 19.5434 6.84911C19.5886 6.97029 19.671 7.24174 19.671 7.58751C19.671 7.93328 19.5854 8.22897 19.5418 8.35661C19.5272 8.39701 19.4723 8.42609 19.4076 8.42609V8.42771Z" fill="#1D1F24"/>
<path d="M19.4046 8.4191H19.0717C18.8875 8.4191 18.7389 8.32215 18.7389 8.2042V7.015C18.7389 6.89382 18.8892 6.79688 19.0766 6.79688H19.4062C19.4692 6.79688 19.5242 6.82434 19.5387 6.86474C19.5823 6.9843 19.6615 7.25575 19.6615 7.59344C19.6615 7.93114 19.5791 8.22359 19.5371 8.34962C19.5242 8.39001 19.4692 8.4191 19.4046 8.4191Z" fill="#101416"/>
<path d="M19.4013 8.40819H19.0894C18.9052 8.40819 18.7566 8.31125 18.7566 8.1933V7.02672C18.7566 6.90554 18.9069 6.80859 19.0927 6.80859H19.4029C19.4659 6.80859 19.5192 6.83606 19.5322 6.87646C19.5725 6.99602 19.6501 7.26585 19.6501 7.59708C19.6501 7.92831 19.5725 8.21592 19.5305 8.34033C19.5176 8.38073 19.4627 8.40819 19.3997 8.40819H19.4013Z" fill="#0F1215"/>
<path d="M19.3979 8.38948H19.1087C18.9245 8.38948 18.7759 8.29253 18.7759 8.17297V7.02901C18.7759 6.90945 18.9261 6.8125 19.112 6.8125H19.4012C19.4626 6.8125 19.5159 6.83997 19.5288 6.87875C19.5676 6.99831 19.6419 7.26491 19.6419 7.5913C19.6419 7.91768 19.5676 8.20044 19.5288 8.32162C19.5159 8.3604 19.4626 8.38948 19.4012 8.38948H19.3979Z" fill="#0D1113"/>
<path d="M19.3949 8.38087H19.1267C18.9425 8.38087 18.7922 8.28392 18.7922 8.16436V7.04464C18.7922 6.92507 18.9425 6.82812 19.1267 6.82812H19.3949C19.4563 6.82812 19.508 6.85559 19.5209 6.89437C19.5581 7.01232 19.6292 7.27892 19.6292 7.59723C19.6292 7.91553 19.5581 8.19506 19.5209 8.31462C19.508 8.3534 19.4563 8.38087 19.3949 8.38087Z" fill="#0B0F11"/>
<g style="mix-blend-mode:soft-light" opacity="0.06">
<path d="M19.1348 7.42796C19.1558 7.36171 18.8811 8.40387 18.6258 8.3651C18.4836 8.34248 18.5886 6.80589 18.6969 6.74449C18.8051 6.68309 19.2366 6.64755 19.3287 6.72025C19.4207 6.79135 19.1073 7.51682 19.1348 7.42957V7.42796Z" fill="#FAFAFA"/>
</g>
<g style="mix-blend-mode:soft-light" opacity="0.12">
<path d="M19.1234 7.39102C19.1428 7.33123 18.8827 8.30715 18.6419 8.26837C18.5062 8.24737 18.5999 6.81096 18.7017 6.75118C18.8019 6.69139 19.2091 6.65746 19.2979 6.72371C19.3884 6.78996 19.0976 7.47019 19.1234 7.3894V7.39102Z" fill="#FAFAFA"/>
</g>
<g style="mix-blend-mode:soft-light" opacity="0.19">
<path d="M19.112 7.35282C19.1298 7.2995 18.8858 8.20756 18.658 8.17201C18.5287 8.15262 18.6128 6.81639 18.7065 6.75823C18.8002 6.70006 19.1799 6.66613 19.2671 6.72914C19.3544 6.79054 19.0878 7.42392 19.112 7.35282Z" fill="#FAFAFA"/>
</g>
<g style="mix-blend-mode:soft-light" opacity="0.25">
<path d="M19.1007 7.31273C19.1169 7.26587 18.8891 8.10607 18.6742 8.07375C18.5514 8.05598 18.6257 6.81993 18.7113 6.76499C18.7986 6.70844 19.1508 6.67612 19.2365 6.73267C19.3221 6.78923 19.0781 7.37575 19.0991 7.31273H19.1007Z" fill="#FAFAFA"/>
</g>
<g style="mix-blend-mode:soft-light" opacity="0.31">
<path d="M19.0895 7.27851C19.1041 7.23811 18.8924 8.01044 18.692 7.98136C18.5741 7.9652 18.6403 6.83094 18.7195 6.77601C18.7987 6.72107 19.1267 6.68875 19.2075 6.74207C19.2899 6.79539 19.0701 7.33344 19.0895 7.27851Z" fill="#FAFAFA"/>
</g>
<g style="mix-blend-mode:soft-light" opacity="0.38">
<path d="M19.0782 7.23658C19.0912 7.20265 18.8957 7.90712 18.7082 7.88126C18.5967 7.86672 18.6517 6.83264 18.7244 6.77932C18.7971 6.72761 19.0976 6.69368 19.1768 6.74215C19.256 6.79063 19.0588 7.28182 19.0782 7.23496V7.23658Z" fill="#FAFAFA"/>
</g>
<g style="mix-blend-mode:soft-light" opacity="0.44">
<path d="M19.0669 7.20403C19.0783 7.17656 18.8973 7.81317 18.7244 7.79055C18.6194 7.776 18.6646 6.84371 18.7292 6.79362C18.7939 6.74353 19.0702 6.71122 19.1461 6.75485C19.2221 6.79847 19.0492 7.24442 19.0669 7.20564V7.20403Z" fill="#FAFAFA"/>
</g>
<g style="mix-blend-mode:soft-light" opacity="0.5">
<path d="M19.0556 7.16266C19.0653 7.14327 18.9005 7.7104 18.7405 7.69101C18.6404 7.67808 18.6775 6.84597 18.7341 6.7975C18.7922 6.74902 19.0411 6.71671 19.1154 6.75549C19.1881 6.79426 19.0394 7.19336 19.0556 7.16266Z" fill="#FAFAFA"/>
</g>
<g style="mix-blend-mode:soft-light" opacity="0.56">
<path d="M19.0444 7.12852C19.0524 7.11559 18.9038 7.61648 18.7568 7.59871C18.663 7.5874 18.6889 6.85546 18.7406 6.8086C18.7907 6.76174 19.0153 6.73104 19.0848 6.76336C19.1559 6.79729 19.0298 7.14953 19.0444 7.12691V7.12852Z" fill="#FAFAFA"/>
</g>
<g style="mix-blend-mode:soft-light" opacity="0.62">
<path d="M19.033 7.09301C19.033 7.09301 18.907 7.51957 18.7729 7.50503C18.6856 7.49534 18.7018 6.86519 18.7454 6.81995C18.789 6.77471 18.9861 6.74401 19.054 6.77309C19.1219 6.80218 19.0201 7.10755 19.033 7.09463V7.09301Z" fill="#FAFAFA"/>
</g>
<g style="mix-blend-mode:soft-light" opacity="0.69">
<path d="M19.0215 7.0514C19.0215 7.0514 18.9084 7.41656 18.7904 7.40525C18.7097 7.39717 18.7161 6.8672 18.7517 6.82358C18.7872 6.77995 18.9601 6.75087 19.0247 6.77349C19.0894 6.79773 19.0134 7.05786 19.0215 7.0514Z" fill="#FAFAFA"/>
</g>
<g style="mix-blend-mode:soft-light" opacity="0.75">
<path d="M19.0103 7.01386C19.0103 7.01386 18.9117 7.31762 18.8067 7.30954C18.7307 7.30308 18.7275 6.87329 18.7566 6.83128C18.7857 6.78927 18.9311 6.76019 18.9941 6.77958C19.0571 6.79896 19.0038 7.01224 19.0103 7.01386Z" fill="#FAFAFA"/>
</g>
<g style="mix-blend-mode:soft-light" opacity="0.81">
<path d="M18.9989 6.97962C19.0054 6.99254 18.9149 7.2236 18.8228 7.21713C18.7533 7.21229 18.7404 6.88267 18.763 6.84389C18.784 6.8035 18.9052 6.77442 18.9634 6.78896C19.0231 6.8035 18.9941 6.96992 18.9989 6.97962Z" fill="#FAFAFA"/>
</g>
<g style="mix-blend-mode:soft-light" opacity="0.88">
<path d="M18.9877 6.9396C18.9909 6.9606 18.9182 7.12218 18.839 7.11733C18.776 7.1141 18.7534 6.88466 18.7679 6.8475C18.7825 6.81033 18.8762 6.78125 18.9327 6.79095C18.9893 6.80064 18.9844 6.92182 18.9877 6.9396Z" fill="#FAFAFA"/>
</g>
<g style="mix-blend-mode:soft-light" opacity="0.94">
<path d="M18.9763 6.90404C18.9779 6.93151 18.9197 7.02684 18.8551 7.02361C18.7969 7.02199 18.7662 6.89435 18.7727 6.85719C18.7792 6.82164 18.847 6.79256 18.902 6.7974C18.9569 6.80225 18.9747 6.87658 18.9763 6.90243V6.90404Z" fill="#FAFAFA"/>
</g>
<g style="mix-blend-mode:soft-light">
<path d="M18.9651 6.86609C18.9651 6.90002 18.9231 6.92748 18.8714 6.92748C18.8197 6.92748 18.7777 6.90002 18.7777 6.86609C18.7777 6.83215 18.8197 6.80469 18.8714 6.80469C18.9231 6.80469 18.9651 6.83215 18.9651 6.86609Z" fill="#FAFAFA"/>
</g>
<path d="M18.9925 8.62028L18.1442 8.95313L18.0537 7.89319C18.0537 7.89319 18.9569 7.46986 19.1492 7.5151C19.1847 7.52318 19.2251 7.5555 19.2655 7.60235C19.5547 7.9352 19.4013 8.45871 18.9908 8.61867L18.9925 8.62028Z" fill="url(#paint14_linear_5200_424249)"/>
<path d="M13.8738 14.2483H16.9082C17.5658 14.2483 17.981 13.7523 18.2153 12.9751C18.2767 12.7699 18.3203 11.9636 18.3203 11.9636C18.3203 11.8295 18.2282 11.7277 18.1232 11.7439C17.3767 11.8634 14.8949 12.3126 14.1388 13.0963C13.9029 13.3402 13.793 13.7894 13.7461 14.0496C13.7283 14.1514 13.7897 14.2483 13.8722 14.2483H13.8738Z" fill="url(#paint15_linear_5200_424249)"/>
<path opacity="0.5" d="M16.9082 13.93C17.4575 13.93 17.7839 13.5132 17.981 12.8604C18.0069 12.7748 18.0424 12.4064 18.0634 12.0703C16.5059 12.3256 14.8449 12.7732 14.2987 13.3387C14.1921 13.4502 14.0968 13.6602 14.0305 13.9284H16.9082V13.93Z" fill="url(#paint16_linear_5200_424249)"/>
<path style="mix-blend-mode:soft-light" d="M15.1405 13.9449C15.4087 13.9449 15.6188 13.7187 15.6188 13.4295C15.6188 13.1403 15.4087 12.9141 15.1405 12.9141C14.8723 12.9141 14.6622 13.1403 14.6622 13.4295C14.6622 13.7187 14.8723 13.9449 15.1405 13.9449Z" fill="url(#paint17_linear_5200_424249)"/>
<path style="mix-blend-mode:soft-light" d="M15.1405 13.7107C15.3029 13.7107 15.4346 13.5848 15.4346 13.4296C15.4346 13.2743 15.3029 13.1484 15.1405 13.1484C14.9781 13.1484 14.8464 13.2743 14.8464 13.4296C14.8464 13.5848 14.9781 13.7107 15.1405 13.7107Z" fill="url(#paint18_linear_5200_424249)"/>
<path style="mix-blend-mode:soft-light" d="M16.6901 13.9493C17.1538 13.9493 17.519 13.6003 17.519 13.1543C17.519 12.7084 17.1554 12.3594 16.6901 12.3594C16.2248 12.3594 15.8612 12.7084 15.8612 13.1543C15.8612 13.6003 16.2248 13.9493 16.6901 13.9493Z" fill="url(#paint19_linear_5200_424249)"/>
<path opacity="0.52" d="M16.0906 13.1526C16.0906 13.4305 16.3588 13.6567 16.6884 13.6567C17.018 13.6567 17.2879 13.4305 17.2879 13.1526C17.2879 12.8746 17.0196 12.6484 16.6884 12.6484C16.3572 12.6484 16.0906 12.8746 16.0906 13.1526Z" fill="#FAFAFA"/>
<path style="mix-blend-mode:soft-light" d="M17.4462 12.5195C17.4462 12.7409 17.5932 12.9041 17.7742 12.9041C17.9551 12.9041 18.1022 12.7425 18.1022 12.5195C18.1022 12.2965 17.9551 12.1172 17.7742 12.1172C17.5932 12.1172 17.4462 12.2965 17.4462 12.5195Z" fill="url(#paint20_linear_5200_424249)"/>
<path opacity="0.52" d="M17.897 13.3705C18.3462 12.5852 18.2411 11.9486 18.2363 11.7773C18.2848 11.8161 18.3203 11.8824 18.3203 11.9615C18.3203 11.9615 18.2767 12.7678 18.2153 12.973C17.981 13.7502 17.5658 14.2462 16.9081 14.2462H13.8738C13.8414 14.2462 13.8156 14.2284 13.793 14.2058C13.8075 14.2058 15.8304 14.2414 17.0972 14.0055C17.4995 13.9295 17.7693 13.5999 17.8986 13.3721L17.897 13.3705Z" fill="#FAFAFA"/>
<path style="mix-blend-mode:soft-light" d="M18.0941 11.7516C18.086 11.9972 17.9632 12.4399 17.6239 12.8067C17.1618 13.306 13.9287 13.9587 13.9044 13.8893C13.885 13.8327 13.9804 13.3835 14.213 13.0329C15.0387 12.2977 17.3347 11.8728 18.0941 11.75V11.7516Z" fill="url(#paint21_linear_5200_424249)"/>
<g style="mix-blend-mode:soft-light" opacity="0.52">
<path d="M17.9455 11.8889C17.9455 11.981 15.6075 12.5174 14.9709 12.8131C14.3343 13.1088 14.1436 13.4707 14.0838 13.4352C14.024 13.4012 14.3634 12.9036 14.9079 12.6515C15.4524 12.3995 17.9439 11.7564 17.9439 11.8889H17.9455Z" fill="#FAFAFA"/>
</g>
<g style="mix-blend-mode:soft-light">
<path d="M16.9842 12.402C16.9842 12.402 16.653 12.3584 16.4009 12.4747C16.1214 12.604 15.942 12.8124 15.942 12.8124C15.9323 12.772 16.1068 12.5264 16.3621 12.4198C16.5641 12.3358 16.9745 12.3487 16.9858 12.402H16.9842Z" fill="#FAFAFA"/>
</g>
<path d="M13.4246 14.0356H6.54307L6.40088 13.5234H13.5668L13.4246 14.0356Z" fill="url(#paint22_linear_5200_424249)"/>
<path d="M13.5683 13.5216H6.40076L6.25696 13.0078H13.7104L13.5683 13.5216Z" fill="url(#paint23_linear_5200_424249)"/>
<path d="M13.2015 14.5451H6.76594C6.71747 14.5451 6.67385 14.5127 6.66092 14.4643L6.54297 14.0312H13.4245L13.3033 14.4675C13.2904 14.5127 13.25 14.5434 13.2031 14.5434L13.2015 14.5451Z" fill="url(#paint24_linear_5200_424249)"/>
<path style="mix-blend-mode:multiply" d="M13.7104 13.0078H9.768L6.25696 13.0094L6.64797 14.4184C6.70775 14.6349 6.90488 14.7851 7.12947 14.7851H12.8363C13.0609 14.7835 13.258 14.6333 13.3178 14.4168L13.7104 13.0078Z" fill="url(#paint25_radial_5200_424249)"/>
<path style="mix-blend-mode:multiply" d="M4.93041 0.140625C4.40852 0.171324 4.11769 0.195561 4.11769 0.195561C3.67659 0.210103 3.29688 0.509018 3.17893 0.933962C2.73783 2.53033 1.86532 6.44046 1.75222 11.0583C1.62942 16.072 2.10607 17.956 2.22887 18.3534H4.93041V0.140625Z" fill="url(#paint26_linear_5200_424249)"/>
<path style="mix-blend-mode:multiply" d="M16.8225 0.932346C16.7045 0.507402 16.3248 0.208487 15.8837 0.193945C15.8837 0.193945 15.5977 0.171324 15.0662 0.140625V18.3534H17.7709C17.8937 17.9608 18.372 16.0785 18.2492 11.0567C18.1361 6.43885 17.2636 2.52871 16.8225 0.932346Z" fill="url(#paint27_linear_5200_424249)"/>
<path d="M12.5891 16.3577H7.41384C6.91941 16.3577 6.51709 15.957 6.51709 15.4609H13.4859C13.4859 15.9554 13.0851 16.3577 12.5891 16.3577Z" fill="url(#paint28_linear_5200_424249)"/>
<path d="M18.2023 15H9.78423L1.79916 15.0016C1.73453 15.0016 1.68283 15.0549 1.68606 15.1196C1.70221 15.4104 1.75715 16.2231 1.93811 17.4366C1.99143 17.7969 2.05607 18.0926 2.09807 18.2654C2.12231 18.3656 2.21118 18.4351 2.31459 18.4351H9.78585L17.6869 18.4335C17.7903 18.4335 17.8792 18.364 17.9034 18.2638C17.9454 18.0893 18.0101 17.7936 18.0634 17.4349C18.2443 16.2215 18.2993 15.4088 18.3154 15.1179C18.3187 15.0533 18.267 15 18.2023 15Z" fill="url(#paint29_linear_5200_424249)"/>
<path style="mix-blend-mode:multiply" d="M5.92096 17.4182H3.9465C3.71545 17.4182 3.50702 17.2825 3.41169 17.0724L3.18225 16.5586H5.13893C5.35221 16.5586 5.5461 16.6782 5.64305 16.8688L5.92258 17.4198L5.92096 17.4182Z" fill="url(#paint30_linear_5200_424249)"/>
<path d="M7.41066 16.3577H12.5859C13.0804 16.3577 13.4827 15.957 13.4827 15.4609H6.51392C6.51392 15.9554 6.91462 16.3577 7.41066 16.3577Z" fill="url(#paint31_linear_5200_424249)"/>
<path style="mix-blend-mode:multiply" d="M14.0788 17.4182H16.0532C16.2843 17.4182 16.4927 17.2825 16.588 17.0724L16.8175 16.5586H14.8608C14.6475 16.5586 14.4536 16.6782 14.3567 16.8688L14.0771 17.4198L14.0788 17.4182Z" fill="url(#paint32_linear_5200_424249)"/>
<path d="M13.3194 15.9809C13.4212 15.8355 13.4826 15.6594 13.4842 15.4688H6.51709C6.51709 15.6594 6.57849 15.8355 6.6819 15.9809H13.321H13.3194Z" fill="url(#paint33_linear_5200_424249)"/>
<path style="mix-blend-mode:multiply" d="M7.41066 16.3577H12.5859C13.0804 16.3577 13.4827 15.957 13.4827 15.4609H6.51392C6.51392 15.9554 6.91462 16.3577 7.41066 16.3577Z" fill="url(#paint34_radial_5200_424249)"/>
<path style="mix-blend-mode:multiply" d="M18.2023 15H17.1327V18.4351H17.6869C17.7903 18.4351 17.8792 18.3656 17.9034 18.2654C17.9454 18.0909 18.01 17.7953 18.0634 17.4366C18.2443 16.2231 18.2993 15.4104 18.3154 15.1196C18.3187 15.0549 18.267 15.0016 18.2023 15.0016V15Z" fill="url(#paint35_linear_5200_424249)"/>
<path style="mix-blend-mode:multiply" d="M2.77349 15.0016H1.79757C1.73294 15.0016 1.68124 15.0549 1.68447 15.1196C1.70063 15.4104 1.75556 16.2231 1.93653 17.4366C1.98985 17.7969 2.05448 18.0926 2.09649 18.2654C2.12072 18.3656 2.20959 18.4351 2.313 18.4351H2.77349V15V15.0016Z" fill="url(#paint36_linear_5200_424249)"/>
<path d="M12.3128 16.9141H7.65462C7.61446 16.9141 7.58191 16.9466 7.58191 16.9868V17.8577C7.58191 17.8978 7.61446 17.9304 7.65462 17.9304H12.3128C12.353 17.9304 12.3856 17.8978 12.3856 17.8577V16.9868C12.3856 16.9466 12.353 16.9141 12.3128 16.9141Z" fill="#E6E6E6"/>
<path d="M12.3128 17.9564H7.65462C7.59968 17.9564 7.55444 17.9111 7.55444 17.8562V16.9869C7.55444 16.932 7.59968 16.8867 7.65462 16.8867H12.3128C12.3678 16.8867 12.413 16.932 12.413 16.9869V17.8562C12.413 17.9111 12.3678 17.9564 12.3128 17.9564ZM7.65462 16.94C7.62877 16.94 7.60776 16.961 7.60776 16.9869V17.8562C7.60776 17.882 7.62877 17.903 7.65462 17.903H12.3128C12.3387 17.903 12.3597 17.882 12.3597 17.8562V16.9869C12.3597 16.961 12.3387 16.94 12.3128 16.94H7.65462Z" fill="#727476"/>
<path d="M3.30654 3.61706L2.6053 3.34077C2.56652 3.32622 2.52128 3.34561 2.50674 3.38439L2.45665 3.51527C2.43403 3.57505 2.4615 3.64291 2.51805 3.67038C2.60207 3.71239 2.84605 3.81741 2.95592 3.81741C3.14497 3.81741 3.30493 3.61544 3.30493 3.61544L3.30654 3.61706Z" fill="url(#paint37_linear_5200_424249)"/>
<path d="M16.6672 3.61706L17.3685 3.34077C17.4073 3.32622 17.4525 3.34561 17.467 3.38439L17.5171 3.51527C17.5397 3.57505 17.5123 3.64291 17.4557 3.67038C17.3717 3.71239 17.1277 3.81741 17.0179 3.81741C16.8288 3.81741 16.6689 3.61544 16.6689 3.61544L16.6672 3.61706Z" fill="url(#paint38_linear_5200_424249)"/>
<mask id="mask0_5200_424249" style="mask-type:luminance" maskUnits="userSpaceOnUse" x="2" y="4" width="16" height="6">
<path d="M17.2878 8.80823C17.2878 8.80823 17.102 5.71728 16.4831 4.00781H9.76159L3.51668 4.00943C2.89785 5.7189 2.71204 8.80984 2.71204 8.80984C2.71204 8.80984 8.02788 9.08452 9.80198 9.08614C11.6746 9.08775 17.2894 8.80823 17.2894 8.80823H17.2878Z" fill="white"/>
</mask>
<g mask="url(#mask0_5200_424249)">
<g style="mix-blend-mode:multiply">
<path d="M2.51819 3.67969V9.4641H17.5253V3.67969H2.51819ZM13.7105 6.27621C13.7105 6.49757 13.5312 6.67692 13.3098 6.67692H7.01484C6.79348 6.67692 6.61413 6.49757 6.61413 6.27621V5.02077C6.61413 4.79941 6.79348 4.62006 7.01484 4.62006H13.3098C13.5312 4.62006 13.7105 4.79941 13.7105 5.02077V6.27621Z" fill="#D8DDDC"/>
</g>
<g style="mix-blend-mode:multiply">
<path d="M15.5105 7.31654C15.4814 7.10326 15.3004 6.94492 15.0855 6.94492H14.7801V6.80435C14.9643 6.74618 15.1001 6.57491 15.1001 6.37132C15.1001 6.11926 14.8949 5.91406 14.6428 5.91406H13.6362C13.3857 5.91406 13.1789 6.11926 13.1789 6.37132C13.1789 6.57491 13.3146 6.74618 13.4988 6.80435V6.94492H13.1935C12.9786 6.94492 12.7976 7.10326 12.7685 7.31654L12.4147 9.96154H15.8643L15.5105 7.31654ZM13.6782 6.82697H14.604V6.94492H13.6782V6.82697Z" fill="#B3B3B5"/>
</g>
<g style="mix-blend-mode:multiply">
<path d="M9.5289 7.31654C9.49981 7.10326 9.31885 6.94492 9.10395 6.94492H8.79857V6.80435C8.98277 6.74618 9.11849 6.57491 9.11849 6.37132C9.11849 6.11926 8.91329 5.91406 8.66124 5.91406H7.65462C7.40418 5.91406 7.19736 6.11926 7.19736 6.37132C7.19736 6.57491 7.33308 6.74618 7.51728 6.80435V6.94492H7.2119C6.997 6.94492 6.81604 7.10326 6.78696 7.31654L6.43311 9.96154H9.88275L9.5289 7.31654ZM7.69501 6.82697H8.62084V6.94492H7.69501V6.82697Z" fill="#B3B3B5"/>
</g>
<g style="mix-blend-mode:multiply">
<path d="M6.2037 7.31654C6.17462 7.10326 5.99365 6.94492 5.77876 6.94492H5.47338V6.80435C5.65758 6.74618 5.7933 6.57491 5.7933 6.37132C5.7933 6.11926 5.5881 5.91406 5.33604 5.91406H4.32942C4.07898 5.91406 3.87216 6.11926 3.87216 6.37132C3.87216 6.57491 4.00789 6.74618 4.19208 6.80435V6.94492H3.88671C3.67181 6.94492 3.49084 7.10326 3.46176 7.31654L3.10791 9.96154H6.55755L6.2037 7.31654ZM4.36982 6.82697H5.29565V6.94492H4.36982V6.82697Z" fill="#B3B3B5"/>
</g>
<g style="mix-blend-mode:multiply">
<path d="M14.1403 11.8914C13.069 11.8914 12.1965 11.0189 12.1965 9.94766C12.1965 8.87642 13.069 8.00391 14.1403 8.00391C15.2115 8.00391 16.084 8.87642 16.084 9.94766C16.084 11.0189 15.2115 11.8914 14.1403 11.8914ZM14.1403 8.33514C13.2516 8.33514 12.5278 9.059 12.5278 9.94766C12.5278 10.8363 13.2516 11.5602 14.1403 11.5602C15.029 11.5602 15.7528 10.8363 15.7528 9.94766C15.7528 9.059 15.029 8.33514 14.1403 8.33514Z" fill="#B3B3B5"/>
</g>
</g>
<path style="mix-blend-mode:soft-light" opacity="0.5" d="M16.0905 4L16.6899 8.8295L13.5667 8.96845L13.4827 4H16.0905Z" fill="url(#paint39_linear_5200_424249)"/>
<path style="mix-blend-mode:soft-light" opacity="0.5" d="M10.4353 4L6.29252 4.00323L5.9209 8.96845L10.4353 9.07186V4Z" fill="url(#paint40_linear_5200_424249)"/>
<path style="mix-blend-mode:soft-light" opacity="0.5" d="M5.55752 4L5.05502 8.94907L3.2583 8.82788L4.05972 4H5.55752Z" fill="url(#paint41_linear_5200_424249)"/>
<path d="M11.1194 10.0195C11.0758 10.0195 11.0403 10.055 11.0403 10.0986C11.0403 10.1423 11.0756 10.1776 11.1194 10.1776C11.1633 10.1776 11.1984 10.1421 11.1984 10.0986C11.1984 10.0551 11.1631 10.0195 11.1194 10.0195ZM11.1194 10.1618C11.0845 10.1618 11.0563 10.1336 11.0563 10.0986C11.0563 10.0637 11.0845 10.0355 11.1194 10.0355C11.1544 10.0355 11.1826 10.0637 11.1826 10.0986C11.1826 10.1336 11.1544 10.1618 11.1194 10.1618Z" fill="#CE0E2D"/>
<path d="M11.1537 10.0788C11.1537 10.0606 11.1429 10.0526 11.1213 10.0526H11.0864V10.1445H11.1003V10.1046H11.1162L11.1403 10.1445H11.1557L11.1297 10.1041C11.1431 10.1024 11.1535 10.0952 11.1535 10.0789L11.1537 10.0788ZM11.1004 10.0928V10.0644H11.1193C11.1288 10.0644 11.1391 10.0666 11.1391 10.0779C11.1391 10.092 11.1287 10.0928 11.1169 10.0928H11.1004Z" fill="#CE0E2D"/>
<path d="M6.74969 10.0195L5.5 11.5998H6.49527L6.74987 10.0195H6.74969Z" fill="#CE0E2D"/>
<path d="M7.53968 10.0195H6.8817L6.62728 11.5998H7.27789L7.53968 10.0195Z" fill="#CE0E2D"/>
<path d="M8.52793 10.0195L8.2735 11.5997C8.70702 11.5954 9.11485 11.2434 9.18676 10.8097C9.25902 10.3734 8.96401 10.0199 8.52793 10.0195Z" fill="#CE0E2D"/>
<path d="M7.73726 10.0195L7.47547 11.5998H8.13379V11.5997H8.14167L8.39609 10.0195H7.73726Z" fill="#CE0E2D"/>
<path d="M10.2396 10.0195C9.80314 10.0195 9.39085 10.3734 9.31843 10.8097C9.24635 11.2449 9.53946 11.5976 9.97384 11.5997V11.6002H9.98582L10.2404 10.0195H10.2396Z" fill="#CE0E2D"/>
<path d="M10.3723 10.0195L10.1177 11.5995C10.551 11.595 10.9583 11.2432 11.0301 10.8095C11.1025 10.3736 10.808 10.0202 10.3723 10.0195Z" fill="#CE0E2D"/>
<path d="M11.6786 11.243C11.6786 11.243 11.6264 11.2102 11.5507 11.2102C11.4692 11.2102 11.4107 11.2723 11.4107 11.348C11.4107 11.4237 11.4692 11.4858 11.5507 11.4858C11.6372 11.4858 11.6872 11.4415 11.6872 11.4415V11.5615C11.6872 11.5615 11.6307 11.5986 11.5464 11.5986C11.4021 11.5986 11.2927 11.4894 11.2927 11.3471C11.2927 11.2048 11.4048 11.097 11.5464 11.097C11.6307 11.097 11.6786 11.1256 11.6786 11.1256V11.243Z" fill="#CE0E2D"/>
<path d="M11.9851 11.0973C12.1265 11.0973 12.2388 11.2081 12.2388 11.3475C12.2388 11.4868 12.1267 11.599 11.9851 11.599C11.8435 11.599 11.7322 11.4868 11.7322 11.3475C11.7322 11.2081 11.845 11.0973 11.9851 11.0973ZM11.9851 11.486C12.0594 11.486 12.1209 11.4225 12.1209 11.3473C12.1209 11.2721 12.0594 11.2102 11.9851 11.2102C11.9108 11.2102 11.85 11.2723 11.85 11.3473C11.85 11.4223 11.9108 11.486 11.9851 11.486Z" fill="#CE0E2D"/>
<path d="M12.446 11.3437V11.5916H12.328V11.0771L12.6224 11.3559V11.1043H12.7403V11.6195L12.446 11.3437Z" fill="#CE0E2D"/>
<path d="M13.219 11.5916H12.8617V11.1043H13.2148V11.2151H12.9797V11.2917H13.1797V11.4002H12.9797V11.481H13.219V11.5918V11.5916Z" fill="#CE0E2D"/>
<path d="M13.6764 11.243C13.6764 11.243 13.6241 11.2102 13.5485 11.2102C13.467 11.2102 13.4084 11.2723 13.4084 11.348C13.4084 11.4237 13.467 11.4858 13.5485 11.4858C13.6349 11.4858 13.6849 11.4415 13.6849 11.4415V11.5615C13.6849 11.5615 13.6284 11.5986 13.5442 11.5986C13.3998 11.5986 13.2904 11.4894 13.2904 11.3471C13.2904 11.2048 13.4026 11.097 13.5442 11.097C13.6284 11.097 13.6764 11.1256 13.6764 11.1256V11.243Z" fill="#CE0E2D"/>
<path d="M13.9722 11.2151V11.5916H13.8542V11.2151H13.7277V11.1043H14.0986V11.2151H13.972H13.9722Z" fill="#CE0E2D"/>
<path d="M14.2922 11.0715L14.0496 11.5918H14.1689L14.2282 11.4648L14.2614 11.536H14.3895L14.4155 11.5918H14.5348L14.2922 11.0715ZM14.2922 11.3273L14.3444 11.4391H14.2402L14.2924 11.3273H14.2922Z" fill="#CE0E2D"/>
<defs>
<linearGradient id="paint0_linear_5200_424249" x1="10.0006" y1="18.3679" x2="10.0006" y2="-0.069477" gradientUnits="userSpaceOnUse">
<stop stop-color="#93938E"/>
<stop offset="0.01" stop-color="#9E9F9A"/>
<stop offset="0.04" stop-color="#ACAEAA"/>
<stop offset="0.06" stop-color="#B4B8B4"/>
<stop offset="0.1" stop-color="#B7BBB7"/>
<stop offset="0.11" stop-color="#BABDB9"/>
<stop offset="0.21" stop-color="#CCCECC"/>
<stop offset="0.31" stop-color="#D8D8D7"/>
<stop offset="0.42" stop-color="#DCDCDB"/>
<stop offset="0.72" stop-color="#E0E0DF"/>
<stop offset="0.91" stop-color="#E0E1E0"/>
<stop offset="0.93" stop-color="#E0E3E2"/>
<stop offset="0.97" stop-color="#D5D7D6"/>
<stop offset="0.99" stop-color="#CACAC9"/>
</linearGradient>
<linearGradient id="paint1_linear_5200_424249" x1="16.3491" y1="15.9343" x2="16.3491" y2="20.9496" gradientUnits="userSpaceOnUse">
<stop/>
<stop offset="0.39" stop-color="#010101"/>
<stop offset="0.53" stop-color="#080808"/>
<stop offset="0.63" stop-color="#141413"/>
<stop offset="0.66" stop-color="#191918"/>
<stop offset="1"/>
</linearGradient>
<linearGradient id="paint2_linear_5200_424249" x1="3.61846" y1="0.00288595" x2="3.61846" y2="0.00288595" gradientUnits="userSpaceOnUse">
<stop/>
<stop offset="0.39" stop-color="#010101"/>
<stop offset="0.53" stop-color="#080808"/>
<stop offset="0.63" stop-color="#141413"/>
<stop offset="0.66" stop-color="#191918"/>
<stop offset="1"/>
</linearGradient>
<linearGradient id="paint3_linear_5200_424249" x1="1.06887" y1="8.85362" x2="1.52613" y2="7.57071" gradientUnits="userSpaceOnUse">
<stop/>
<stop offset="0.1" stop-color="#1D1D1B"/>
<stop offset="0.91" stop-color="#444443"/>
<stop offset="0.95" stop-color="#9D9D9C"/>
<stop offset="0.99" stop-color="#6B6B6B"/>
</linearGradient>
<linearGradient id="paint4_linear_5200_424249" x1="1.67944" y1="12.9961" x2="6.25688" y2="12.9961" gradientUnits="userSpaceOnUse">
<stop stop-color="#979795"/>
<stop offset="0.46" stop-color="#C3C3C2"/>
<stop offset="0.73" stop-color="#D9D9D8"/>
<stop offset="0.84" stop-color="#D6D6D5"/>
<stop offset="0.9" stop-color="#CFCFCD"/>
<stop offset="0.94" stop-color="#C2C2C0"/>
<stop offset="0.98" stop-color="#AFAFAD"/>
<stop offset="1" stop-color="#A4A4A2"/>
</linearGradient>
<linearGradient id="paint5_linear_5200_424249" x1="1.9364" y1="13.001" x2="5.96933" y2="13.001" gradientUnits="userSpaceOnUse">
<stop stop-color="#979795"/>
<stop offset="0.07" stop-color="#ADADAB"/>
<stop offset="0.17" stop-color="#C6C6C4"/>
<stop offset="0.27" stop-color="#D7D7D6"/>
<stop offset="0.37" stop-color="#E2E2E1"/>
<stop offset="0.49" stop-color="#E6E6E5"/>
<stop offset="0.69" stop-color="#E3E3E2"/>
<stop offset="0.79" stop-color="#DCDCDA"/>
<stop offset="0.87" stop-color="#CECECD"/>
<stop offset="0.94" stop-color="#BCBCBA"/>
<stop offset="1" stop-color="#A4A4A2"/>
</linearGradient>
<linearGradient id="paint6_linear_5200_424249" x1="4.37949" y1="13.4311" x2="5.33763" y2="13.4311" gradientUnits="userSpaceOnUse">
<stop stop-color="white"/>
<stop offset="1" stop-color="#1D1D1B"/>
</linearGradient>
<linearGradient id="paint7_linear_5200_424249" x1="4.56519" y1="0.0088478" x2="5.15332" y2="0.0088478" gradientUnits="userSpaceOnUse">
<stop stop-color="white"/>
<stop offset="1" stop-color="#1D1D1B"/>
</linearGradient>
<linearGradient id="paint8_linear_5200_424249" x1="2.48257" y1="13.1543" x2="4.13872" y2="13.1543" gradientUnits="userSpaceOnUse">
<stop stop-color="white"/>
<stop offset="1" stop-color="#1D1D1B"/>
</linearGradient>
<linearGradient id="paint9_linear_5200_424249" x1="1.89758" y1="12.5098" x2="2.55358" y2="12.5098" gradientUnits="userSpaceOnUse">
<stop stop-color="#C30000"/>
<stop offset="1" stop-color="#FFA300"/>
</linearGradient>
<linearGradient id="paint10_linear_5200_424249" x1="1.90564" y1="12.8245" x2="6.09691" y2="12.8245" gradientUnits="userSpaceOnUse">
<stop stop-color="white"/>
<stop offset="0.06" stop-color="#DADAD9"/>
<stop offset="0.14" stop-color="#AEAEAD"/>
<stop offset="0.23" stop-color="#878785"/>
<stop offset="0.32" stop-color="#666664"/>
<stop offset="0.41" stop-color="#4B4B49"/>
<stop offset="0.52" stop-color="#363634"/>
<stop offset="0.64" stop-color="#282826"/>
<stop offset="0.78" stop-color="#1F1F1D"/>
<stop offset="1" stop-color="#1D1D1B"/>
</linearGradient>
<linearGradient id="paint11_linear_5200_424249" x1="9.98289" y1="14.7351" x2="9.98289" y2="13.024" gradientUnits="userSpaceOnUse">
<stop stop-color="#3D3D3D"/>
<stop offset="0.11" stop-color="#38393A"/>
<stop offset="0.56" stop-color="#2B2E32"/>
<stop offset="0.99" stop-color="#1B1D20"/>
</linearGradient>
<linearGradient id="paint12_linear_5200_424249" x1="2.48257" y1="6.4173" x2="17.5188" y2="6.4173" gradientUnits="userSpaceOnUse">
<stop stop-color="#191C20"/>
<stop offset="0.06" stop-color="#24262A"/>
<stop offset="0.18" stop-color="#333639"/>
<stop offset="0.31" stop-color="#3D3F42"/>
<stop offset="0.5" stop-color="#404245"/>
<stop offset="0.69" stop-color="#3D3F42"/>
<stop offset="0.82" stop-color="#333639"/>
<stop offset="0.94" stop-color="#24272A"/>
<stop offset="1" stop-color="#191C20"/>
</linearGradient>
<linearGradient id="paint13_linear_5200_424249" x1="2.71204" y1="6.53997" x2="17.2878" y2="6.53997" gradientUnits="userSpaceOnUse">
<stop stop-color="#637771"/>
<stop offset="0.99" stop-color="#93A19D"/>
<stop offset="1" stop-color="#93A19D"/>
</linearGradient>
<linearGradient id="paint14_linear_5200_424249" x1="18.4657" y1="7.56196" x2="18.881" y2="8.69622" gradientUnits="userSpaceOnUse">
<stop offset="0.01" stop-color="#6B6B6B"/>
<stop offset="0.05" stop-color="#9D9D9C"/>
<stop offset="0.09" stop-color="#444443"/>
<stop offset="0.9" stop-color="#1D1D1B"/>
<stop offset="0.99"/>
</linearGradient>
<linearGradient id="paint15_linear_5200_424249" x1="18.3219" y1="12.9945" x2="13.7445" y2="12.9945" gradientUnits="userSpaceOnUse">
<stop stop-color="#979795"/>
<stop offset="0.46" stop-color="#C3C3C2"/>
<stop offset="0.73" stop-color="#D9D9D8"/>
<stop offset="0.84" stop-color="#D6D6D5"/>
<stop offset="0.9" stop-color="#CFCFCD"/>
<stop offset="0.94" stop-color="#C2C2C0"/>
<stop offset="0.98" stop-color="#AFAFAD"/>
<stop offset="1" stop-color="#A4A4A2"/>
</linearGradient>
<linearGradient id="paint16_linear_5200_424249" x1="18.0634" y1="12.9994" x2="14.0305" y2="12.9994" gradientUnits="userSpaceOnUse">
<stop stop-color="#979795"/>
<stop offset="0.07" stop-color="#ADADAB"/>
<stop offset="0.17" stop-color="#C6C6C4"/>
<stop offset="0.27" stop-color="#D7D7D6"/>
<stop offset="0.37" stop-color="#E2E2E1"/>
<stop offset="0.49" stop-color="#E6E6E5"/>
<stop offset="0.69" stop-color="#E3E3E2"/>
<stop offset="0.79" stop-color="#DCDCDA"/>
<stop offset="0.87" stop-color="#CECECD"/>
<stop offset="0.94" stop-color="#BCBCBA"/>
<stop offset="1" stop-color="#A4A4A2"/>
</linearGradient>
<linearGradient id="paint17_linear_5200_424249" x1="15.6204" y1="13.4295" x2="14.6622" y2="13.4295" gradientUnits="userSpaceOnUse">
<stop stop-color="white"/>
<stop offset="1" stop-color="#1D1D1B"/>
</linearGradient>
<linearGradient id="paint18_linear_5200_424249" x1="15.4362" y1="13.4296" x2="14.8464" y2="13.4296" gradientUnits="userSpaceOnUse">
<stop stop-color="white"/>
<stop offset="1" stop-color="#1D1D1B"/>
</linearGradient>
<linearGradient id="paint19_linear_5200_424249" x1="17.519" y1="13.1543" x2="15.8628" y2="13.1543" gradientUnits="userSpaceOnUse">
<stop stop-color="white"/>
<stop offset="1" stop-color="#1D1D1B"/>
</linearGradient>
<linearGradient id="paint20_linear_5200_424249" x1="18.1022" y1="12.5098" x2="17.4462" y2="12.5098" gradientUnits="userSpaceOnUse">
<stop stop-color="#C30000"/>
<stop offset="1" stop-color="#FFA300"/>
</linearGradient>
<linearGradient id="paint21_linear_5200_424249" x1="18.0941" y1="12.8229" x2="13.9028" y2="12.8229" gradientUnits="userSpaceOnUse">
<stop stop-color="white"/>
<stop offset="0.06" stop-color="#DADAD9"/>
<stop offset="0.14" stop-color="#AEAEAD"/>
<stop offset="0.23" stop-color="#878785"/>
<stop offset="0.32" stop-color="#666664"/>
<stop offset="0.41" stop-color="#4B4B49"/>
<stop offset="0.52" stop-color="#363634"/>
<stop offset="0.64" stop-color="#282826"/>
<stop offset="0.78" stop-color="#1F1F1D"/>
<stop offset="1" stop-color="#1D1D1B"/>
</linearGradient>
<linearGradient id="paint22_linear_5200_424249" x1="9.98301" y1="14.0211" x2="9.98301" y2="13.5267" gradientUnits="userSpaceOnUse">
<stop offset="0.01" stop-color="#6B6B6B"/>
<stop offset="0.05" stop-color="#9D9D9C"/>
<stop offset="0.09" stop-color="#444443"/>
<stop offset="0.9" stop-color="#1D1D1B"/>
<stop offset="0.96" stop-color="#3C3C3B"/>
<stop offset="0.99"/>
</linearGradient>
<linearGradient id="paint23_linear_5200_424249" x1="9.98289" y1="13.5071" x2="9.98289" y2="13.0127" gradientUnits="userSpaceOnUse">
<stop offset="0.01" stop-color="#6B6B6B"/>
<stop offset="0.05" stop-color="#9D9D9C"/>
<stop offset="0.09" stop-color="#444443"/>
<stop offset="0.9" stop-color="#1D1D1B"/>
<stop offset="0.96" stop-color="#3C3C3B"/>
<stop offset="0.99"/>
</linearGradient>
<linearGradient id="paint24_linear_5200_424249" x1="9.98292" y1="14.5305" x2="9.98292" y2="14.0377" gradientUnits="userSpaceOnUse">
<stop offset="0.01" stop-color="#6B6B6B"/>
<stop offset="0.05" stop-color="#9D9D9C"/>
<stop offset="0.09" stop-color="#444443"/>
<stop offset="0.9" stop-color="#1D1D1B"/>
<stop offset="0.96" stop-color="#3C3C3B"/>
<stop offset="0.99"/>
</linearGradient>
<radialGradient id="paint25_radial_5200_424249" cx="0" cy="0" r="1" gradientUnits="userSpaceOnUse" gradientTransform="translate(9.94735 14.7755) scale(3.86166)">
<stop stop-color="white"/>
<stop offset="0.21" stop-color="#FCFCFC"/>
<stop offset="0.35" stop-color="#F3F3F3"/>
<stop offset="0.47" stop-color="#E4E4E4"/>
<stop offset="0.59" stop-color="#CECFCF"/>
<stop offset="0.69" stop-color="#B2B3B4"/>
<stop offset="0.79" stop-color="#909193"/>
<stop offset="0.88" stop-color="#68696B"/>
<stop offset="0.96" stop-color="#3A3C3F"/>
<stop offset="0.99" stop-color="#2A2C2F"/>
</radialGradient>
<linearGradient id="paint26_linear_5200_424249" x1="1.89602" y1="9.24703" x2="5.03867" y2="9.24703" gradientUnits="userSpaceOnUse">
<stop stop-color="#BFC3C3"/>
<stop offset="0.1" stop-color="#D0D3D3"/>
<stop offset="0.26" stop-color="#E4E6E6"/>
<stop offset="0.45" stop-color="#F3F4F4"/>
<stop offset="0.66" stop-color="#FCFCFC"/>
<stop offset="1" stop-color="white"/>
</linearGradient>
<linearGradient id="paint27_linear_5200_424249" x1="18.1022" y1="9.24703" x2="15.0807" y2="9.24703" gradientUnits="userSpaceOnUse">
<stop stop-color="#BFC3C3"/>
<stop offset="0.1" stop-color="#D0D3D3"/>
<stop offset="0.26" stop-color="#E4E6E6"/>
<stop offset="0.45" stop-color="#F3F4F4"/>
<stop offset="0.66" stop-color="#FCFCFC"/>
<stop offset="1" stop-color="white"/>
</linearGradient>
<linearGradient id="paint28_linear_5200_424249" x1="10.0007" y1="16.3318" x2="10.0007" y2="15.469" gradientUnits="userSpaceOnUse">
<stop stop-color="#808080"/>
<stop offset="0.31" stop-color="#686A6B"/>
<stop offset="0.55" stop-color="#5B5D60"/>
<stop offset="0.99" stop-color="#2A2C2F"/>
</linearGradient>
<linearGradient id="paint29_linear_5200_424249" x1="10.0007" y1="18.2961" x2="10.0007" y2="15.0905" gradientUnits="userSpaceOnUse">
<stop/>
<stop offset="0.1" stop-color="#1D1D1B"/>
<stop offset="0.91" stop-color="#444443"/>
<stop offset="0.95" stop-color="#9D9D9C"/>
<stop offset="0.99" stop-color="#6B6B6B"/>
</linearGradient>
<linearGradient id="paint30_linear_5200_424249" x1="4.55241" y1="17.3939" x2="4.55241" y2="16.5651" gradientUnits="userSpaceOnUse">
<stop stop-color="#808080"/>
<stop offset="0.31" stop-color="#686A6B"/>
<stop offset="0.55" stop-color="#5B5D60"/>
<stop offset="0.99" stop-color="#2A2C2F"/>
</linearGradient>
<linearGradient id="paint31_linear_5200_424249" x1="9.9991" y1="16.3318" x2="9.9991" y2="15.469" gradientUnits="userSpaceOnUse">
<stop stop-color="#3C3C3B"/>
<stop offset="0.05" stop-color="#9D9D9C"/>
<stop offset="0.09" stop-color="#1D1D1B"/>
<stop offset="0.96" stop-color="#3C3C3B"/>
<stop offset="0.99"/>
</linearGradient>
<linearGradient id="paint32_linear_5200_424249" x1="15.4473" y1="17.3939" x2="15.4473" y2="16.5651" gradientUnits="userSpaceOnUse">
<stop stop-color="#808080"/>
<stop offset="0.31" stop-color="#686A6B"/>
<stop offset="0.55" stop-color="#5B5D60"/>
<stop offset="0.99" stop-color="#2A2C2F"/>
</linearGradient>
<linearGradient id="paint33_linear_5200_424249" x1="9.99905" y1="15.9664" x2="9.99905" y2="15.472" gradientUnits="userSpaceOnUse">
<stop offset="0.01" stop-color="#6B6B6B"/>
<stop offset="0.05" stop-color="#9D9D9C"/>
<stop offset="0.09" stop-color="#444443"/>
<stop offset="0.9" stop-color="#1D1D1B"/>
<stop offset="0.96" stop-color="#3C3C3B"/>
<stop offset="0.99"/>
</linearGradient>
<radialGradient id="paint34_radial_5200_424249" cx="0" cy="0" r="1" gradientUnits="userSpaceOnUse" gradientTransform="translate(9.92801 16.411) rotate(180) scale(3.02793 3.02793)">
<stop stop-color="white"/>
<stop offset="0.21" stop-color="#FCFCFC"/>
<stop offset="0.35" stop-color="#F3F3F3"/>
<stop offset="0.47" stop-color="#E4E4E4"/>
<stop offset="0.59" stop-color="#CECFCF"/>
<stop offset="0.69" stop-color="#B2B3B4"/>
<stop offset="0.79" stop-color="#909193"/>
<stop offset="0.88" stop-color="#68696B"/>
<stop offset="0.96" stop-color="#3A3C3F"/>
<stop offset="0.99" stop-color="#2A2C2F"/>
</radialGradient>
<linearGradient id="paint35_linear_5200_424249" x1="18.1005" y1="16.7175" x2="17.1392" y2="16.7175" gradientUnits="userSpaceOnUse">
<stop stop-color="#7C8585"/>
<stop offset="0.14" stop-color="#9EA5A5"/>
<stop offset="0.31" stop-color="#C1C5C5"/>
<stop offset="0.47" stop-color="#DCDEDE"/>
<stop offset="0.65" stop-color="#EFF0F0"/>
<stop offset="0.82" stop-color="#FBFBFB"/>
<stop offset="1" stop-color="white"/>
</linearGradient>
<linearGradient id="paint36_linear_5200_424249" x1="1.87998" y1="16.7192" x2="2.76864" y2="16.7192" gradientUnits="userSpaceOnUse">
<stop stop-color="#7C8585"/>
<stop offset="0.14" stop-color="#9EA5A5"/>
<stop offset="0.31" stop-color="#C1C5C5"/>
<stop offset="0.47" stop-color="#DCDEDE"/>
<stop offset="0.65" stop-color="#EFF0F0"/>
<stop offset="0.82" stop-color="#FBFBFB"/>
<stop offset="1" stop-color="white"/>
</linearGradient>
<linearGradient id="paint37_linear_5200_424249" x1="2.44857" y1="3.57667" x2="3.30654" y2="3.57667" gradientUnits="userSpaceOnUse">
<stop stop-color="#191C20"/>
<stop offset="0.06" stop-color="#24262A"/>
<stop offset="0.18" stop-color="#333639"/>
<stop offset="0.31" stop-color="#3D3F42"/>
<stop offset="0.5" stop-color="#404245"/>
<stop offset="0.69" stop-color="#3D3F42"/>
<stop offset="0.82" stop-color="#333639"/>
<stop offset="0.94" stop-color="#24272A"/>
<stop offset="1" stop-color="#191C20"/>
</linearGradient>
<linearGradient id="paint38_linear_5200_424249" x1="17.5252" y1="3.57667" x2="16.6672" y2="3.57667" gradientUnits="userSpaceOnUse">
<stop stop-color="#191C20"/>
<stop offset="0.06" stop-color="#24262A"/>
<stop offset="0.18" stop-color="#333639"/>
<stop offset="0.31" stop-color="#3D3F42"/>
<stop offset="0.5" stop-color="#404245"/>
<stop offset="0.69" stop-color="#3D3F42"/>
<stop offset="0.82" stop-color="#333639"/>
<stop offset="0.94" stop-color="#24272A"/>
<stop offset="1" stop-color="#191C20"/>
</linearGradient>
<linearGradient id="paint39_linear_5200_424249" x1="13.4827" y1="6.48504" x2="16.6899" y2="6.48504" gradientUnits="userSpaceOnUse">
<stop stop-color="#808080"/>
<stop offset="0.2" stop-color="#AAAAAA"/>
<stop offset="0.39" stop-color="#CFCFCF"/>
<stop offset="0.58" stop-color="#E9E9E9"/>
<stop offset="0.75" stop-color="#F9F9F9"/>
<stop offset="0.88" stop-color="white"/>
</linearGradient>
<linearGradient id="paint40_linear_5200_424249" x1="5.9209" y1="6.53674" x2="10.4353" y2="6.53674" gradientUnits="userSpaceOnUse">
<stop offset="0.12" stop-color="white"/>
<stop offset="0.25" stop-color="#F9F9F9"/>
<stop offset="0.42" stop-color="#E9E9E9"/>
<stop offset="0.61" stop-color="#CFCFCF"/>
<stop offset="0.8" stop-color="#AAAAAA"/>
<stop offset="1" stop-color="#808080"/>
</linearGradient>
<linearGradient id="paint41_linear_5200_424249" x1="3.2583" y1="6.47534" x2="5.55752" y2="6.47534" gradientUnits="userSpaceOnUse">
<stop stop-color="#808080"/>
<stop offset="0.2" stop-color="#AAAAAA"/>
<stop offset="0.39" stop-color="#CFCFCF"/>
<stop offset="0.58" stop-color="#E9E9E9"/>
<stop offset="0.75" stop-color="#F9F9F9"/>
<stop offset="0.88" stop-color="white"/>
</linearGradient>
</defs>
</svg>
