<svg width="24" height="24" viewBox="0 0 24 24" fill="none" xmlns="http://www.w3.org/2000/svg">
<rect width="24" height="24" rx="4" fill="#258910"/>
<path d="M11.6763 11.5556L12.343 11.5604C13.4251 11.5604 14.3092 12.3237 14.314 13.2658C14.314 14.1498 13.5217 14.8696 12.5217 14.9517V16.5315H11.6039V14.9663H9.98551V14.0483H12.343C12.9131 14.0483 13.3961 13.6909 13.3961 13.2658C13.3961 12.8406 12.9131 12.4831 12.343 12.4831L11.6763 12.4783C10.5942 12.4783 9.71015 11.715 9.71015 10.7778C9.71015 9.85989 10.5556 9.11592 11.6039 9.0821V7.47349H12.5217V9.07243H14.0193V9.99038H11.6763C11.1063 9.99038 10.6232 10.3478 10.6232 10.7729C10.6232 11.1981 11.1063 11.5556 11.6763 11.5556Z" fill="#FAFAFA"/>
<path fill-rule="evenodd" clip-rule="evenodd" d="M5 12C5 8.14009 8.14009 5 12 5C15.8599 5 19 8.14009 19 12C19 15.8599 15.8599 19 12 19C8.14009 19 5 15.8599 5 12ZM5.91789 12C5.91789 15.3527 8.64734 18.0822 12 18.0822C15.3527 18.0822 18.0821 15.3527 18.0821 12C18.0821 8.64734 15.3527 5.91795 12 5.91795C8.64734 5.91795 5.91789 8.64734 5.91789 12Z" fill="#FAFAFA"/>
</svg>
