<svg width="30" height="30" viewBox="0 0 30 30" fill="none" xmlns="http://www.w3.org/2000/svg">
  <rect x="0.5" y="0.5" width="29" height="29" rx="3.5" fill="white"/>
  <rect x="0.5" y="0.5" width="29" height="29" rx="3.5" fill="url(#paint0_linear_144_48996)" fill-opacity="0.25"/>
  <rect x="0.5" y="0.5" width="29" height="29" rx="3.5" stroke="#C3D7E0"/>
  <path d="M10.1364 16.8324L10.1126 16.0419L21.1971 15.7255L22.1347 10.8093H9.43678V10.0185H22.4345C22.6058 10.0185 22.7629 10.093 22.8724 10.2186C22.9771 10.3395 23.0199 10.4976 22.9914 10.6558L21.9824 15.9581C21.9205 16.279 21.6207 16.5163 21.278 16.5163L10.1364 16.8324Z" fill="#D53711"/>
  <path d="M18.7365 19.2697H12.5637C10.9645 19.2697 9.66523 18 9.66523 16.4372L8.92277 8.79056H7V8H9.66046L10.4791 16.4C10.4791 17.5628 11.4214 18.4789 12.5732 18.4789H18.746V19.2697H18.7365Z" fill="#D53711"/>
  <path d="M18.7365 22C17.7466 22 16.9375 21.2092 16.9375 20.2417C16.9375 19.2743 17.7466 18.4837 18.7365 18.4837C19.7265 18.4837 20.5355 19.2743 20.5355 20.2417C20.5355 21.2092 19.7265 22 18.7365 22ZM18.7365 19.2697C18.1892 19.2697 17.7466 19.7023 17.7466 20.2372C17.7466 20.7721 18.1892 21.2047 18.7365 21.2047C19.2838 21.2047 19.7265 20.7721 19.7265 20.2372C19.7265 19.7023 19.2791 19.2697 18.7365 19.2697Z" fill="#D53711"/>
  <path d="M13.011 22C12.0211 22 11.212 21.2092 11.212 20.2417C11.212 19.2743 12.0211 18.4837 13.011 18.4837C14.001 18.4837 14.8101 19.2743 14.8101 20.2417C14.8101 21.2092 14.001 22 13.011 22ZM13.011 19.2697C12.4637 19.2697 12.0211 19.7023 12.0211 20.2372C12.0211 20.7721 12.4637 21.2047 13.011 21.2047C13.5583 21.2047 14.001 20.7721 14.001 20.2372C14.001 19.7023 13.5583 19.2697 13.011 19.2697Z" fill="#D53711"/>
  <defs>
    <linearGradient id="paint0_linear_144_48996" x1="15" y1="30" x2="15" y2="-2.02563e-07" gradientUnits="userSpaceOnUse">
      <stop stop-color="#C8DAE3"/>
      <stop offset="1" stop-color="#F0F5F7" stop-opacity="0"/>
    </linearGradient>
  </defs>
</svg>