<svg width="25" height="25" viewBox="0 0 25 25" fill="none" xmlns="http://www.w3.org/2000/svg">
<path fill-rule="evenodd" clip-rule="evenodd" d="M9.11625 8.91931C8.44305 10.0718 7.87773 11.5382 8.79439 13.0217C9.73953 14.5584 10.1574 15.7865 9.27659 17.1302C9.13516 17.3552 9.193 17.6507 9.41806 17.7986C9.47979 17.8366 9.54504 17.8606 9.61125 17.8706C9.62113 17.872 9.63106 17.8732 9.64103 17.8741C9.65457 17.8753 9.66811 17.8758 9.68165 17.8758C9.83595 17.8758 9.99024 17.7987 10.0867 17.6573C10.2423 17.419 10.3663 17.1834 10.4622 16.9503H12.0154C12.1505 16.9503 12.2855 16.8926 12.3819 16.7962C12.4784 16.6997 12.5298 16.5645 12.5298 16.4295L12.4719 12.7841H17.3583V17.4646H18.387V12.2699C18.387 11.987 18.1555 11.7553 17.8727 11.7553H11.9512C11.9228 11.7553 11.8944 11.7579 11.8664 11.7628L11.8485 11.7663C11.8404 11.768 11.8323 11.77 11.8243 11.7721C11.7871 11.7819 11.751 11.796 11.7167 11.8136C11.6994 11.8225 11.6826 11.8323 11.6664 11.8431C11.6444 11.8577 11.6235 11.8738 11.6039 11.8915C11.6003 11.8948 11.5967 11.8981 11.5931 11.9015L11.5847 11.9098C11.4882 12.0062 11.4368 12.1412 11.4368 12.2761L11.4947 15.9216H10.7161C10.822 14.7161 10.275 13.5835 9.61737 12.5138C9.06441 11.6113 9.1837 10.6647 10.0435 9.24581C10.2818 9.13397 10.4467 8.89192 10.4467 8.61126C10.4467 8.59039 10.4458 8.56982 10.444 8.54942C11.9191 8.14656 13.0256 6.42713 13.0763 4.89529C13.1342 3.11433 11.7262 1.62258 9.94519 1.56474C9.07724 1.53256 8.26069 1.84783 7.63063 2.43937C7.00056 3.03082 6.64047 3.83434 6.61477 4.69594C6.58907 5.54458 6.89766 6.50271 7.43771 7.26142C7.89037 7.89321 8.44674 8.32433 9.05107 8.51952C9.04714 8.54957 9.0451 8.58018 9.0451 8.61126C9.0451 8.72177 9.07069 8.82639 9.11625 8.91931ZM8.33784 3.18496C8.74934 2.79914 9.27655 2.58723 9.84234 2.58723H9.91306C11.1282 2.62577 12.0862 3.64151 12.0476 4.85667C12.009 6.0975 10.9418 7.66004 9.75876 7.60863C8.59504 7.57002 7.60488 5.96251 7.64346 4.72168C7.66277 4.13658 7.90709 3.58994 8.33784 3.18496Z" fill="#1D1F24"/>
<path fill-rule="evenodd" clip-rule="evenodd" d="M14.9087 10.8233C13.5843 10.8233 12.5041 9.743 12.5041 8.41851C12.5041 7.09401 13.5843 6.01407 14.9087 6.01407C16.2332 6.01407 17.3133 7.09401 17.3133 8.41851C17.3133 9.743 16.2332 10.8233 14.9087 10.8233ZM14.9087 7.03625C14.15 7.03625 13.5328 7.65352 13.5328 8.41223C13.5328 9.17093 14.15 9.78789 14.9087 9.78789C15.6674 9.78789 16.2846 9.17093 16.2846 8.41223C16.2846 7.65352 15.6674 7.03625 14.9087 7.03625Z" fill="#1D1F24"/>
<path d="M13.0763 18.1527H14.105V23.4375H13.0763V18.1527Z" fill="#1D1F24"/>
<path d="M16.7411 18.1527H15.7124V23.4375H16.7411V18.1527Z" fill="#1D1F24"/>
</svg>
