<svg width="12" height="112" viewBox="0 0 12 112" fill="none" xmlns="http://www.w3.org/2000/svg">
<path d="M6 1.5C3.51472 1.5 1.5 3.51472 1.5 6V60C1.5 62.4853 3.51472 64.5 6 64.5C8.48528 64.5 10.5 62.4853 10.5 60V6C10.5 3.51472 8.48528 1.5 6 1.5Z" fill="#E3E7F2"/>
<path d="M6 1.5C3.51472 1.5 1.5 3.51472 1.5 6V60C1.5 62.4853 3.51472 64.5 6 64.5C8.48528 64.5 10.5 62.4853 10.5 60V6C10.5 3.51472 8.48528 1.5 6 1.5Z" stroke="#E3E7F2" stroke-width="3"/>
<rect x="1.5" y="1.5" width="9" height="9" rx="4.5" fill="#9999B3" stroke="#E3E7F2" stroke-width="3"/>
<rect x="1.5" y="11.5" width="9" height="9" rx="4.5" fill="#9999B3" stroke="#E3E7F2" stroke-width="3"/>
<rect x="1.5" y="21.5" width="9" height="9" rx="4.5" fill="#9999B3" stroke="#E3E7F2" stroke-width="3"/>
<rect x="1.5" y="31.5" width="9" height="9" rx="4.5" fill="#9999B3" stroke="#E3E7F2" stroke-width="3"/>
<rect x="1.5" y="41.5" width="9" height="9" rx="4.5" fill="#9999B3" stroke="#E3E7F2" stroke-width="3"/>
<rect x="1.5" y="51.5" width="9" height="9" rx="4.5" fill="#9999B3" stroke="#E3E7F2" stroke-width="3"/>
<rect x="1.5" y="61.5" width="9" height="9" rx="4.5" fill="#9999B3" stroke="#E3E7F2" stroke-width="3"/>
<rect x="1.5" y="71.5" width="9" height="9" rx="4.5" fill="#9999B3" stroke="#E3E7F2" stroke-width="3"/>
<rect x="1.5" y="81.5" width="9" height="9" rx="4.5" fill="#9999B3" stroke="#E3E7F2" stroke-width="3"/>
<rect x="1.5" y="91.5" width="9" height="9" rx="4.5" fill="#9999B3" stroke="#E3E7F2" stroke-width="3"/>
<rect x="1.5" y="101.5" width="9" height="9" rx="4.5" fill="#9999B3" stroke="#E3E7F2" stroke-width="3"/>
</svg>
