<svg width="16" height="16" viewBox="0 0 16 16" fill="none" xmlns="http://www.w3.org/2000/svg">
<path d="M11.6337 7.60204C12.2584 6.97282 12.4382 6.10538 12.4382 5.31886V4.9368H11.0719V3.8628H10.3079V4.9368H8.93709V5.70093H11.6562C11.5259 7.08518 10.6539 7.73678 8.93709 7.73678V8.50092C9.78653 8.50092 10.4337 8.34807 10.9281 8.10086C11.3371 8.34807 11.7461 8.47853 12.1371 8.48753L12.5326 8.49653L12.5506 7.7324L12.1596 7.7234C11.9933 7.7234 11.818 7.67846 11.6337 7.60204Z" fill="#FAFAFA"/>
<path fill-rule="evenodd" clip-rule="evenodd" d="M6.35282 7.81359H4.71686L4.41574 8.65848H3.60676L5.24272 4.05175L5.80002 4.04714L5.88989 4.32145L7.47641 8.65848H6.66293L6.35282 7.81359ZM6.07417 7.04946L5.52137 5.5438L4.98651 7.04946H6.07417Z" fill="#FAFAFA"/>
<path fill-rule="evenodd" clip-rule="evenodd" d="M12.982 1.83594H3.01797C1.90337 1.83594 1 2.73942 1 3.85402V9.21567C1 10.3303 1.90337 11.2338 3.01797 11.2338H5.13931L5.1573 13.6473C5.1573 13.854 5.28316 14.0428 5.47191 14.1237C5.53934 14.1507 5.60674 14.1641 5.67866 14.1641C5.80899 14.1641 5.93932 14.1146 6.03818 14.0247L9.08088 11.1754L12.9595 11.2158C13.5079 11.2293 14.0157 11.0136 14.4022 10.6316C14.7887 10.2496 15 9.74148 15 9.19768V3.85402C15 2.73942 14.0966 1.83594 12.982 1.83594ZM14.236 9.19768C14.236 9.53476 14.1056 9.85406 13.8629 10.0878C13.6202 10.326 13.3236 10.4516 12.9685 10.4516L8.78427 10.4069L5.91685 13.0899L5.89438 10.4696H3.01797C2.32585 10.4696 1.76405 9.90782 1.76405 9.21567V3.85402C1.76405 3.16187 2.32585 2.60007 3.01797 2.60007H12.982C13.6742 2.60007 14.236 3.16187 14.236 3.85402V9.19768Z" fill="#FAFAFA"/>
</svg>
