<svg width="30" height="30" viewBox="0 0 30 30" fill="none" xmlns="http://www.w3.org/2000/svg">
  <rect x="0.5" y="0.5" width="29" height="29" rx="3.5" fill="white"/>
  <rect x="0.5" y="0.5" width="29" height="29" rx="3.5" fill="url(#paint0_linear_144_49005)" fill-opacity="0.25"/>
  <rect x="0.5" y="0.5" width="29" height="29" rx="3.5" stroke="#C3D7E0"/>
  <g clip-path="url(#clip0_144_49005)">
    <path d="M15.08 23.7372L14.7979 23.5617C14.6475 23.4677 11.1182 21.2737 9.46328 19.9196C7.54507 18.3462 5 15.9015 5 12.7985C5 9.69551 7.60149 7 10.7985 7C12.4346 7 13.9893 7.69582 15.0863 8.89313C16.177 7.69582 17.7316 7 19.3678 7C22.5648 7 25.1663 9.60148 25.1663 12.7985C25.1663 15.9955 22.6212 18.3462 20.703 19.9196C19.0481 21.2799 15.5125 23.474 15.3684 23.5617L15.0863 23.7372H15.08ZM10.7985 8.06567C8.19075 8.06567 6.06567 10.1845 6.06567 12.7985C6.06567 15.4125 8.39134 17.6629 10.1403 19.0922C11.4818 20.1892 14.2024 21.9256 15.08 22.4772C15.9576 21.9256 18.6845 20.1892 20.0197 19.0922C21.7687 17.6567 24.0943 15.4501 24.0943 12.7985C24.0943 10.1469 21.9693 8.06567 19.3615 8.06567C17.8445 8.06567 16.4027 8.80537 15.5125 10.0528L15.08 10.6609L14.6475 10.0528C13.7573 8.81163 12.3155 8.06567 10.7922 8.06567H10.7985Z" fill="#5F2167"/>
  </g>
  <defs>
    <linearGradient id="paint0_linear_144_49005" x1="15" y1="30" x2="15" y2="-2.02563e-07" gradientUnits="userSpaceOnUse">
      <stop stop-color="#C8DAE3"/>
      <stop offset="1" stop-color="#F0F5F7" stop-opacity="0"/>
    </linearGradient>
    <clipPath id="clip0_144_49005">
      <rect width="20.16" height="16.7372" fill="white" transform="translate(5 7)"/>
    </clipPath>
  </defs>
</svg>