<svg width="49" height="49" viewBox="0 0 49 49" fill="none" xmlns="http://www.w3.org/2000/svg">
<rect x="0.612441" y="0.612441" width="47.7704" height="47.7704" rx="4.28709" fill="white"/>
<rect x="0.612441" y="0.612441" width="47.7704" height="47.7704" rx="4.28709" fill="url(#paint0_linear_144_52455)" fill-opacity="0.25"/>
<rect x="0.612441" y="0.612441" width="47.7704" height="47.7704" rx="4.28709" stroke="#C3D7E0" stroke-width="1.22488"/>
<path d="M29.1833 18.4434H18.6648C18.499 18.4434 18.3675 18.5749 18.3732 18.7406L18.4818 29.5735C18.4818 29.7336 18.619 29.8651 18.7791 29.8651L19.7566 29.8536C19.9167 29.8536 20.0481 29.7221 20.0481 29.5564L19.951 20.1526C19.951 20.0726 20.0139 20.004 20.0996 20.004H27.777C27.857 20.004 27.9256 20.0669 27.9256 20.1526V29.5678C27.9256 29.7279 28.0571 29.8594 28.2172 29.8594H29.1947C29.3547 29.8594 29.4862 29.7279 29.4862 29.5678V18.7406C29.4748 18.5749 29.3434 18.4434 29.1833 18.4434Z" fill="#622366"/>
<path d="M22.5874 29.3418H21.6099C21.4498 29.3418 21.3184 29.4733 21.3184 29.6333V39.5687C21.3184 39.7288 21.4498 39.8602 21.6099 39.8602H22.5874C22.7475 39.8602 22.879 39.7288 22.879 39.5687V29.6333C22.879 29.4733 22.7475 29.3418 22.5874 29.3418Z" fill="#622366"/>
<path d="M26.2417 29.3418H25.2641C25.1041 29.3418 24.9727 29.4733 24.9727 29.6333V39.5687C24.9727 39.7288 25.1041 39.8602 25.2641 39.8602H26.2417C26.4018 39.8602 26.5333 39.7288 26.5333 39.5687V29.6333C26.5333 29.4733 26.4018 29.3418 26.2417 29.3418Z" fill="#622366"/>
<path d="M23.9251 9.80078C21.7985 9.80078 20.0664 11.5329 20.0664 13.6595C20.0664 15.786 21.7985 17.5182 23.9251 17.5182C26.0517 17.5182 27.7838 15.786 27.7838 13.6595C27.7838 11.5329 26.0517 9.80078 23.9251 9.80078ZM26.2803 13.6595C26.2803 14.9571 25.2228 16.0148 23.9251 16.0148C22.6274 16.0148 21.5699 14.9571 21.5699 13.6595C21.5699 12.3618 22.6274 11.3043 23.9251 11.3043C25.2285 11.3043 26.2803 12.3618 26.2803 13.6595Z" fill="#622366"/>
<defs>
<linearGradient id="paint0_linear_144_52455" x1="24.4977" y1="48.9953" x2="24.4977" y2="-3.3082e-07" gradientUnits="userSpaceOnUse">
<stop stop-color="#C8DAE3"/>
<stop offset="1" stop-color="#F0F5F7" stop-opacity="0"/>
</linearGradient>
</defs>
</svg>
