<svg width="49" height="50" viewBox="0 0 49 50" fill="none" xmlns="http://www.w3.org/2000/svg">
<rect x="0.612441" y="1.12416" width="47.7704" height="47.7704" rx="4.28709" fill="white"/>
<rect x="0.612441" y="1.12416" width="47.7704" height="47.7704" rx="4.28709" fill="url(#paint0_linear_144_52462)" fill-opacity="0.25"/>
<rect x="0.612441" y="1.12416" width="47.7704" height="47.7704" rx="4.28709" stroke="#C3D7E0" stroke-width="1.22488"/>
<path d="M22.8414 29.6377H21.8638C21.7038 29.6377 21.5723 29.7692 21.5723 29.9292V39.8646C21.5723 40.0247 21.7038 40.1561 21.8638 40.1561H22.8414C23.0015 40.1561 23.133 40.0247 23.133 39.8646V29.9292C23.133 29.7692 23.0015 29.6377 22.8414 29.6377Z" fill="#622366"/>
<path d="M26.4995 29.6377H25.522C25.362 29.6377 25.2305 29.7692 25.2305 29.9292V39.8646C25.2305 40.0247 25.362 40.1561 25.522 40.1561H26.4995C26.6596 40.1561 26.7911 40.0247 26.7911 39.8646V29.9292C26.7911 29.7692 26.6596 29.6377 26.4995 29.6377Z" fill="#622366"/>
<path d="M26.5799 19.1245C26.5342 19.0159 26.4256 18.9473 26.3113 18.9473H21.6065C21.4865 18.9473 21.3779 19.0216 21.3322 19.1302L17.1705 29.643C17.0904 29.8373 17.2391 30.0488 17.4449 30.0488H18.4853C18.6054 30.0488 18.714 29.9745 18.754 29.8659L22.424 20.5993C22.4469 20.5421 22.4984 20.5079 22.5612 20.5079H25.3852C25.4424 20.5079 25.4938 20.5421 25.5167 20.5936L29.5869 29.8773C29.6326 29.9859 29.7413 30.0545 29.8556 30.0545L30.9132 30.0488C31.1304 30.0488 31.2733 29.8259 31.1875 29.6315L26.5799 19.1245Z" fill="#622366"/>
<path d="M24.1731 10.3096C22.0466 10.3096 20.3145 12.0417 20.3145 14.1683C20.3145 16.2948 22.0466 18.027 24.1731 18.027C26.2997 18.027 28.0318 16.2948 28.0318 14.1683C28.0318 12.0417 26.2997 10.3096 24.1731 10.3096ZM26.5284 14.1683C26.5284 15.4659 25.4708 16.5236 24.1731 16.5236C22.8755 16.5236 21.8179 15.4659 21.8179 14.1683C21.8179 12.8706 22.8755 11.8131 24.1731 11.8131C25.4708 11.8131 26.5284 12.8706 26.5284 14.1683Z" fill="#622366"/>
<defs>
<linearGradient id="paint0_linear_144_52462" x1="24.4977" y1="49.507" x2="24.4977" y2="0.511718" gradientUnits="userSpaceOnUse">
<stop stop-color="#C8DAE3"/>
<stop offset="1" stop-color="#F0F5F7" stop-opacity="0"/>
</linearGradient>
</defs>
</svg>
