<svg width="114" height="60" viewBox="0 0 114 60" fill="none" xmlns="http://www.w3.org/2000/svg">
<path d="M42.4534 36.1218H84.0938L84.8671 33.6284H39.8933L42.4534 36.1218Z" fill="#007934"/>
<path d="M45.1067 29.0284L47.68 31.5483H85.5068L86.2933 29.0284H45.1067Z" fill="#007934"/>
<path d="M83.9338 27.0418L80.4937 24.7218H50.6002L52.9735 27.0418H83.9338Z" fill="#007934"/>
<path d="M77.1732 22.4817L73.0397 19.7084H53.4532L56.3199 22.4817H77.1732Z" fill="#007934"/>
<path d="M95.9997 0.761719L89.9198 18.9751H71.9866L75.0264 21.0285H105.413L101.973 23.6285H67.4932L69.0799 25.6018L99.3731 25.5885L96.1332 28.0285H61.2931L63.3198 30.0685H93.4663L89.8802 32.7752L54.7332 32.8019L56.7331 34.7619H87.2529L83.7064 37.4552L81.0667 45.9753L95.9997 35.1886L110.92 45.9753L105.586 28.6952L120 18.9751H102.08L95.9997 0.761719Z" fill="#F5B335"/>
<path d="M6.04002 59.1088H0V49.7753H5.93336V50.8687H1.21334V53.8287H5.20002V54.9354H1.21334V58.0154H6.04002V59.1088Z" fill="black"/>
<path d="M12.8667 51.1485C12.8667 51.1485 11.8668 50.7352 10.6534 50.7352C9.72005 50.7352 8.81339 51.0685 8.81339 52.0018C8.81339 53.9885 13.6001 53.3618 13.6001 56.4952C13.6001 57.8952 12.4801 59.2285 10.2401 59.2285C8.69344 59.2285 7.57343 58.5485 7.57343 58.5485V57.3085C7.57343 57.3085 8.8401 58.1485 10.2401 58.1485C11.1601 58.1485 12.3734 57.7752 12.3734 56.5752C12.3734 54.4818 7.60006 55.0818 7.60006 52.0952C7.60006 50.4551 9.01339 49.6284 10.6401 49.6284C12.0935 49.6284 12.8667 50.0285 12.8667 50.0285V51.1485Z" fill="black"/>
<path d="M18.2003 50.8685V59.0953H17.0136V50.8685H14.4136V49.7619H20.8136V50.8685H18.2003Z" fill="black"/>
<path d="M23.6535 54.2821H25.4536C26.6002 54.2821 27.3336 53.4554 27.3336 52.5487C27.3336 51.642 26.6269 50.8553 25.6002 50.8553H23.5602V59.1088H22.3735V49.7753H25.5735C27.3069 49.7753 28.4936 51.002 28.4936 52.5354C28.4936 53.9353 27.3336 55.162 25.8402 55.162L29.2669 59.1088H27.7069L23.6802 54.2953L23.6535 54.2821Z" fill="black"/>
<path d="M36.8138 59.1088H30.7737V49.7753H36.7071V50.8687H31.9871V53.8287H35.9738V54.9354H31.9871V58.0154H36.8138V59.1088Z" fill="black"/>
<path d="M44.0002 57.9886V59.0953H38.3468V49.7619H39.5468V57.9886H44.0002Z" fill="black"/>
<path d="M51.1867 57.9886V59.0953H45.5333V49.7619H46.7333V57.9886H51.1867Z" fill="black"/>
<path d="M64.0673 59.1088V49.7753H66.734C69.8674 49.7753 71.6541 51.722 71.6541 54.442C71.6541 57.162 69.8807 59.1088 66.734 59.1088H64.0673ZM65.734 57.5887H66.7874C68.854 57.5887 69.9874 56.2287 69.9874 54.442C69.9874 52.6554 68.854 51.2953 66.7874 51.2953H65.734V57.5887Z" fill="black"/>
<path d="M79.507 59.1088H73.1872V49.7753H79.4138V51.3487H74.827V53.602H78.6934V55.1754H74.827V57.5487H79.507V59.1088Z" fill="black"/>
<path d="M87.4407 49.6419C90.134 49.6419 92.3071 51.7752 92.3071 54.4285C92.3071 57.0819 90.1472 59.2419 87.4407 59.2419C84.7335 59.2419 82.6007 57.0819 82.6007 54.4285C82.6007 51.7752 84.7738 49.6419 87.4407 49.6419ZM87.4407 57.7086C89.214 57.7086 90.6674 56.2018 90.6674 54.4285C90.6674 52.6552 89.214 51.1751 87.4407 51.1751C85.6674 51.1751 84.2273 52.6552 84.2273 54.4285C84.2273 56.2018 85.6806 57.7086 87.4407 57.7086Z" fill="black"/>
<path d="M106.041 49.6419C108.734 49.6419 110.907 51.7752 110.907 54.4285C110.907 57.0819 108.747 59.2419 106.041 59.2419C103.334 59.2419 101.201 57.0819 101.201 54.4285C101.201 51.7752 103.374 49.6419 106.041 49.6419ZM106.041 57.7086C107.814 57.7086 109.267 56.2018 109.267 54.4285C109.267 52.6552 107.814 51.1751 106.041 51.1751C104.267 51.1751 102.827 52.6552 102.827 54.4285C102.827 56.2018 104.281 57.7086 106.041 57.7086Z" fill="black"/>
<path d="M95.1471 59.1088H93.5199V49.7753H97.0136C98.8404 49.7753 99.9739 51.042 99.9739 52.5753C99.9739 53.9754 99.0671 54.9354 97.9732 55.2687L100.76 59.1088H98.6005L95.3203 54.122H96.6805C97.8272 54.122 98.3738 53.442 98.3738 52.7087C98.3738 51.9753 97.8001 51.2953 96.9872 51.2953H95.1471V59.1088Z" fill="black"/>
<path d="M56.4003 49.4285L52.4136 59.1086H53.707L54.467 57.1486V57.1352L54.8937 56.0419L56.4003 52.1352L57.907 56.0419H54.8937L55.3069 57.1219H58.3203L59.067 59.1086H60.3737L56.4003 49.4285Z" fill="black"/>
<path d="M44.4531 44.3217H43.6931V45.9751H42.4798V40.9484H44.4531C45.5598 40.9484 46.1864 41.7351 46.1864 42.6284C46.1864 43.5217 45.5465 44.3217 44.4531 44.3217ZM43.7064 43.2017H44.3864C44.7865 43.2017 44.9865 42.9485 44.9865 42.6418C44.9865 42.3351 44.7865 42.0951 44.3998 42.0951H43.7064V43.2017Z" fill="#F5B335"/>
<path d="M53.4399 44.8419V45.9885H49.9866V40.9619H51.1999V44.8419H53.4399Z" fill="#F5B335"/>
<path d="M58.0933 43.9352C58.0933 44.5085 58.5066 44.8819 59.0267 44.8819C59.5467 44.8819 59.9467 44.5085 59.9467 43.9352V40.9619H61.1734V43.8819C61.1734 45.4019 60.0266 46.0552 59.04 46.0552C58.0533 46.0552 56.8933 45.4019 56.8933 43.8819V40.9619H58.1066V43.9352H58.0933Z" fill="#F5B335"/>
<path d="M68.3466 42.3883C68.3466 42.3883 67.6932 42.015 66.8933 42.015C66.5732 42.015 66.3333 42.135 66.3333 42.3483C66.3333 42.9216 68.7466 42.815 68.7466 44.4816C68.7466 45.3217 68.0133 46.055 66.7333 46.055C65.8 46.055 65.0933 45.6683 65.0933 45.6683V44.4416C65.0933 44.4416 65.8266 44.9217 66.7333 44.9217C67.0666 44.9217 67.4533 44.8016 67.4533 44.5083C67.4533 43.8283 65.0933 44.0017 65.0933 42.3883C65.0933 41.3749 65.9732 40.8816 66.9066 40.8816C67.7599 40.8816 68.3466 41.1883 68.3466 41.1883V42.3883Z" fill="#F5B335"/>
<path d="M75.6801 42.3883C75.6801 42.3883 75.0264 42.015 74.2267 42.015C73.9069 42.015 73.667 42.135 73.667 42.3483C73.667 42.9216 76.08 42.815 76.08 44.4816C76.08 45.3217 75.3463 46.055 74.0668 46.055C73.1336 46.055 72.4267 45.6683 72.4267 45.6683V44.4416C72.4267 44.4416 73.16 44.9217 74.0668 44.9217C74.3999 44.9217 74.7865 44.8016 74.7865 44.5083C74.7865 43.8283 72.4267 44.0017 72.4267 42.3883C72.4267 41.3749 73.3067 40.8816 74.2399 40.8816C75.0932 40.8816 75.6801 41.1883 75.6801 41.1883V42.3883Z" fill="#F5B335"/>
</svg>
