<svg width="64" height="64" viewBox="0 0 64 64" fill="none" xmlns="http://www.w3.org/2000/svg">
<rect x="0.5" y="0.5" width="63" height="63" rx="31.5" fill="#EBF7F6"/>
<rect x="0.5" y="0.5" width="63" height="63" rx="31.5" stroke="#B9E9E4"/>
<path d="M31.8524 28.7972C32.3557 28.7972 32.7637 28.3892 32.7637 27.8858C32.7637 27.3825 32.3557 26.9744 31.8524 26.9744C31.349 26.9744 30.941 27.3825 30.941 27.8858C30.941 28.3892 31.349 28.7972 31.8524 28.7972Z" fill="#169A8E"/>
<path d="M32.5815 30.8717H31.106V38.2319H32.5815V30.8717Z" fill="#169A8E"/>
<path fill-rule="evenodd" clip-rule="evenodd" d="M18 31.9999C18 39.7246 24.2839 46 32 46C39.7247 46 46 39.7246 46 31.9999C46 24.2751 39.7247 18 32 18C24.2752 18 18 24.2751 18 31.9999ZM19.4755 32.0086C19.4755 25.0998 25.0911 19.4842 32 19.4842C38.9089 19.4842 44.5245 25.0998 44.5245 32.0086C44.5245 38.9174 38.9089 44.533 32 44.533C25.0911 44.533 19.4755 38.9174 19.4755 32.0086Z" fill="#169A8E"/>
</svg>
