<svg width="25" height="25" viewBox="0 0 25 25" fill="none" xmlns="http://www.w3.org/2000/svg">
<path fill-rule="evenodd" clip-rule="evenodd" d="M10.2315 4.64207C10.2315 5.06164 10.3157 5.46183 10.4682 5.82659L8.34481 5.84163V11.936H9.44698V6.93735L11.2455 6.92473C11.7922 7.4198 12.5169 7.72164 13.311 7.72164C14.1195 7.72164 14.8561 7.4088 15.406 6.89774L17.1686 6.88527V15.6897H18.2708V5.77665L16.1682 5.79169C16.3116 5.43634 16.3906 5.04831 16.3906 4.64207C16.3906 2.94345 15.0097 1.5625 13.311 1.5625C11.6124 1.5625 10.2315 2.94345 10.2315 4.64207ZM11.3336 4.63558C11.3336 3.54639 12.2219 2.65822 13.311 2.65822C14.4002 2.65822 15.2884 3.54639 15.2884 4.63558C15.2884 5.72477 14.4002 6.61302 13.311 6.61302C12.2219 6.61302 11.3336 5.72477 11.3336 4.63558Z" fill="#1D1F24"/>
<path d="M7.83264 23.4374H6.73047V12.9798H9.52477V14.082H7.83264V23.4374Z" fill="#1D1F24"/>
<path d="M10.9381 15.2167H12.0403V23.4375H10.9381V15.2167Z" fill="#1D1F24"/>
<path d="M14.5753 15.2167H15.6775V23.4375H14.5753V15.2167Z" fill="#1D1F24"/>
</svg>
