<svg width="16" height="17" viewBox="0 0 16 17" fill="none" xmlns="http://www.w3.org/2000/svg">
<path d="M7.98269 6.83534C8.39579 6.83534 8.7307 6.50046 8.7307 6.08736C8.7307 5.67425 8.39579 5.33937 7.98269 5.33937C7.56959 5.33937 7.2347 5.67425 7.2347 6.08736C7.2347 6.50046 7.56959 6.83534 7.98269 6.83534Z" fill="#5F2167"/>
<path d="M7.63252 10.9302V8.16264H7.27365V7.42774H8.36755V10.9302H9.27119V11.6651H6.72887V10.9302H7.63252Z" fill="#5F2167"/>
<path fill-rule="evenodd" clip-rule="evenodd" d="M1 8.5C1 12.3611 4.13899 15.5 8.00003 15.5C11.8611 15.5 15.0001 12.3567 15.0001 8.5C15.0001 4.63894 11.8611 1.5 8.00003 1.5C4.13899 1.5 1 4.63894 1 8.5ZM1.73503 8.5C1.73503 5.04539 4.54542 2.2349 8.00003 2.2349C11.4546 2.2349 14.265 5.04539 14.265 8.5C14.265 11.9546 11.4546 14.7649 8.00003 14.7649C4.54542 14.7649 1.73503 11.9546 1.73503 8.5Z" fill="#5F2167"/>
</svg>
