<svg width="16" height="17" viewBox="0 0 16 17" fill="none" xmlns="http://www.w3.org/2000/svg">
<path d="M7.92618 6.89861C8.17784 6.89861 8.38185 6.6946 8.38185 6.44291C8.38185 6.19123 8.17784 5.98722 7.92618 5.98722C7.67452 5.98722 7.47051 6.19123 7.47051 6.44291C7.47051 6.6946 7.67452 6.89861 7.92618 6.89861Z" fill="#169A8E"/>
<path d="M8.29075 7.93587H7.55299V11.616H8.29075V7.93587Z" fill="#169A8E"/>
<path fill-rule="evenodd" clip-rule="evenodd" d="M1 8.49995C1 12.3623 4.14197 15.5 8 15.5C11.8624 15.5 15 12.3623 15 8.49995C15 4.63757 11.8624 1.5 8 1.5C4.13762 1.5 1 4.63757 1 8.49995ZM1.73776 8.50429C1.73776 5.04988 4.54556 2.24208 8 2.24208C11.4544 2.24208 14.2622 5.04988 14.2622 8.50429C14.2622 11.9587 11.4544 14.7665 8 14.7665C4.54556 14.7665 1.73776 11.9587 1.73776 8.50429Z" fill="#169A8E"/>
</svg>
