<svg width="24" height="25" viewBox="0 0 24 25" fill="none" xmlns="http://www.w3.org/2000/svg">
<rect x="0.5" y="1" width="23" height="23" rx="3.5" fill="#F6F7FB"/>
<rect x="0.5" y="1" width="23" height="23" rx="3.5" stroke="#E3E7F2"/>
<path d="M12.0218 14.515H10.7418V15.2005H12.0218V14.515Z" fill="#5F2167"/>
<path d="M15.501 14.515H16.7809V15.2005H15.501V14.515Z" fill="#5F2167"/>
<path fill-rule="evenodd" clip-rule="evenodd" d="M15.1602 17.3561H12.3428V18.0021C12.3428 18.2834 12.1129 18.5133 11.8316 18.5133H10.4843C10.203 18.5133 9.97312 18.2834 9.97312 18.0021V17.0044C9.74577 16.7813 9.60457 16.4708 9.60457 16.1277V9.1924L9.20831 9.47859V11.0399H8.52278V9.12591L9.60457 8.34463V7.55655C9.60457 6.87894 10.1554 6.32812 10.833 6.32812H16.6898C17.3674 6.32812 17.9182 6.87894 17.9182 7.55655V8.35L19 9.12591V11.0399H18.3105V9.47859L17.9182 9.19656V16.1277C17.9182 16.4806 17.7687 16.7991 17.5298 17.0234V18.0021C17.5338 18.2834 17.3 18.5133 17.0187 18.5133H15.6714C15.39 18.5133 15.1602 18.2834 15.1602 18.0021V17.3561ZM10.833 17.3561H11.6572V17.8277H10.6586V17.3438C10.6838 17.3474 10.7092 17.3502 10.7348 17.3523C10.7672 17.3548 10.7999 17.3561 10.833 17.3561ZM15.8457 17.3561V17.8277H16.8443V17.3465C16.823 17.3492 16.8016 17.3513 16.78 17.3529C16.7502 17.355 16.7201 17.3561 16.6898 17.3561H15.8457ZM10.2941 7.55655C10.2941 7.25936 10.5358 7.01762 10.833 7.01762H16.6898C16.987 7.01762 17.2287 7.25936 17.2287 7.55655V7.91318H10.2941V7.55655ZM10.2941 8.59873H17.2287V13.255H10.2941V8.59873ZM17.2287 16.1277V13.9405H10.2941V16.1277C10.2941 16.4249 10.5358 16.6666 10.833 16.6666H16.6898C16.987 16.6666 17.2287 16.4249 17.2287 16.1277Z" fill="#5F2167"/>
<path fill-rule="evenodd" clip-rule="evenodd" d="M7.12793 10.8217C6.58505 10.8217 6.14521 11.2615 6.14521 11.8044C6.14521 12.3473 6.58505 12.7871 7.12793 12.7871C7.67081 12.7871 8.11068 12.3473 8.11068 11.8044C8.11068 11.2615 7.67081 10.8217 7.12793 10.8217ZM7.12793 12.2482C6.88225 12.2482 6.68412 12.0501 6.68412 11.8044C6.68412 11.5587 6.88622 11.3606 7.12793 11.3606C7.37361 11.3606 7.57174 11.5587 7.57174 11.8044C7.57174 12.0501 7.37361 12.2482 7.12793 12.2482Z" fill="#5F2167"/>
<path d="M8.94676 18.2635L8.55843 18.6756L7.55984 17.7365V16.6348H8.1265V17.4907L8.94676 18.2635Z" fill="#5F2167"/>
<path d="M5.39626 18.5728H5.96292V17.0353L6.87432 16.1794V13.7226H7.69855L8.58223 14.527V15.8346H9.14492V14.2813L7.92442 13.1559H6.30766V15.9337L5.39626 16.7896V18.5728Z" fill="#5F2167"/>
<path d="M5.89952 14.1702L5 14.9944L5.38042 15.4144L5.89952 14.935V14.1702Z" fill="#5F2167"/>
<path d="M7.64309 14.3803L8.1503 14.8558V16.1833H7.28644V15.6801H7.64309V14.3803Z" fill="#5F2167"/>
</svg>
