<svg width="19" height="17" viewBox="0 0 19 17" fill="none" xmlns="http://www.w3.org/2000/svg">
<g clip-path="url(#clip0_1_6515)">
<path d="M15.9055 0.57251H3.09454C1.66148 0.57251 0.5 1.73398 0.5 3.16703V10.0607C0.5 11.4938 1.66148 12.6552 3.09454 12.6552H5.82199L5.8451 15.7583C5.8451 16.0241 6.0069 16.2668 6.2496 16.3708C6.33628 16.4055 6.42295 16.4228 6.51541 16.4228C6.68299 16.4228 6.85056 16.3592 6.97769 16.2437L10.8897 12.5801L15.8766 12.6321C16.5815 12.6495 17.2345 12.3721 17.7315 11.8809C18.2284 11.3898 18.5 10.7368 18.5 10.0376V3.16703C18.5 1.73398 17.3385 0.57251 15.9055 0.57251ZM17.5177 10.0376C17.5177 10.471 17.3501 10.8813 17.038 11.1817C16.726 11.488 16.3446 11.6498 15.8881 11.6498L10.5083 11.592L6.82167 15.0417L6.79278 11.6729H3.09454C2.20465 11.6729 1.48234 10.9506 1.48234 10.0607V3.16703C1.48234 2.27715 2.20465 1.55485 3.09454 1.55485H15.9055C16.7953 1.55485 17.5177 2.27715 17.5177 3.16703V10.0376Z" fill="white"/>
<path d="M14.1718 7.98695C14.975 7.17796 15.2062 6.06272 15.2062 5.0515V4.56033H13.4495V3.18506H12.4672V4.56611H10.7047V5.54844H14.2007C14.0332 7.3282 12.9121 8.16608 10.7047 8.16608V9.14842C11.7969 9.14842 12.629 8.95195 13.2646 8.63413C13.7905 8.95195 14.3163 9.11952 14.819 9.13108L15.3275 9.14264L15.3507 8.1603L14.8479 8.14874C14.6341 8.14874 14.4088 8.08518 14.1718 7.98695Z" fill="white"/>
<path d="M5.27308 8.25786H7.37645L7.77517 9.34421H8.82108L6.78127 3.76801L6.6657 3.41553H5.94917L3.84579 9.34421H4.88592L5.27308 8.25786ZM6.30743 5.33975L7.01819 7.27553H5.61979L6.30743 5.33975Z" fill="white"/>
</g>
<defs>
<clipPath id="clip0_1_6515">
<rect width="18" height="15.8561" fill="white" transform="translate(0.5 0.571777)"/>
</clipPath>
</defs>
</svg>
