<svg width="16" height="16" viewBox="0 0 16 16" fill="none" xmlns="http://www.w3.org/2000/svg">
<path d="M7.67634 7.55559L8.34301 7.56043C9.42513 7.56043 10.3092 8.32373 10.314 9.26576C10.314 10.1498 9.52175 10.8696 8.52175 10.9517V12.5315H7.60386V10.9663H5.98551V10.0483H8.34301C8.91305 10.0483 9.39614 9.69088 9.39614 9.26576C9.39614 8.84063 8.91305 8.48309 8.34301 8.48309L7.67634 8.47826C6.59421 8.47826 5.71015 7.71496 5.71015 6.77776C5.71015 5.85989 6.55555 5.11592 7.60386 5.0821V3.47349H8.52175V5.07243H10.0193V5.99038H7.67634C7.10629 5.99038 6.6232 6.3478 6.6232 6.77293C6.6232 7.19805 7.10629 7.55559 7.67634 7.55559Z" fill="#FAFAFA"/>
<path fill-rule="evenodd" clip-rule="evenodd" d="M1 8C1 4.14009 4.14009 1 8 1C11.8599 1 15 4.14009 15 8C15 11.8599 11.8599 15 8 15C4.14009 15 1 11.8599 1 8ZM1.91789 8C1.91789 11.3527 4.64734 14.0822 8 14.0822C11.3527 14.0822 14.0821 11.3527 14.0821 8C14.0821 4.64734 11.3527 1.91795 8 1.91795C4.64734 1.91795 1.91789 4.64734 1.91789 8Z" fill="#FAFAFA"/>
</svg>
