<svg width="40" height="40" viewBox="0 0 40 40" fill="none" xmlns="http://www.w3.org/2000/svg">
<rect width="40" height="40" rx="16" fill="#FAFAFA"/>
<path fill-rule="evenodd" clip-rule="evenodd" d="M19.647 13H20.3484V15.3597C23.024 15.5403 25.1429 17.7721 25.1429 20.493V22.6592H26.1909V25.1801H21.8742C21.8437 26.1893 21.0141 27 19.9977 27C18.9812 27 18.1516 26.1893 18.1212 25.1801H13.8086V22.6592H14.8525V20.493C14.8525 17.7721 16.9714 15.5403 19.647 15.3597V13ZM15.5539 22.6592H24.4415V20.493C24.4415 18.0421 22.4486 16.0492 19.9977 16.0492C17.5468 16.0492 15.5539 18.0421 15.5539 20.493V22.6592ZM19.9977 26.2985C19.3691 26.2985 18.8532 25.8014 18.8231 25.1801H21.1722C21.1421 25.8014 20.6262 26.2985 19.9977 26.2985ZM25.4853 24.4829H14.5059V23.3647H25.4853V24.4829Z" fill="#5F2167"/>
</svg>
