<svg width="40" height="40" viewBox="0 0 40 40" fill="none" xmlns="http://www.w3.org/2000/svg">
<rect width="40" height="40" rx="16" fill="#5F2167"/>
<path fill-rule="evenodd" clip-rule="evenodd" d="M16.5119 16.4873C16.5119 18.4087 18.0778 19.9745 19.9991 19.9745C21.9205 19.9745 23.4864 18.4087 23.4864 16.4873C23.4864 14.566 21.9205 13 19.9991 13C18.0778 13 16.5119 14.566 16.5119 16.4873ZM17.316 16.4873C17.316 15.0061 18.5221 13.8043 19.9991 13.8043C21.4803 13.8043 22.6823 15.0061 22.6823 16.4873C22.6823 17.9686 21.4761 19.1704 19.9991 19.1704C18.5179 19.1704 17.316 17.9686 17.316 16.4873Z" fill="#FAFAFA"/>
<path d="M24.9422 27H25.7463V22.5563C25.7463 22.2177 25.4712 21.9428 25.1327 21.9428H14.8656C14.527 21.9428 14.252 22.2177 14.252 22.5563V27H15.0561V22.7468H24.9422V27Z" fill="#FAFAFA"/>
</svg>
