<svg width="12" height="14" viewBox="0 0 12 14" fill="none" xmlns="http://www.w3.org/2000/svg">
<path fill-rule="evenodd" clip-rule="evenodd" d="M2.51383 3.48734C2.51383 5.40873 4.07971 6.97448 6.00107 6.97448C7.92245 6.97448 9.48831 5.40873 9.48831 3.48734C9.48831 1.56596 7.92245 0 6.00107 0C4.07971 0 2.51383 1.56596 2.51383 3.48734ZM3.31794 3.48734C3.31794 2.00611 4.52407 0.804263 6.00107 0.804263C7.4823 0.804263 8.68423 2.00611 8.68423 3.48734C8.68423 4.96858 7.47806 6.17042 6.00107 6.17042C4.51984 6.17042 3.31794 4.96858 3.31794 3.48734Z" fill="#FAFAFA"/>
<path d="M10.9442 14H11.7483V9.5563C11.7483 9.21772 11.4732 8.94277 11.1346 8.94277H0.867565C0.529003 8.94277 0.253906 9.21772 0.253906 9.5563V14H1.05801V9.74683H10.9442V14Z" fill="#FAFAFA"/>
</svg>
