<svg width="24" height="24" viewBox="0 0 24 24" fill="none" xmlns="http://www.w3.org/2000/svg">
<path fill-rule="evenodd" clip-rule="evenodd" d="M8.42587 2.83594C5.796 2.83594 3.66406 4.96786 3.66406 7.59773V14.7401C3.66406 17.3699 5.796 19.5019 8.42587 19.5019H10.8982C11.0987 20.0124 11.5734 21.1693 11.759 21.1693C11.9447 21.1693 12.4194 20.0124 12.6199 19.5019H15.5689C18.1988 19.5019 20.3307 17.3699 20.3307 14.7401V7.59773C20.3307 4.96786 18.1988 2.83594 15.5689 2.83594H8.42587Z" fill="#D53711"/>
<path fill-rule="evenodd" clip-rule="evenodd" d="M12.4859 19.8361C12.4625 19.8932 12.4378 19.9524 12.4124 20.0128C12.1876 20.5456 11.8963 21.1667 11.7603 21.1667C11.6243 21.1667 11.3331 20.5456 11.1082 20.0128C11.0828 19.9524 11.0582 19.8932 11.0347 19.8361C10.9827 19.7094 10.9364 19.5934 10.8995 19.4993H8.42715C5.79727 19.4993 3.66534 17.3674 3.66534 14.7375V7.59511C3.66534 4.96524 5.79727 2.83331 8.42715 2.83331H15.5702C18.2001 2.83331 20.332 4.96524 20.332 7.59511V14.7375C20.332 17.3674 18.2001 19.4993 15.5702 19.4993H12.6212C12.5842 19.5934 12.538 19.7094 12.4859 19.8361ZM13.5104 20.8326H15.5702C18.9364 20.8326 21.6653 18.1037 21.6653 14.7375V7.59511C21.6653 4.22888 18.9364 1.5 15.5702 1.5H8.42715C5.06091 1.5 2.33203 4.22888 2.33203 7.59511V14.7375C2.33203 18.1037 5.06091 20.8326 8.42715 20.8326H10.0103C10.0495 20.9208 10.0897 21.009 10.1301 21.0944C10.2206 21.2858 10.3313 21.505 10.4493 21.6914C10.505 21.7794 10.594 21.9111 10.7137 22.0365C10.7737 22.0993 10.8741 22.1956 11.0144 22.2835C11.1471 22.3666 11.4073 22.5 11.7603 22.5C12.1133 22.5 12.3736 22.3666 12.5062 22.2835C12.6465 22.1956 12.747 22.0993 12.8069 22.0365C12.9266 21.9111 13.0156 21.7794 13.0713 21.6914C13.1894 21.505 13.3 21.2858 13.3905 21.0944C13.4309 21.009 13.4711 20.9208 13.5104 20.8326Z" fill="white" fill-opacity="0.9"/>
<path fill-rule="evenodd" clip-rule="evenodd" d="M7.88009 4.86053C7.53031 4.93224 7.24947 5.20134 7.18553 5.52606C7.1667 5.6217 7.16764 16.5923 7.18653 16.6512C7.20355 16.7042 7.27836 16.7852 7.33542 16.8124C7.47898 16.8808 7.65995 16.8249 7.73843 16.688C7.76327 16.6447 7.76408 16.6309 7.76978 16.1463C7.7763 15.5929 7.77416 7.80199 7.85995 7.7219C7.94746 7.64021 7.79358 7.64751 9.55498 7.64143C11.3465 7.63523 11.1878 7.64426 11.2854 7.54296C11.3645 7.46087 11.3866 7.34551 11.3412 7.25218C11.3292 7.22744 11.1446 6.98981 10.931 6.72413L10.5427 6.24106L10.9409 5.74506C11.2304 5.38439 11.3427 5.23626 11.3526 5.20214C11.3941 5.05899 11.3123 4.90758 11.1675 4.85935C11.1029 4.83781 7.98545 4.83893 7.88009 4.86053Z" fill="white"/>
<path fill-rule="evenodd" clip-rule="evenodd" d="M11.8394 16.3884C11.182 16.3884 10.6406 15.8825 10.6406 15.2601V13.1123H16.828V15.2601C16.828 15.8825 16.2905 16.3884 15.6292 16.3884H11.8394ZM16.828 11.2925H10.6406V10.2376C10.6406 9.61891 11.1782 9.10938 11.8394 9.10938H15.6292C16.2866 9.10938 16.828 9.61527 16.828 10.2376V11.2925ZM12.0023 15.1663C12.0332 15.1808 12.0642 15.1881 12.0951 15.1954C12.126 15.199 12.157 15.2027 12.1879 15.2027C12.3155 15.2027 12.4393 15.1554 12.5282 15.068C12.621 14.9843 12.6713 14.8678 12.6713 14.7477C12.6713 14.6276 12.621 14.5112 12.5282 14.4275C12.4161 14.3219 12.2498 14.271 12.0951 14.3001C12.0642 14.3074 12.0332 14.3146 12.0023 14.3292C11.9752 14.3401 11.9443 14.3547 11.9211 14.3692C11.894 14.3874 11.8669 14.4056 11.8476 14.4275C11.7548 14.5112 11.7045 14.6276 11.7045 14.7477C11.7045 14.8678 11.7548 14.9843 11.8476 15.068C11.8669 15.0899 11.894 15.1081 11.9211 15.1262C11.9443 15.1408 11.9752 15.1554 12.0023 15.1663ZM15.1888 15.1955C15.1579 15.1882 15.1269 15.1809 15.096 15.1664C15.0689 15.1554 15.038 15.1409 15.0148 15.1263C14.9877 15.1081 14.9606 15.0899 14.9413 15.0681C14.8485 14.9844 14.7982 14.8679 14.7982 14.7478C14.7982 14.6277 14.8485 14.5113 14.9413 14.4276C14.9606 14.4057 14.9877 14.3875 15.0148 14.3693C15.038 14.3548 15.0689 14.3402 15.096 14.3293C15.1269 14.3147 15.1579 14.3074 15.1888 14.3002C15.2507 14.2892 15.3125 14.2892 15.3783 14.3002L15.3884 14.3029C15.4129 14.3093 15.4401 14.3165 15.4672 14.3293C15.4943 14.3402 15.5252 14.3548 15.5484 14.3693C15.5755 14.3875 15.6026 14.4057 15.6219 14.4276C15.7147 14.5113 15.765 14.6277 15.765 14.7478C15.765 14.8679 15.7147 14.9844 15.6219 15.0681C15.6026 15.0899 15.5755 15.1081 15.5484 15.1263C15.5252 15.1409 15.4943 15.1554 15.4672 15.1664C15.4401 15.1791 15.4129 15.1863 15.3884 15.1928L15.3783 15.1955L15.3679 15.1966C15.3373 15.1998 15.3094 15.2028 15.2816 15.2028C15.2507 15.2028 15.2197 15.1991 15.1888 15.1955ZM12.4783 10.1976C12.4783 10.3469 12.6098 10.4706 12.7684 10.4706H14.7019C14.8605 10.4706 14.9919 10.3469 14.9919 10.1976C14.9919 10.0484 14.8605 9.92468 14.7019 9.92468H12.7684C12.6098 9.92468 12.4783 10.0484 12.4783 10.1976Z" fill="white"/>
<rect x="11.5938" y="15.9375" width="0.951905" height="0.909873" rx="0.366304" fill="white"/>
<rect x="14.9258" y="15.9375" width="0.951905" height="0.909873" rx="0.366304" fill="white"/>
</svg>
