<svg width="37" height="41" viewBox="0 0 37 41" fill="none" xmlns="http://www.w3.org/2000/svg">
  <path d="M6.03624 37.4201C3.50521 37.5754 1.36719 35.5646 1.36719 33.0288L1.36719 7.92627C1.36719 5.39047 3.5052 3.37965 6.03623 3.535L29.3087 4.96337C31.6294 5.10581 33.4387 7.02951 33.4387 9.35463L33.4387 31.6004C33.4387 33.9256 31.6294 35.8493 29.3087 35.9917L6.03624 37.4201Z" fill="#5F2167" stroke="#B5BAC7"/>
  <path d="M8.98585 40.1265C7.35826 40.1551 6.02344 38.8436 6.02344 37.2158C6.02344 35.5879 7.35826 34.2764 8.98585 34.305L24.978 34.5866C26.412 34.6118 27.5613 35.7815 27.5613 37.2157C27.5613 38.65 26.412 39.8197 24.978 39.8449L8.98585 40.1265Z" fill="#5F2167" stroke="#B5BAC7"/>
  <path d="M8.98585 6.64991C7.35826 6.67856 6.02344 5.36703 6.02344 3.73919C6.02344 2.11135 7.35826 0.799817 8.98585 0.828471L24.978 1.11001C26.412 1.13525 27.5613 2.30495 27.5613 3.73919C27.5613 5.17342 26.412 6.34312 24.978 6.36837L8.98585 6.64991Z" fill="#5F2167" stroke="#B5BAC7"/>
  <rect x="31.9883" y="27.9375" width="14.9235" height="3.89953" rx="1.94977" transform="rotate(-90 31.9883 27.9375)" fill="#5F2167" stroke="#B5BAC7"/>
</svg>