<svg width="16" height="16" viewBox="0 0 16 16" fill="none" xmlns="http://www.w3.org/2000/svg">
<path d="M5.89185 10.2811H4.33812V10.9817H5.89185V10.2811Z" fill="#5F2167"/>
<path d="M10.1076 10.2811H11.6614V10.9817H10.1076V10.2811Z" fill="#5F2167"/>
<path fill-rule="evenodd" clip-rule="evenodd" d="M9.76165 13.5947H6.21326V14.4441C6.21326 14.7491 5.96598 15.0005 5.661 15.0005H4.02896C3.72398 15.0005 3.47258 14.7532 3.47258 14.4441V13.2987C3.2007 13.069 3.02719 12.7257 3.02719 12.3419V4.27435L2.41742 4.71632V6.64509H1.7168V4.35776L3.02719 3.41092V2.25288C3.02719 1.56462 3.58769 1 4.28007 1H11.7232C12.4114 1 12.9761 1.5605 12.9761 2.25288V3.41924L14.2826 4.35873V6.64606H13.582V4.71728L12.9761 4.28378V12.3419C12.9737 12.7379 12.7893 13.0908 12.5023 13.3203V14.4441C12.5064 14.7491 12.255 15.0005 11.9501 15.0005H10.318C10.013 15.0005 9.76165 14.7532 9.76165 14.4441V13.5947ZM10.4623 13.5947V14.2999H11.8017V13.5921C11.7744 13.5938 11.7468 13.5947 11.719 13.5947H10.4623ZM4.28007 13.5947H5.51264V14.2999H4.17321V13.5902C4.20845 13.5932 4.24409 13.5947 4.28007 13.5947ZM4.28007 1.70062C3.9751 1.70062 3.72782 1.9479 3.72782 2.25288V2.92037H12.2754V2.25288C12.2754 1.9479 12.0281 1.70062 11.7232 1.70062H4.28007ZM12.2754 3.621V8.75616H3.72782V3.621H12.2754ZM12.2754 9.45678H3.72782V12.3419C3.72782 12.6468 3.9751 12.8941 4.28007 12.8941H11.7232C12.0281 12.8941 12.2754 12.6468 12.2754 12.3419V9.45678Z" fill="#5F2167"/>
</svg>
