<svg width="30" height="30" viewBox="0 0 30 30" fill="none" xmlns="http://www.w3.org/2000/svg">
<rect x="0.5" y="0.5" width="29" height="29" rx="3.5" fill="white"/>
<rect x="0.5" y="0.5" width="29" height="29" rx="3.5" fill="url(#paint0_linear_144_49000)" fill-opacity="0.25"/>
<rect x="0.5" y="0.5" width="29" height="29" rx="3.5" stroke="#C3D7E0"/>
<g clip-path="url(#clip0_144_49000)">
<path d="M20.5849 18.4212C19.7504 18.4212 19.0105 18.8106 18.5098 19.4059L12.3292 15.9845C12.3848 15.7676 12.4238 15.5506 12.4238 15.317C12.4238 15.1445 12.4015 14.972 12.3737 14.8051L18.5432 11.4728C19.0383 12.0514 19.7671 12.4185 20.5849 12.4185C22.0814 12.4185 23.2997 11.2002 23.2997 9.70371C23.2997 8.20721 22.0814 7 20.5849 7C19.0884 7 17.8701 8.21834 17.8701 9.71483C17.8701 10.0486 17.9368 10.3713 18.0537 10.6661L12.0232 13.9262C11.5448 13.1418 10.6936 12.6077 9.70895 12.6077C8.21247 12.6077 6.99414 13.826 6.99414 15.3225C6.99414 16.819 8.21247 18.0374 9.70895 18.0374C10.638 18.0374 11.4558 17.57 11.9453 16.858L18.0425 20.2292C17.9424 20.513 17.8756 20.8189 17.8756 21.136C17.8756 22.6325 19.094 23.8509 20.5905 23.8509C22.0869 23.8509 23.3053 22.6325 23.3053 21.136C23.3053 19.6396 22.0869 18.4212 20.5905 18.4212H20.5849ZM20.5849 7.94574C21.5584 7.94574 22.354 8.74128 22.354 9.71483C22.354 10.6884 21.5584 11.4839 20.5849 11.4839C19.6113 11.4839 18.8158 10.6884 18.8158 9.71483C18.8158 8.74128 19.6113 7.94574 20.5849 7.94574ZM9.71452 17.086C8.74097 17.086 7.94544 16.2905 7.94544 15.317C7.94544 14.3434 8.74097 13.5479 9.71452 13.5479C10.6881 13.5479 11.4836 14.3434 11.4836 15.317C11.4836 16.2905 10.6881 17.086 9.71452 17.086ZM20.5905 22.8996C19.6169 22.8996 18.8214 22.104 18.8214 21.1305C18.8214 20.1569 19.6169 19.3614 20.5905 19.3614C21.564 19.3614 22.3595 20.1569 22.3595 21.1305C22.3595 22.104 21.564 22.8996 20.5905 22.8996Z" fill="#D4101C"/>
</g>
<defs>
<linearGradient id="paint0_linear_144_49000" x1="15" y1="30" x2="15" y2="-2.02563e-07" gradientUnits="userSpaceOnUse">
<stop stop-color="#C8DAE3"/>
<stop offset="1" stop-color="#F0F5F7" stop-opacity="0"/>
</linearGradient>
<clipPath id="clip0_144_49000">
<rect width="16.3" height="16.8453" fill="white" transform="translate(7 7)"/>
</clipPath>
</defs>
</svg>
