<svg width="24" height="24" viewBox="0 0 24 24" fill="none" xmlns="http://www.w3.org/2000/svg">
<path fill-rule="evenodd" clip-rule="evenodd" d="M8.42587 2.83398C5.796 2.83398 3.66406 4.96591 3.66406 7.59578V14.7381C3.66406 17.368 5.796 19.4999 8.42587 19.4999H10.8982C11.0987 20.0105 11.5734 21.1673 11.759 21.1673C11.9447 21.1673 12.4194 20.0105 12.6199 19.4999H15.5689C18.1988 19.4999 20.3307 17.368 20.3307 14.7381V7.59578C20.3307 4.96591 18.1988 2.83398 15.5689 2.83398H8.42587Z" fill="#5F2167"/>
<path fill-rule="evenodd" clip-rule="evenodd" d="M12.4859 19.8361C12.4625 19.8932 12.4379 19.9524 12.4124 20.0128C12.1876 20.5456 11.8963 21.1667 11.7603 21.1667C11.6243 21.1667 11.3331 20.5456 11.1082 20.0128C11.0828 19.9524 11.0582 19.8932 11.0347 19.8361C10.9827 19.7094 10.9364 19.5934 10.8995 19.4993H8.42715C5.79727 19.4993 3.66534 17.3674 3.66534 14.7375V7.59511C3.66534 4.96524 5.79727 2.83331 8.42715 2.83331H15.5702C18.2001 2.83331 20.332 4.96524 20.332 7.59511V14.7375C20.332 17.3674 18.2001 19.4993 15.5702 19.4993H12.6212C12.5842 19.5934 12.538 19.7094 12.4859 19.8361ZM13.5104 20.8326H15.5702C18.9364 20.8326 21.6653 18.1037 21.6653 14.7375V7.59511C21.6653 4.22888 18.9364 1.5 15.5702 1.5H8.42715C5.06091 1.5 2.33203 4.22888 2.33203 7.59511V14.7375C2.33203 18.1037 5.06091 20.8326 8.42715 20.8326H10.0103C10.0495 20.9208 10.0897 21.009 10.1301 21.0944C10.2206 21.2858 10.3313 21.505 10.4493 21.6914C10.505 21.7794 10.594 21.9111 10.7137 22.0365C10.7737 22.0993 10.8741 22.1956 11.0144 22.2835C11.1471 22.3666 11.4073 22.5 11.7603 22.5C12.1133 22.5 12.3736 22.3666 12.5062 22.2835C12.6465 22.1956 12.747 22.0993 12.8069 22.0365C12.9266 21.9111 13.0156 21.7794 13.0713 21.6914C13.1894 21.505 13.3 21.2858 13.3905 21.0944C13.4309 21.009 13.4711 20.9208 13.5104 20.8326Z" fill="white" fill-opacity="0.9"/>
<path fill-rule="evenodd" clip-rule="evenodd" d="M9.63715 15.1211C8.84433 15.1211 8.19141 14.511 8.19141 13.7605V11.1712H15.6533V13.7605C15.6533 14.511 15.0051 15.1211 14.2076 15.1211H9.63715ZM15.6533 8.97656H8.19141V7.70342C8.19141 6.95726 8.83966 6.34277 9.63715 6.34277H14.2076C15.0004 6.34277 15.6533 6.95287 15.6533 7.70342V8.97656ZM9.83274 13.6508C9.87005 13.6684 9.90735 13.6772 9.94466 13.686C9.98197 13.6903 10.0193 13.6947 10.0566 13.6947C10.2105 13.6947 10.3597 13.6377 10.467 13.5323C10.5789 13.4314 10.6396 13.2909 10.6396 13.1461C10.6396 13.0012 10.5789 12.8608 10.467 12.7598C10.3318 12.6325 10.1312 12.5711 9.94466 12.6062C9.90735 12.615 9.87005 12.6238 9.83274 12.6413C9.80009 12.6545 9.76278 12.672 9.7348 12.6896C9.70215 12.7115 9.66951 12.7335 9.64619 12.7598C9.53426 12.8608 9.47363 13.0012 9.47363 13.1461C9.47363 13.2909 9.53426 13.4314 9.64619 13.5323C9.66951 13.5587 9.70215 13.5806 9.7348 13.6026C9.76278 13.6201 9.80009 13.6377 9.83274 13.6508ZM13.6751 13.6861C13.6378 13.6773 13.6005 13.6685 13.5632 13.6509C13.5306 13.6378 13.4932 13.6202 13.4653 13.6027C13.4326 13.5807 13.4 13.5588 13.3767 13.5324C13.2647 13.4315 13.2041 13.291 13.2041 13.1462C13.2041 13.0013 13.2647 12.8609 13.3767 12.7599C13.4 12.7336 13.4326 12.7117 13.4653 12.6897C13.4932 12.6722 13.5306 12.6546 13.5632 12.6414C13.6005 12.6239 13.6378 12.6151 13.6751 12.6063C13.7498 12.5931 13.8244 12.5931 13.9037 12.6063L13.9159 12.6096C13.9454 12.6174 13.9782 12.626 14.0109 12.6414C14.0436 12.6546 14.0809 12.6722 14.1089 12.6897C14.1415 12.7117 14.1742 12.7336 14.1975 12.7599C14.3094 12.8609 14.37 13.0013 14.37 13.1462C14.37 13.291 14.3094 13.4315 14.1975 13.5324C14.1742 13.5588 14.1415 13.5807 14.1089 13.6027C14.0809 13.6202 14.0436 13.6378 14.0109 13.6509C13.9782 13.6663 13.9454 13.675 13.9159 13.6828L13.9159 13.6828L13.9037 13.6861L13.8912 13.6874L13.8912 13.6874C13.8542 13.6913 13.8206 13.6948 13.7871 13.6948C13.7498 13.6948 13.7124 13.6904 13.6751 13.6861ZM10.4072 7.65707C10.4072 7.83703 10.5658 7.98626 10.757 7.98626H13.0888C13.2801 7.98626 13.4386 7.83703 13.4386 7.65707C13.4386 7.47711 13.2801 7.32788 13.0888 7.32788H10.757C10.5658 7.32788 10.4072 7.47711 10.4072 7.65707Z" fill="#FAFBFD"/>
<rect x="9.33789" y="14.5752" width="1.14799" height="1.09729" rx="0.366304" fill="#FAFBFD"/>
<rect x="13.3555" y="14.5752" width="1.14799" height="1.09729" rx="0.366304" fill="#FAFBFD"/>
</svg>
