<svg width="25" height="25" viewBox="0 0 25 25" fill="none" xmlns="http://www.w3.org/2000/svg">
<path fill-rule="evenodd" clip-rule="evenodd" d="M17.636 11.0982C18.2782 10.1285 18.656 8.9661 18.656 7.718C18.656 4.3228 15.8957 1.5625 12.5004 1.5625C9.10521 1.5625 6.34491 4.3228 6.34491 7.718C6.34491 8.96741 6.72347 10.1265 7.36678 11.0986L4.56038 10.5316C4.48908 10.5173 4.41655 10.5165 4.34638 10.5285C4.25223 10.5446 4.16249 10.5839 4.08588 10.6451C3.95216 10.7521 3.87865 10.9127 3.87865 11.0864V14.3606C3.27598 14.788 2.88281 15.4913 2.88281 16.2865C2.88281 17.0817 3.27598 17.7849 3.87865 18.2122V21.2454C3.87865 21.5128 4.0725 21.7468 4.33309 21.8002L12.3868 23.4241L12.4019 23.4267C12.4356 23.4324 12.4654 23.4375 12.5004 23.4375C12.5405 23.4375 12.5739 23.4375 12.614 23.4241L20.661 21.8002C20.9283 21.7468 21.1155 21.5128 21.1155 21.2454V18.2169C21.7219 17.79 22.118 17.0846 22.118 16.2865C22.118 15.4913 21.7249 14.788 21.1222 14.3606V11.0864C21.1222 10.9193 21.0487 10.7521 20.9149 10.6451C20.7813 10.5383 20.6075 10.4915 20.4404 10.5316L17.636 11.0982ZM12.5004 2.69198C9.73343 2.69198 7.48108 4.95101 7.48108 7.718C7.48108 9.20539 8.1323 10.5434 9.16469 11.4619L12.5004 12.1359L15.8362 11.4619C16.8685 10.5434 17.5197 9.20539 17.5197 7.718C17.5197 4.94432 15.2674 2.69198 12.5004 2.69198ZM19.9859 13.9378V11.7749L13.0685 13.1717V22.1742L19.9859 20.7775V18.6349C19.9111 18.642 19.8353 18.6456 19.7587 18.6456C18.4554 18.6456 17.3994 17.5897 17.3994 16.2865C17.3994 14.9832 18.4554 13.927 19.7587 13.927C19.8353 13.927 19.9111 13.9306 19.9859 13.9378ZM5.01482 18.6349V20.7775L11.9323 22.1742V13.1717L5.01482 11.7749V13.9378C5.08963 13.9306 5.16543 13.927 5.24212 13.927C6.54537 13.927 7.60142 14.9832 7.60142 16.2865C7.60142 17.5897 6.54537 18.6456 5.24212 18.6456C5.16543 18.6456 5.08963 18.642 5.01482 18.6349ZM18.5356 16.2796C18.5356 15.6046 19.0837 15.0565 19.7587 15.0565C20.4337 15.0565 20.9818 15.6046 20.9818 16.2796C20.9818 16.9547 20.4337 17.5028 19.7587 17.5028C19.0837 17.5028 18.5356 16.9547 18.5356 16.2796ZM5.24212 15.0565C4.56707 15.0565 4.01898 15.6046 4.01898 16.2796C4.01898 16.9547 4.56707 17.5028 5.24212 17.5028C5.91716 17.5028 6.46517 16.9547 6.46517 16.2796C6.46517 15.6046 5.91716 15.0565 5.24212 15.0565Z" fill="#1D1F24"/>
</svg>
