<svg width="25" height="25" viewBox="0 0 25 25" fill="none" xmlns="http://www.w3.org/2000/svg">
<path d="M1.5625 3.73438H23.4375V18.8699H15.5826V17.8263H22.4002V4.77828H2.60632V17.8263H3.99594V18.8699H1.5625V3.73438Z" fill="#1D1F24"/>
<path fill-rule="evenodd" clip-rule="evenodd" d="M10.7026 12.9397C8.88241 12.9397 7.40798 11.4589 7.40798 9.64516C7.40798 7.82494 8.8889 6.35035 10.7026 6.35035C12.5163 6.35035 13.9972 7.83147 13.9972 9.64516C13.9972 11.4654 12.5228 12.9397 10.7026 12.9397ZM10.7026 7.39425C9.46302 7.39425 8.45181 8.40558 8.45181 9.64516C8.45181 10.8847 9.46302 11.8957 10.7026 11.8957C11.9422 11.8957 12.9534 10.8847 12.9534 9.64516C12.9534 8.40558 11.9422 7.39425 10.7026 7.39425Z" fill="#1D1F24"/>
<path d="M5.98571 21.2122H4.94189V17.774L8.12561 13.8988H13.0055L16.7568 15.6601L18.7336 13.0374L19.5622 13.6637L17.0765 16.9649L12.7707 14.9424H8.62144L5.98571 18.1525V21.2122Z" fill="#1D1F24"/>
<path d="M7.89728 21.2644H8.94111V16.3714H8.92804L7.89728 17.6043V21.2644Z" fill="#1D1F24"/>
<path d="M11.9291 21.2648V16.065L12.5163 16.0586L12.973 16.2803V21.2648H11.9291Z" fill="#1D1F24"/>
</svg>
