<svg width="24" height="25" viewBox="0 0 24 25" fill="none" xmlns="http://www.w3.org/2000/svg">
<path fill-rule="evenodd" clip-rule="evenodd" d="M8.42782 3.33594C5.79795 3.33594 3.66602 5.46786 3.66602 8.09773V15.2401C3.66602 17.8699 5.79795 20.0019 8.42782 20.0019H10.9001C11.1006 20.5124 11.5753 21.6693 11.761 21.6693C11.9466 21.6693 12.4214 20.5124 12.6218 20.0019H15.5709C18.2007 20.0019 20.3327 17.8699 20.3327 15.2401V8.09773C20.3327 5.46786 18.2007 3.33594 15.5709 3.33594H8.42782Z" fill="#848CA2"/>
<path fill-rule="evenodd" clip-rule="evenodd" d="M12.4869 20.3361C12.4634 20.3932 12.4388 20.4524 12.4134 20.5128C12.1885 21.0456 11.8973 21.6667 11.7613 21.6667C11.6253 21.6667 11.334 21.0456 11.1092 20.5128C11.0837 20.4524 11.0591 20.3932 11.0357 20.3361C10.9836 20.2094 10.9374 20.0934 10.9004 19.9993H8.42812C5.79825 19.9993 3.66631 17.8674 3.66631 15.2375V8.09511C3.66631 5.46524 5.79825 3.33331 8.42812 3.33331H15.5712C18.201 3.33331 20.333 5.46524 20.333 8.09511V15.2375C20.333 17.8674 18.201 19.9993 15.5712 19.9993H12.6221C12.5852 20.0934 12.5389 20.2094 12.4869 20.3361ZM13.5113 21.3326H15.5712C18.9374 21.3326 21.6663 18.6037 21.6663 15.2375V8.09511C21.6663 4.72888 18.9374 2 15.5712 2H8.42812C5.06188 2 2.33301 4.72888 2.33301 8.09511V15.2375C2.33301 18.6037 5.06188 21.3326 8.42812 21.3326H10.0112C10.0505 21.4208 10.0907 21.509 10.1311 21.5944C10.2216 21.7858 10.3322 22.005 10.4503 22.1914C10.506 22.2794 10.595 22.4111 10.7147 22.5365C10.7746 22.5993 10.8751 22.6956 11.0154 22.7835C11.148 22.8666 11.4083 23 11.7613 23C12.1143 23 12.3745 22.8666 12.5072 22.7835C12.6475 22.6956 12.7479 22.5993 12.8079 22.5365C12.9276 22.4111 13.0166 22.2794 13.0723 22.1914C13.1903 22.005 13.301 21.7858 13.3915 21.5944C13.4319 21.509 13.4721 21.4208 13.5113 21.3326Z" fill="#FAFAFA"/>
<path fill-rule="evenodd" clip-rule="evenodd" d="M7.8796 5.35662C7.52983 5.42833 7.24898 5.69743 7.18504 6.02215C7.16621 6.1178 7.16716 17.0884 7.18604 17.1473C7.20306 17.2003 7.27787 17.2813 7.33493 17.3085C7.4785 17.3769 7.65946 17.321 7.73794 17.1841C7.76278 17.1408 7.76359 17.127 7.76929 16.6424C7.77581 16.089 7.77367 8.29808 7.85946 8.218C7.94697 8.13631 7.79309 8.14361 9.55449 8.13752C11.346 8.13132 11.1873 8.14035 11.2849 8.03905C11.364 7.95696 11.3861 7.8416 11.3407 7.74827C11.3287 7.72353 11.1441 7.4859 10.9305 7.22022L10.5422 6.73715L10.9404 6.24116C11.2299 5.88049 11.3422 5.73235 11.3521 5.69823C11.3936 5.55508 11.3119 5.40368 11.1671 5.35544C11.1024 5.3339 7.98497 5.33503 7.8796 5.35662Z" fill="#FAFAFA"/>
<path fill-rule="evenodd" clip-rule="evenodd" d="M11.8389 16.8845C11.1815 16.8845 10.6401 16.3786 10.6401 15.7562V13.6108H16.8275V15.7562C16.8275 16.3786 16.29 16.8845 15.6287 16.8845H11.8389ZM16.8275 11.791H10.6401V10.7337C10.6401 10.115 11.1777 9.60547 11.8389 9.60547H15.6287C16.2861 9.60547 16.8275 10.1114 16.8275 10.7337V11.791ZM12.0009 15.6673C12.0318 15.6818 12.0628 15.6891 12.0937 15.6964C12.1246 15.7 12.1556 15.7037 12.1865 15.7037C12.3141 15.7037 12.4379 15.6564 12.5268 15.569C12.6196 15.4853 12.6699 15.3688 12.6699 15.2487C12.6699 15.1286 12.6196 15.0122 12.5268 14.9285C12.4147 14.8229 12.2484 14.772 12.0937 14.8011C12.0628 14.8083 12.0318 14.8156 12.0009 14.8302C11.9738 14.8411 11.9429 14.8557 11.9197 14.8702C11.8926 14.8884 11.8655 14.9066 11.8462 14.9285C11.7534 15.0122 11.7031 15.1286 11.7031 15.2487C11.7031 15.3688 11.7534 15.4853 11.8462 15.569C11.8655 15.5908 11.8926 15.609 11.9197 15.6272C11.9429 15.6418 11.9738 15.6564 12.0009 15.6673ZM15.1875 15.6965C15.1565 15.6892 15.1256 15.6819 15.0946 15.6674C15.0676 15.6564 15.0366 15.6419 15.0134 15.6273C14.9864 15.6091 14.9593 15.5909 14.94 15.5691C14.8471 15.4854 14.7969 15.3689 14.7969 15.2488C14.7969 15.1287 14.8471 15.0123 14.94 14.9285C14.9593 14.9067 14.9864 14.8885 15.0134 14.8703C15.0366 14.8558 15.0676 14.8412 15.0946 14.8303C15.1256 14.8157 15.1565 14.8084 15.1875 14.8012C15.2493 14.7902 15.3112 14.7902 15.3769 14.8012L15.3871 14.8038C15.4116 14.8103 15.4387 14.8175 15.4659 14.8303C15.493 14.8412 15.5239 14.8558 15.5471 14.8703C15.5742 14.8885 15.6012 14.9067 15.6206 14.9285C15.7134 15.0123 15.7637 15.1287 15.7637 15.2488C15.7637 15.3689 15.7134 15.4854 15.6206 15.5691C15.6012 15.5909 15.5742 15.6091 15.5471 15.6273C15.5239 15.6419 15.493 15.6564 15.4659 15.6674C15.4387 15.6801 15.4116 15.6873 15.3871 15.6938L15.3769 15.6965L15.3666 15.6976C15.3359 15.7008 15.3081 15.7038 15.2803 15.7038C15.2493 15.7038 15.2184 15.7001 15.1875 15.6965ZM12.4785 10.6909C12.4785 10.8401 12.61 10.9639 12.7685 10.9639H14.7021C14.8607 10.9639 14.9921 10.8401 14.9921 10.6909C14.9921 10.5417 14.8607 10.418 14.7021 10.418H12.7685C12.61 10.418 12.4785 10.5417 12.4785 10.6909Z" fill="#FAFAFA"/>
<rect x="11.5913" y="16.4297" width="0.951905" height="0.909873" rx="0.366304" fill="#FAFAFA"/>
<rect x="14.9224" y="16.4297" width="0.951905" height="0.909873" rx="0.366304" fill="#FAFAFA"/>
</svg>
