<svg xmlns="http://www.w3.org/2000/svg" width="16" height="16" viewBox="0 0 16 16" fill="none">
<path d="M7.92618 6.39861C8.17784 6.39861 8.38185 6.1946 8.38185 5.94291C8.38185 5.69123 8.17784 5.48722 7.92618 5.48722C7.67452 5.48722 7.47051 5.69123 7.47051 5.94291C7.47051 6.1946 7.67452 6.39861 7.92618 6.39861Z" fill="#169A8E"/>
<path d="M8.29075 7.43587H7.55299V11.116H8.29075V7.43587Z" fill="#169A8E"/>
<path fill-rule="evenodd" clip-rule="evenodd" d="M1 7.99995C1 11.8623 4.14197 15 8 15C11.8624 15 15 11.8623 15 7.99995C15 4.13757 11.8624 1 8 1C4.13762 1 1 4.13757 1 7.99995ZM1.73776 8.00429C1.73776 4.54988 4.54556 1.74208 8 1.74208C11.4544 1.74208 14.2622 4.54988 14.2622 8.00429C14.2622 11.4587 11.4544 14.2665 8 14.2665C4.54556 14.2665 1.73776 11.4587 1.73776 8.00429Z" fill="#169A8E"/>
</svg>