<svg width="21" height="40" viewBox="0 0 21 40" fill="none" xmlns="http://www.w3.org/2000/svg">
<rect x="0.921875" y="39.5" width="39" height="19" rx="3.5" transform="rotate(-90 0.921875 39.5)" fill="#E8EBF4"/>
<rect x="0.921875" y="39.5" width="39" height="19" rx="3.5" transform="rotate(-90 0.921875 39.5)" stroke="#B5BAC7"/>
<rect x="3.42188" y="37" width="34" height="14" rx="3" transform="rotate(-90 3.42188 37)" fill="#474A56"/>
<path d="M14.4219 24.38L8.56187 24.38L8.56187 26.6L7.42187 26.6L7.42187 20.92L8.56187 20.92L8.56187 23.14L14.4219 23.14L14.4219 24.38ZM14.4719 17.3056L7.42187 20.2156L7.42187 18.8556L12.8019 16.7456L7.42187 14.6456L7.42187 13.3156L14.4719 16.2256L14.4719 17.3056Z" fill="#FAFBFD"/>
</svg>
