<svg width="14" height="12" viewBox="0 0 14 12" fill="none" xmlns="http://www.w3.org/2000/svg">
<path d="M4.74363 4.70598C4.74363 5.07461 4.4448 5.37349 4.07617 5.37349C3.70753 5.37349 3.4087 5.07461 3.4087 4.70598C3.4087 4.33736 3.70753 4.03848 4.07617 4.03848C4.4448 4.03848 4.74363 4.33736 4.74363 4.70598Z" fill="#FAFAFA"/>
<path d="M10.6669 4.70598C10.6669 5.07461 10.368 5.37349 9.99938 5.37349C9.63076 5.37349 9.33193 5.07461 9.33193 4.70598C9.33193 4.33736 9.63076 4.03848 9.99938 4.03848C10.368 4.03848 10.6669 4.33736 10.6669 4.70598Z" fill="#FAFAFA"/>
<path d="M7.03987 5.37349C7.40849 5.37349 7.70732 5.07461 7.70732 4.70598C7.70732 4.33736 7.40849 4.03848 7.03987 4.03848C6.67122 4.03848 6.37239 4.33736 6.37239 4.70598C6.37239 5.07461 6.67122 5.37349 7.03987 5.37349Z" fill="#FAFAFA"/>
<path fill-rule="evenodd" clip-rule="evenodd" d="M1.83028 11.3847C1.88906 11.4183 1.95204 11.4351 2.01919 11.4351C2.11156 11.4351 2.2039 11.3974 2.27526 11.3344L5.05847 8.7191H12.2201C13.2024 8.7191 14 7.92151 14 6.93919V2.34241C14 1.36009 13.2024 0.5625 12.2201 0.5625H1.77991C0.797612 0.5625 0 1.36429 0 2.34241V6.93919C0 7.92151 0.797612 8.7191 1.77991 8.7191H2.1997L1.65398 10.9691C1.61201 11.1328 1.68757 11.3007 1.83028 11.3847ZM0.751416 2.33821C0.751416 1.77567 1.2132 1.31814 1.77571 1.31814V1.32235H12.2201C12.7868 1.32235 13.2444 1.77988 13.2444 2.34241V6.93919C13.2444 7.5059 12.7826 7.96346 12.2201 7.96346H4.91155C4.81501 7.96346 4.72264 7.99705 4.65129 8.0642L2.68247 9.91124L3.04348 8.42517C3.06867 8.31181 3.04348 8.19436 2.97212 8.10202C2.90074 8.01386 2.79162 7.95926 2.67406 7.95926H1.77571C1.209 7.95926 0.751416 7.49752 0.751416 6.93499V2.33821Z" fill="#FAFAFA"/>
</svg>
