<svg width="22" height="22" viewBox="0 0 22 22" fill="none" xmlns="http://www.w3.org/2000/svg">
<path d="M10.974 8.50302C11.5937 8.50302 12.0961 8.00069 12.0961 7.38104C12.0961 6.76138 11.5937 6.25906 10.974 6.25906C10.3544 6.25906 9.85205 6.76138 9.85205 7.38104C9.85205 8.00069 10.3544 8.50302 10.974 8.50302Z" fill="#169A8E"/>
<path d="M10.4488 14.6452V10.494H9.91048V9.39161H11.5513V14.6452H12.9068V15.7476H9.0933V14.6452H10.4488Z" fill="#169A8E"/>
<path fill-rule="evenodd" clip-rule="evenodd" d="M0.5 11C0.5 16.7916 5.20849 21.5 11 21.5C16.7916 21.5 21.5001 16.7851 21.5001 11C21.5001 5.20841 16.7916 0.5 11 0.5C5.20849 0.5 0.5 5.20841 0.5 11ZM1.60254 11C1.60254 5.81809 5.81812 1.60235 11 1.60235C16.182 1.60235 20.3975 5.81809 20.3975 11C20.3975 16.1819 16.182 20.3973 11 20.3973C5.81812 20.3973 1.60254 16.1819 1.60254 11Z" fill="#169A8E"/>
</svg>
