<svg width="17" height="16" viewBox="0 0 17 16" fill="none" xmlns="http://www.w3.org/2000/svg">
<path d="M6.39185 10.2811H4.83812V10.9817H6.39185V10.2811Z" fill="#959DB6"/>
<path d="M10.6076 10.2811H12.1614V10.9817H10.6076V10.2811Z" fill="#959DB6"/>
<path fill-rule="evenodd" clip-rule="evenodd" d="M10.2616 13.5947H6.71326V14.4441C6.71326 14.7491 6.46598 15.0005 6.161 15.0005H4.52896C4.22398 15.0005 3.97258 14.7532 3.97258 14.4441V13.2987C3.7007 13.069 3.52719 12.7257 3.52719 12.3419V4.27435L2.91742 4.71632V6.64509H2.2168V4.35776L3.52719 3.41092V2.25288C3.52719 1.56462 4.08769 1 4.78007 1H12.2232C12.9114 1 13.4761 1.5605 13.4761 2.25288V3.41924L14.7826 4.35873V6.64606H14.082V4.71728L13.4761 4.28378V12.3419C13.4737 12.7379 13.2893 13.0908 13.0023 13.3203V14.4441C13.0064 14.7491 12.755 15.0005 12.4501 15.0005H10.818C10.513 15.0005 10.2616 14.7532 10.2616 14.4441V13.5947ZM10.9623 13.5947V14.2999H12.3017V13.5921C12.2744 13.5938 12.2468 13.5947 12.219 13.5947H10.9623ZM4.78007 13.5947H6.01264V14.2999H4.67321V13.5902C4.70845 13.5932 4.74409 13.5947 4.78007 13.5947ZM4.78007 1.70062C4.4751 1.70062 4.22782 1.9479 4.22782 2.25288V2.92037H12.7754V2.25288C12.7754 1.9479 12.5281 1.70062 12.2232 1.70062H4.78007ZM12.7754 3.621V8.75616H4.22782V3.621H12.7754ZM12.7754 9.45678H4.22782V12.3419C4.22782 12.6468 4.4751 12.8941 4.78007 12.8941H12.2232C12.5281 12.8941 12.7754 12.6468 12.7754 12.3419V9.45678Z" fill="#959DB6"/>
</svg>
