<svg width="52" height="21" viewBox="0 0 52 21" fill="none" xmlns="http://www.w3.org/2000/svg">
<path d="M18.4801 12.5406H36.326L36.6574 11.7095H17.3829L18.4801 12.5406Z" fill="#007934"/>
<path d="M19.6172 10.1761L20.7201 11.0161H36.9315L37.2686 10.1761H19.6172Z" fill="#007934"/>
<path d="M36.2574 9.51395L34.7831 8.74062H21.9716L22.9887 9.51395H36.2574Z" fill="#007934"/>
<path d="M33.36 7.99389L31.5885 7.06945H23.1943L24.4229 7.99389H33.36Z" fill="#007934"/>
<path d="M41.4285 0.753906L38.8228 6.82504H31.1372L32.44 7.5095H45.4629L43.9886 8.37616H29.2114L29.8914 9.03393L42.8742 9.02951L41.4857 9.84285H26.5543L27.4228 10.5228H40.3428L38.8058 11.4251L23.7428 11.434L24.6 12.0873H37.6799L36.1599 12.9851L35.0286 15.8251L41.4285 12.2295L47.823 15.8251L45.5371 10.0651L51.7143 6.82504H44.0345L41.4285 0.753906Z" fill="#F5B335"/>
<path d="M2.87435 20.2029H0.285767V17.0918H2.82864V17.4562H0.80577V18.4429H2.51435V18.8118H0.80577V19.8385H2.87435V20.2029Z" fill="black"/>
<path d="M5.80008 17.5495C5.80008 17.5495 5.37152 17.4117 4.85152 17.4117C4.4515 17.4117 4.06293 17.5228 4.06293 17.8339C4.06293 18.4962 6.11438 18.2873 6.11438 19.3317C6.11438 19.7984 5.63438 20.2428 4.67437 20.2428C4.01153 20.2428 3.53152 20.0162 3.53152 20.0162V19.6028C3.53152 19.6028 4.07438 19.8828 4.67437 19.8828C5.06866 19.8828 5.58866 19.7584 5.58866 19.3584C5.58866 18.6606 3.54294 18.8606 3.54294 17.8651C3.54294 17.3184 4.14865 17.0428 4.8458 17.0428C5.46868 17.0428 5.80008 17.1762 5.80008 17.1762V17.5495Z" fill="black"/>
<path d="M8.08589 17.4562V20.1984H7.5773V17.4562H6.463V17.0873H9.20588V17.4562H8.08589Z" fill="black"/>
<path d="M10.423 18.594H11.1944C11.6859 18.594 12.0002 18.3185 12.0002 18.0162C12.0002 17.714 11.6973 17.4518 11.2573 17.4518H10.383V20.2029H9.87442V17.0918H11.2459C11.9887 17.0918 12.4973 17.5007 12.4973 18.0118C12.4973 18.4784 12.0002 18.8873 11.3601 18.8873L12.8287 20.2029H12.1601L10.4344 18.5984L10.423 18.594Z" fill="black"/>
<path d="M16.0631 20.2029H13.4745V17.0918H16.0174V17.4562H13.9945V18.4429H15.7031V18.8118H13.9945V19.8385H16.0631V20.2029Z" fill="black"/>
<path d="M19.143 19.8295V20.1984H16.7201V17.0873H17.2344V19.8295H19.143Z" fill="black"/>
<path d="M22.2229 19.8295V20.1984H19.8001V17.0873H20.3143V19.8295H22.2229Z" fill="black"/>
<path d="M27.7432 20.2029V17.0918H28.8861C30.2289 17.0918 30.9946 17.7407 30.9946 18.6473C30.9946 19.554 30.2346 20.2029 28.8861 20.2029H27.7432ZM28.4575 19.6962H28.9089C29.7946 19.6962 30.2804 19.2429 30.2804 18.6473C30.2804 18.0518 29.7946 17.5984 28.9089 17.5984H28.4575V19.6962Z" fill="black"/>
<path d="M34.3602 20.2029H31.6517V17.0918H34.3203V17.6162H32.3545V18.3673H34.0115V18.8918H32.3545V19.6829H34.3602V20.2029Z" fill="black"/>
<path d="M37.7604 17.0473C38.9146 17.0473 39.846 17.7584 39.846 18.6428C39.846 19.5273 38.9203 20.2473 37.7604 20.2473C36.6001 20.2473 35.6861 19.5273 35.6861 18.6428C35.6861 17.7584 36.6174 17.0473 37.7604 17.0473ZM37.7604 19.7362C38.5203 19.7362 39.1432 19.2339 39.1432 18.6428C39.1432 18.0517 38.5203 17.5584 37.7604 17.5584C37.0004 17.5584 36.3832 18.0517 36.3832 18.6428C36.3832 19.2339 37.006 19.7362 37.7604 19.7362Z" fill="black"/>
<path d="M45.7317 17.0473C46.886 17.0473 47.8173 17.7584 47.8173 18.6428C47.8173 19.5273 46.8917 20.2473 45.7317 20.2473C44.5718 20.2473 43.6575 19.5273 43.6575 18.6428C43.6575 17.7584 44.5888 17.0473 45.7317 17.0473ZM45.7317 19.7362C46.4917 19.7362 47.1146 19.2339 47.1146 18.6428C47.1146 18.0517 46.4917 17.5584 45.7317 17.5584C44.9718 17.5584 44.3545 18.0517 44.3545 18.6428C44.3545 19.2339 44.9774 19.7362 45.7317 19.7362Z" fill="black"/>
<path d="M41.0631 20.2029H40.3657V17.0918H41.863C42.6459 17.0918 43.1317 17.514 43.1317 18.0251C43.1317 18.4918 42.7431 18.8118 42.2743 18.9229L43.4688 20.2029H42.5431L41.1373 18.5407H41.7203C42.2117 18.5407 42.446 18.314 42.446 18.0696C42.446 17.8251 42.2001 17.5984 41.8517 17.5984H41.0631V20.2029Z" fill="black"/>
<path d="M24.4573 16.9762L22.7487 20.2029H23.303L23.6288 19.5495V19.5451L23.8116 19.1806L24.4573 17.8784L25.103 19.1806H23.8116L23.9887 19.5406H25.2802L25.6002 20.2029H26.1602L24.4573 16.9762Z" fill="black"/>
<path d="M19.3371 15.2739H19.0114V15.825H18.4914V14.1495H19.3371C19.8114 14.1495 20.08 14.4117 20.08 14.7095C20.08 15.0072 19.8057 15.2739 19.3371 15.2739ZM19.0171 14.9006H19.3085C19.48 14.9006 19.5657 14.8162 19.5657 14.7139C19.5657 14.6117 19.48 14.5317 19.3142 14.5317H19.0171V14.9006Z" fill="#F5B335"/>
<path d="M23.1886 15.4473V15.8295H21.7086V14.154H22.2286V15.4473H23.1886Z" fill="#F5B335"/>
<path d="M25.1829 15.1451C25.1829 15.3362 25.36 15.4606 25.5829 15.4606C25.8058 15.4606 25.9772 15.3362 25.9772 15.1451V14.154H26.5029V15.1273C26.5029 15.634 26.0115 15.8517 25.5886 15.8517C25.1658 15.8517 24.6686 15.634 24.6686 15.1273V14.154H25.1886V15.1451H25.1829Z" fill="#F5B335"/>
<path d="M29.5772 14.6294C29.5772 14.6294 29.2972 14.505 28.9543 14.505C28.8172 14.505 28.7143 14.545 28.7143 14.6161C28.7143 14.8072 29.7486 14.7717 29.7486 15.3272C29.7486 15.6072 29.4343 15.8517 28.8857 15.8517C28.4858 15.8517 28.1829 15.7228 28.1829 15.7228V15.3139C28.1829 15.3139 28.4972 15.4739 28.8857 15.4739C29.0286 15.4739 29.1943 15.4339 29.1943 15.3361C29.1943 15.1094 28.1829 15.1672 28.1829 14.6294C28.1829 14.2916 28.56 14.1272 28.96 14.1272C29.3257 14.1272 29.5772 14.2294 29.5772 14.2294V14.6294Z" fill="#F5B335"/>
<path d="M32.7201 14.6294C32.7201 14.6294 32.44 14.505 32.0972 14.505C31.9601 14.505 31.8573 14.545 31.8573 14.6161C31.8573 14.8072 32.8915 14.7717 32.8915 15.3272C32.8915 15.6072 32.577 15.8517 32.0287 15.8517C31.6287 15.8517 31.3258 15.7228 31.3258 15.7228V15.3139C31.3258 15.3139 31.6401 15.4739 32.0287 15.4739C32.1714 15.4739 32.3371 15.4339 32.3371 15.3361C32.3371 15.1094 31.3258 15.1672 31.3258 14.6294C31.3258 14.2916 31.7029 14.1272 32.1029 14.1272C32.4686 14.1272 32.7201 14.2294 32.7201 14.2294V14.6294Z" fill="#F5B335"/>
</svg>
