<svg width="40" height="41" viewBox="0 0 40 41" fill="none" xmlns="http://www.w3.org/2000/svg">
<path fill-rule="evenodd" clip-rule="evenodd" d="M34.698 20.6829C34.698 12.5652 28.1172 5.98437 19.9994 5.98438C11.8816 5.98438 5.30078 12.5652 5.30078 20.6829C5.30078 28.8007 11.8816 35.3815 19.9994 35.3815C28.1172 35.3815 34.698 28.8007 34.698 20.6829ZM31.7576 20.6829C31.7576 14.1887 26.4929 8.92404 19.9987 8.92404C13.5044 8.92404 8.23981 14.1887 8.23981 20.6829C8.23981 27.1771 13.5044 32.4418 19.9987 32.4418C26.4929 32.4418 31.7576 27.1771 31.7576 20.6829Z" fill="#474A56"/>
<path fill-rule="evenodd" clip-rule="evenodd" d="M33.4731 20.6829C33.4731 13.2416 27.4407 7.20926 19.9994 7.20926C12.558 7.20926 6.52566 13.2416 6.52566 20.6829C6.52566 28.1243 12.558 34.1566 19.9994 34.1566C27.4407 34.1566 33.4731 28.1243 33.4731 20.6829ZM19.9987 7.69915C27.1694 7.69915 32.9824 13.5122 32.9824 20.6829C32.9824 27.8536 27.1694 33.6666 19.9987 33.6666C12.828 33.6666 7.01493 27.8536 7.01493 20.6829C7.01493 13.5122 12.828 7.69915 19.9987 7.69915ZM19.9994 5.98438C28.1172 5.98437 34.698 12.5652 34.698 20.6829C34.698 28.8007 28.1172 35.3815 19.9994 35.3815C11.8816 35.3815 5.30078 28.8007 5.30078 20.6829C5.30078 12.5652 11.8816 5.98438 19.9994 5.98438ZM19.9987 8.92404C26.4929 8.92404 31.7576 14.1887 31.7576 20.6829C31.7576 27.1771 26.4929 32.4418 19.9987 32.4418C13.5044 32.4418 8.23981 27.1771 8.23981 20.6829C8.23981 14.1887 13.5044 8.92404 19.9987 8.92404Z" fill="#474A56"/>
<path fill-rule="evenodd" clip-rule="evenodd" d="M18.7238 8.08402C12.1612 19.027 15.9894 29.4419 18.7238 33.2816C18.7238 23.4921 26.4724 21.0637 31.8194 21.0256C32.1188 21.037 32.4252 21.0428 32.7386 21.0428C32.4419 21.0294 32.1348 21.0233 31.8194 21.0256C20.5656 20.5978 19.0041 12.2916 18.7238 8.08402ZM21.9584 20.6819C21.9584 19.0584 20.6422 17.7422 19.0187 17.7422C17.3951 17.7422 16.0789 19.0584 16.0789 20.6819C16.0789 22.3055 17.3951 23.6217 19.0187 23.6217C20.6422 23.6217 21.9584 22.3055 21.9584 20.6819Z" fill="#474A56"/>
<path fill-rule="evenodd" clip-rule="evenodd" d="M17.9671 29.2779C18.4315 27.4403 19.2193 25.9162 20.2291 24.6679C19.8461 24.7841 19.4397 24.8465 19.0187 24.8465C18.0986 24.8465 17.2483 24.5482 16.5591 24.043C16.845 26.0274 17.3664 27.7997 17.9671 29.2779ZM16.6023 17.2897C17.2837 16.8034 18.1178 16.5173 19.0187 16.5173C19.4116 16.5173 19.7919 16.5718 20.1523 16.6735C20.1509 16.6716 20.1496 16.6697 20.1483 16.6677C19.1148 15.1696 18.4842 13.5495 18.0953 12.0333C17.3483 13.8315 16.8705 15.5941 16.6023 17.2897ZM23.0445 19.6118C23.135 19.9533 23.1833 20.312 23.1833 20.6819C23.1833 21.2522 23.0687 21.7956 22.8612 22.2905C23.6898 21.7425 24.5682 21.3034 25.4646 20.9559C24.5647 20.5747 23.7611 20.1215 23.0445 19.6118ZM31.8391 19.8005C26.5754 19.594 23.7532 17.5793 22.1648 15.2767C20.5226 12.896 20.0815 10.0373 19.9459 8.00258C19.9103 7.46824 19.5317 7.01898 19.0112 6.89333C18.4906 6.76768 17.9487 6.99478 17.6733 7.45405C10.7959 18.9221 14.7898 29.8691 17.726 33.9921C18.0351 34.4261 18.5893 34.6105 19.0967 34.4483C19.6042 34.2861 19.9486 33.8144 19.9486 33.2816C19.9486 28.7645 21.7086 26.0926 23.9719 24.4982C26.295 22.8616 29.2806 22.2726 31.8013 22.2506C32.1076 22.2619 32.4199 22.2676 32.7386 22.2676C33.4043 22.2676 33.9481 21.7359 33.9631 21.0703C33.9781 20.4048 33.4588 19.8491 32.7937 19.8191C32.4848 19.8052 32.1659 19.7987 31.8391 19.8005ZM17.3038 20.6819C17.3038 21.629 18.0716 22.3968 19.0187 22.3968C19.9657 22.3968 20.7335 21.629 20.7335 20.6819C20.7335 19.7349 19.9657 18.9671 19.0187 18.9671C18.0716 18.9671 17.3038 19.7349 17.3038 20.6819Z" fill="#474A56"/>
</svg>
